<?xml version="1.0" standalone="no"?>
<!DOCTYPE svg PUBLIC "-//W3C//DTD SVG 1.1//EN" "http://www.w3.org/Graphics/SVG/1.1/DTD/svg11.dtd" >
<svg xmlns="http://www.w3.org/2000/svg" xmlns:xlink="http://www.w3.org/1999/xlink" version="1.1">
<metadata>
Created by FontForge 20201107 at Thu Apr 24 09:27:51 2025
 By 
(c)2021 Dave Lawrence
</metadata>
<defs>
<font id="Oceanwide-Semibold" horiz-adv-x="819" >
  <font-face 
    font-family="Oceanwide QLt"
    font-weight="600"
    font-stretch="normal"
    units-per-em="2048"
    panose-1="2 11 0 4 2 2 3 2 2 4"
    ascent="1546"
    descent="-502"
    x-height="1044"
    cap-height="1495"
    bbox="-909 -492 2540 2212"
    underline-thickness="102"
    underline-position="-255"
    unicode-range="U+000D-FB02"
  />
<missing-glyph horiz-adv-x="1222" 
d="M47 0v1475h1129v-1475h-1129zM258 356l610 930h-610v-930zM360 188h605v924z" />
    <glyph glyph-name=".notdef" horiz-adv-x="1222" 
d="M47 0v1475h1129v-1475h-1129zM258 356l610 930h-610v-930zM360 188h605v924z" />
    <glyph glyph-name="uni0000" horiz-adv-x="0" 
 />
    <glyph glyph-name="uni0000" horiz-adv-x="0" 
 />
    <glyph glyph-name="uni000D" unicode="&#xd;" horiz-adv-x="512" 
 />
    <glyph glyph-name="space" unicode=" " horiz-adv-x="501" 
 />
    <glyph glyph-name="exclam" unicode="!" horiz-adv-x="595" 
d="M172 449l-22 1046h299l-25 -1046h-252zM119 139q0 72 52 122t128 50q75 0 127.5 -50t52.5 -122t-52.5 -121t-127.5 -49q-76 0 -128 49t-52 121z" />
    <glyph glyph-name="quotedbl" unicode="&#x22;" horiz-adv-x="888" 
d="M127 885l-27 610h277l-27 -610h-223zM539 885l-27 610h276l-26 -610h-223z" />
    <glyph glyph-name="numbersign" unicode="#" horiz-adv-x="1052" 
d="M143 315l50 314h-148v166h172l35 223h-143v166h167l50 313h182l-49 -313h221l49 313h182l-49 -313h148v-166h-172l-35 -223h143v-166h-170l-47 -314h-182l49 314h-223l-47 -314h-183zM399 795h222l34 223h-221z" />
    <glyph glyph-name="dollar" unicode="$" horiz-adv-x="1107" 
d="M422 -184v194q-108 15 -209 55t-174 97l147 233q75 -60 166 -93.5t176 -33.5q97 0 156 43t59 113q0 59 -50.5 105.5t-168.5 93.5l-59 24q-192 80 -279.5 181t-87.5 245q0 160 95.5 269.5t259.5 140.5v186h239v-184q189 -29 318 -115l-140 -231q-163 94 -286 94
q-87 0 -142 -39.5t-55 -103.5q0 -57 54 -104t182 -103l65 -27q183 -76 265.5 -174.5t82.5 -239.5q0 -168 -102 -283t-275 -147v-196h-237z" />
    <glyph glyph-name="percent" unicode="%" horiz-adv-x="1765" 
d="M438 805q-158 0 -266.5 104t-108.5 256t108.5 255.5t266.5 103.5q157 0 265 -104t108 -255q0 -152 -108.5 -256t-264.5 -104zM260 0l1004 1475h229l-1001 -1475h-232zM438 1001q66 0 111 46.5t45 115.5t-46 115.5t-114 46.5q-67 0 -111 -47t-44 -117q1 -69 47 -114.5
t112 -45.5zM1329 690q157 0 266 -104.5t109 -255.5q0 -152 -109 -256.5t-266 -104.5t-265 105t-108 256t109 255.5t264 104.5zM1329 492q-66 0 -110.5 -46t-44.5 -114q0 -69 46 -116.5t113 -47.5t111.5 48.5t42.5 117.5q-1 68 -46.5 113t-111.5 45z" />
    <glyph glyph-name="ampersand" unicode="&#x26;" horiz-adv-x="1540" 
d="M1135 0l-117 131q-198 -162 -436 -162q-220 0 -362 119t-142 303q0 135 82 242.5t235 175.5l-18 20q-65 73 -101 157t-36 163q0 76 35 146t94.5 120.5t141.5 80.5t173 30q185 0 313.5 -111t128.5 -272q0 -224 -295 -393l222 -242q76 76 153 174l211 -160
q-106 -135 -182 -211l287 -311h-387zM670 915q82 36 136 101.5t54 132.5q0 65 -50 110.5t-120 45.5q-71 0 -119.5 -46.5t-48.5 -113.5q0 -59 39 -119.5t109 -110.5zM864 334l-289 307q-92 -35 -146 -99t-54 -139q0 -83 64 -135.5t165 -52.5q135 0 260 119z" />
    <glyph glyph-name="quotesingle" unicode="'" horiz-adv-x="477" 
d="M127 885l-27 610h277l-27 -610h-223z" />
    <glyph glyph-name="parenleft" unicode="(" horiz-adv-x="761" 
d="M662 -258l-211 -127q-163 201 -254 455t-91 505t91.5 507t253.5 456l211 -127q-139 -171 -216 -390.5t-77 -442.5q0 -225 77 -445t216 -391z" />
    <glyph glyph-name="parenright" unicode=")" horiz-adv-x="761" 
d="M100 1411l213 127q161 -201 251.5 -455t90.5 -505t-90.5 -506.5t-251.5 -456.5l-213 127q139 171 216 391t77 445q0 223 -77 442.5t-216 390.5z" />
    <glyph glyph-name="asterisk" unicode="*" horiz-adv-x="1062" 
d="M197 795l194 247l-305 86l61 191l295 -107l-12 312h201l-10 -314l294 109l64 -191l-305 -86l194 -247l-163 -119l-173 258l-174 -258z" />
    <glyph glyph-name="plus" unicode="+" horiz-adv-x="1155" 
d="M455 207v407h-371v215h371v371h245v-371h369v-215h-369v-407h-245z" />
    <glyph glyph-name="comma" unicode="," horiz-adv-x="557" 
d="M-14 -266l243 563l248 -123l-295 -539z" />
    <glyph glyph-name="hyphen" unicode="-" horiz-adv-x="768" 
d="M84 414v248h600v-248h-600z" />
    <glyph glyph-name="period" unicode="." horiz-adv-x="563" 
d="M102 139q0 72 52.5 122t128.5 50q75 0 127.5 -50t52.5 -122t-52.5 -121t-127.5 -49q-77 0 -129 49t-52 121z" />
    <glyph glyph-name="slash" unicode="/" horiz-adv-x="956" 
d="M39 -338l582 1946h229l-584 -1946h-227z" />
    <glyph glyph-name="zero" unicode="0" horiz-adv-x="1347" 
d="M76 815q0 319 164.5 515t433.5 196q267 0 432.5 -196t165.5 -515v-135q0 -319 -165.5 -515t-432.5 -196q-269 0 -433.5 196t-164.5 515v135zM367 680q0 -204 82.5 -323t224.5 -119t224.5 119t82.5 323v135q0 204 -82.5 323t-224.5 119q-144 0 -225.5 -118t-81.5 -324
v-135z" />
    <glyph glyph-name="one" unicode="1" horiz-adv-x="882" 
d="M467 0v1180l-291 -267l-162 193l437 389h297v-1495h-281z" />
    <glyph glyph-name="two" unicode="2" horiz-adv-x="1183" 
d="M86 0v244l516 536q93 98 134.5 167t41.5 130q0 78 -58.5 129t-150.5 51q-87 0 -147.5 -51.5t-85.5 -146.5l-268 57q37 188 177 299t339 111q214 0 349.5 -121.5t135.5 -312.5q0 -119 -69 -237.5t-248 -303.5l-299 -305h657v-246h-1024z" />
    <glyph glyph-name="three" unicode="3" horiz-adv-x="1171" 
d="M39 309l248 123q40 -92 117.5 -144t175.5 -52q103 0 169 55t66 141q0 94 -83 152.5t-218 58.5h-160v238h156q120 0 196 57.5t76 146.5q0 82 -61 133.5t-156 51.5q-84 0 -148.5 -43.5t-101.5 -124.5l-262 67q54 168 191 262.5t327 94.5q215 0 355.5 -115.5t140.5 -292.5
q0 -117 -64 -205.5t-184 -134.5v-10q135 -50 208 -145t73 -222q0 -189 -149 -310.5t-378 -121.5q-193 0 -335.5 91t-198.5 249z" />
    <glyph glyph-name="four" unicode="4" horiz-adv-x="1298" 
d="M63 287v288l627 920h359v-973h186v-235h-182v-287h-281v287h-709zM328 520h446v670z" />
    <glyph glyph-name="five" unicode="5" horiz-adv-x="1222" 
d="M72 258l239 148q47 -82 121.5 -127.5t161.5 -45.5q118 0 197 76.5t79 190.5t-79 191t-197 77q-81 0 -151.5 -41.5t-120.5 -118.5l-218 68l33 819h932v-246h-682l-16 -348q118 115 297 115q209 0 348 -146.5t139 -365.5q0 -232 -157 -383.5t-398 -151.5q-173 0 -320 80
t-208 209z" />
    <glyph glyph-name="six" unicode="6" horiz-adv-x="1298" 
d="M1194 1386l-141 -229q-76 58 -146.5 83.5t-152.5 25.5q-180 0 -286.5 -111t-117.5 -309q62 80 161 125t214 45q142 0 258.5 -67.5t183 -186t66.5 -262.5q0 -229 -161.5 -380t-405.5 -151q-276 0 -433 199.5t-157 550.5q0 376 180.5 591.5t495.5 215.5q233 0 442 -140z
M381 492q0 -114 83 -193.5t200 -79.5q118 0 200 79.5t82 193.5t-82 193t-200 79q-117 0 -200 -79t-83 -193z" />
    <glyph glyph-name="seven" unicode="7" horiz-adv-x="1228" 
d="M121 0l723 1245h-768v250h1071v-260l-690 -1235h-336z" />
    <glyph glyph-name="eight" unicode="8" horiz-adv-x="1263" 
d="M330 782q-104 50 -161.5 136.5t-57.5 195.5q0 180 146.5 296t375.5 116q227 0 374.5 -114.5t147.5 -291.5q0 -110 -60.5 -200.5t-166.5 -137.5v-12q118 -43 192 -146t74 -225q0 -120 -73.5 -219t-203 -155t-286.5 -56q-239 0 -399 124t-160 310q0 122 70.5 222.5
t187.5 144.5v12zM393 1083q0 -87 70 -146.5t170 -59.5q102 0 171.5 59.5t69.5 146.5q0 86 -70 145.5t-171 59.5q-100 0 -170 -59.5t-70 -145.5zM367 438q0 -97 77 -163t189 -66q110 0 187 66t77 161q0 96 -77 162t-191 66q-110 0 -186 -65.5t-76 -160.5z" />
    <glyph glyph-name="nine" unicode="9" horiz-adv-x="1298" 
d="M106 109l142 229q76 -58 145.5 -83.5t151.5 -25.5q181 0 286.5 110.5t116.5 309.5q-62 -80 -161 -125t-214 -45q-215 0 -360 148t-145 368q0 229 160.5 380t406.5 151q275 0 432.5 -200t157.5 -550q0 -377 -181 -592t-497 -215q-231 0 -441 140zM918 1004q0 114 -82 193
t-201 79t-201 -79t-82 -193t82.5 -193.5t200.5 -79.5t200.5 79.5t82.5 193.5z" />
    <glyph glyph-name="colon" unicode=":" horiz-adv-x="583" 
d="M113 915q0 72 52 121t128 49q75 0 127.5 -49t52.5 -121t-52.5 -122t-127.5 -50q-76 0 -128 50t-52 122zM113 139q0 72 52 122t128 50q75 0 127.5 -50t52.5 -122t-52.5 -121t-127.5 -49q-76 0 -128 49t-52 121z" />
    <glyph glyph-name="semicolon" unicode=";" horiz-adv-x="581" 
d="M119 915q0 72 52.5 121t129.5 49q75 0 126.5 -49t51.5 -121t-51.5 -122t-126.5 -50q-76 0 -129 50t-53 122zM-14 -266l243 563l248 -123l-295 -539z" />
    <glyph glyph-name="less" unicode="&#x3c;" horiz-adv-x="1075" 
d="M78 623v172l885 426v-240l-598 -272l598 -269v-241z" />
    <glyph glyph-name="equal" unicode="=" horiz-adv-x="1155" 
d="M84 819v215h985v-215h-985zM84 420v215h985v-215h-985z" />
    <glyph glyph-name="greater" unicode="&#x3e;" horiz-adv-x="1075" 
d="M997 797v-172l-884 -426v239l596 271l-596 270v242z" />
    <glyph glyph-name="question" unicode="?" horiz-adv-x="1097" 
d="M371 424v379q44 -6 82 -6q127 0 206.5 63.5t79.5 167.5q0 94 -65 157.5t-162 63.5q-77 0 -140.5 -45t-107.5 -131l-229 166q72 131 206.5 209t288.5 78q209 0 352.5 -136.5t143.5 -334.5q0 -170 -108.5 -299.5t-278.5 -161.5v-170h-268zM330 139q0 72 52 122t128 50
q75 0 127.5 -50t52.5 -122t-52.5 -121t-127.5 -49q-76 0 -128 49t-52 121z" />
    <glyph glyph-name="at" unicode="@" horiz-adv-x="1734" 
d="M848 -133v-176q-215 0 -393.5 103.5t-281.5 282t-103 392.5q0 162 62.5 307t170.5 248.5t259 164t321 60.5q220 0 402 -96t287 -264t105 -371q0 -206 -106.5 -333.5t-278.5 -127.5q-150 0 -202 111q-108 -111 -265 -111q-161 0 -274 121t-113 293q0 173 113 294.5
t274 121.5q134 0 240 -88v59h203v-422q0 -182 84 -182q60 0 101.5 79.5t41.5 194.5q0 152 -78 276.5t-215 195.5t-305 71q-178 0 -324 -79.5t-229.5 -219t-83.5 -309.5q0 -164 77.5 -301t213 -216t297.5 -79zM664 471q0 -86 57.5 -145.5t142.5 -59.5q83 0 141 59.5t58 145.5
t-58 145.5t-141 59.5q-85 0 -142.5 -59.5t-57.5 -145.5z" />
    <glyph glyph-name="A" unicode="A" horiz-adv-x="1609" 
d="M20 0l637 1495h308l624 -1495h-315l-125 307h-692l-129 -307h-308zM563 565h479l-237 580z" />
    <glyph glyph-name="B" unicode="B" horiz-adv-x="1288" 
d="M113 0v1495h557q232 0 379 -110t147 -283q0 -107 -61.5 -191.5t-178.5 -138.5v-8q128 -46 199.5 -139t71.5 -213q0 -117 -67.5 -211.5t-188.5 -147.5t-271 -53h-587zM403 874h232q117 0 184.5 50.5t67.5 136.5q0 88 -67.5 138t-184.5 50h-232v-375zM403 248h242
q127 0 200 52t73 144q0 91 -73.5 143t-199.5 52h-242v-391z" />
    <glyph glyph-name="C" unicode="C" horiz-adv-x="1517" 
d="M1245 442l240 -190q-117 -137 -276.5 -210t-340.5 -73q-166 0 -313.5 61t-253.5 165t-167.5 249.5t-61.5 307.5q0 161 61.5 304.5t167 246.5t253.5 163t314 60q184 0 340 -73t265 -208l-240 -176q-66 83 -163 129.5t-206 46.5q-132 0 -242 -65.5t-173.5 -179.5
t-63.5 -250q0 -209 140.5 -354.5t342.5 -145.5q226 0 377 192z" />
    <glyph glyph-name="D" unicode="D" horiz-adv-x="1527" 
d="M113 0v1495h551q231 0 411.5 -94.5t280.5 -264t100 -386.5q0 -216 -100.5 -387t-281.5 -267t-410 -96h-551zM403 258h234q220 0 363 140t143 354q0 212 -142.5 348.5t-363.5 136.5h-234v-979z" />
    <glyph glyph-name="E" unicode="E" horiz-adv-x="1173" 
d="M115 0v1495h958v-268h-667v-342h632l-2 -256h-630v-361h698v-268h-989z" />
    <glyph glyph-name="F" unicode="F" horiz-adv-x="1138" 
d="M115 0v1495h954v-268h-663v-353h618v-256h-618v-618h-291z" />
    <glyph glyph-name="G" unicode="G" horiz-adv-x="1669" 
d="M899 569v256h700q12 -249 -75.5 -444t-258.5 -303.5t-397 -108.5q-165 0 -313 61t-254 164.5t-167.5 248t-61.5 305.5t62 305t167.5 248t252 164.5t310.5 60.5q218 0 393 -100.5t254 -272.5l-262 -137q-130 229 -383 229q-204 0 -342.5 -142.5t-138.5 -354.5t139.5 -355
t345.5 -143q163 0 277.5 90.5t128.5 228.5h-377z" />
    <glyph glyph-name="H" unicode="H" horiz-adv-x="1456" 
d="M1343 1495v-1495h-290v627h-650v-627h-290v1495h290v-598h650v598h290z" />
    <glyph glyph-name="I" unicode="I" horiz-adv-x="516" 
d="M113 0v1495h290v-1495h-290z" />
    <glyph glyph-name="J" unicode="J" horiz-adv-x="1021" 
d="M0 276l264 121q72 -147 189 -147q75 0 119.5 51t43.5 137l2 88v969h291v-1079q0 -205 -118.5 -326t-319.5 -121q-165 0 -289 80.5t-182 226.5z" />
    <glyph glyph-name="K" unicode="K" horiz-adv-x="1329" 
d="M113 0v1495h290v-618l500 618h363l-594 -713l645 -782h-379l-535 670v-670h-290z" />
    <glyph glyph-name="L" unicode="L" horiz-adv-x="1073" 
d="M113 0v1495h290v-1227h603v-268h-893z" />
    <glyph glyph-name="M" unicode="M" horiz-adv-x="1841" 
d="M1726 1495v-1495h-290v1128h-13l-385 -1128h-231l-393 1147h-11v-1147h-290v1495h467l340 -1016h8l334 1016h464z" />
    <glyph glyph-name="N" unicode="N" horiz-adv-x="1570" 
d="M1458 1495v-1495h-295l-751 1032h-9v-1032h-290v1495h293l751 -1026h10v1026h291z" />
    <glyph glyph-name="O" unicode="O" horiz-adv-x="1732" 
d="M72 748q0 160 62 304t168 248t253 165t311 61t311.5 -61t254 -165t169 -248t62.5 -304q0 -161 -62.5 -305.5t-169 -248t-254 -164.5t-311.5 -61t-311 61t-253 164.5t-168 248t-62 305.5zM385 748q0 -209 139.5 -353.5t341.5 -144.5q133 0 244.5 66t175.5 180.5t64 251.5
t-64.5 251.5t-175.5 180t-244 65.5t-243.5 -65.5t-174 -180t-63.5 -251.5z" />
    <glyph glyph-name="P" unicode="P" horiz-adv-x="1263" 
d="M113 0v1495h575q226 0 371 -130t145 -331q0 -204 -145.5 -336.5t-370.5 -132.5h-285v-565h-290zM403 823h244q106 0 177 60t71 151q0 88 -70 146.5t-176 58.5h-246v-416z" />
    <glyph glyph-name="Q" unicode="Q" horiz-adv-x="1734" 
d="M72 748q0 160 62 304t168 248t253 165t311 61t311.5 -61t254 -165t169 -248t62.5 -304q0 -246 -139 -443l174 -158l-230 -215l-163 162q-195 -125 -439 -125q-164 0 -311 61t-253 164.5t-168 248t-62 305.5zM883 510l204 197l207 -191q56 109 56 232q0 137 -64.5 251.5
t-175.5 180t-244 65.5t-243.5 -65.5t-174 -180t-63.5 -251.5q0 -209 139.5 -353.5t341.5 -144.5q119 0 226 55z" />
    <glyph glyph-name="R" unicode="R" horiz-adv-x="1273" 
d="M113 0v1495h557q226 0 371 -125t145 -321q0 -163 -104 -281.5t-275 -155.5l459 -612h-363l-422 598h-78v-598h-290zM403 834h228q106 0 176 59t70 149q0 89 -69.5 147t-176.5 58h-228v-413z" />
    <glyph glyph-name="S" unicode="S" horiz-adv-x="1163" 
d="M43 137l154 242q80 -62 174.5 -97.5t181.5 -35.5q101 0 163 45t62 119q0 61 -52 108t-177 98l-62 27q-201 82 -292 187.5t-91 256.5q0 198 135.5 318.5t358.5 120.5q121 0 246.5 -35t212.5 -92l-146 -242q-169 96 -299 96q-90 0 -147 -42t-57 -109q0 -58 54.5 -106
t186.5 -103l72 -31q191 -79 277.5 -182.5t86.5 -251.5q0 -206 -145 -332.5t-379 -126.5q-139 0 -279 45.5t-239 122.5z" />
    <glyph glyph-name="T" unicode="T" horiz-adv-x="1372" 
d="M539 0v1227h-471v268h1235v-268h-472v-1227h-292z" />
    <glyph glyph-name="U" unicode="U" horiz-adv-x="1488" 
d="M113 1495h290v-879q0 -161 97 -263.5t248 -102.5t244 101.5t93 264.5v879h291v-901q0 -178 -80.5 -321t-224 -223.5t-323.5 -80.5q-275 0 -455 177t-180 448v901z" />
    <glyph glyph-name="V" unicode="V" horiz-adv-x="1556" 
d="M627 0l-607 1495h316l442 -1118l447 1118h313l-629 -1495h-282z" />
    <glyph glyph-name="W" unicode="W" horiz-adv-x="2224" 
d="M455 0l-435 1495h304l313 -1112l338 1112h272l338 -1118l316 1118h305l-441 -1495h-329l-318 1049h-16l-318 -1049h-329z" />
    <glyph glyph-name="X" unicode="X" horiz-adv-x="1585" 
d="M20 0l576 772l-522 723h358l363 -522l362 522h354l-524 -725l578 -770h-365l-412 569l-411 -569h-357z" />
    <glyph glyph-name="Y" unicode="Y" horiz-adv-x="1409" 
d="M565 0v575l-545 920h338l357 -645l350 645h326l-535 -917v-578h-291z" />
    <glyph glyph-name="Z" unicode="Z" horiz-adv-x="1384" 
d="M78 0v250l813 985h-780v260h1157v-250l-803 -977h842v-268h-1229z" />
    <glyph glyph-name="bracketleft" unicode="[" horiz-adv-x="759" 
d="M668 1282h-273v-1407h273v-213h-523v1833h523v-213z" />
    <glyph glyph-name="backslash" unicode="\" horiz-adv-x="956" 
d="M336 1608l584 -1946h-230l-581 1946h227z" />
    <glyph glyph-name="bracketright" unicode="]" horiz-adv-x="759" 
d="M90 -125h275v1407h-275v213h524v-1833h-524v213z" />
    <glyph glyph-name="asciicircum" unicode="^" horiz-adv-x="962" 
d="M29 834l358 661h180l365 -661h-256l-199 391l-196 -391h-252z" />
    <glyph glyph-name="underscore" unicode="_" horiz-adv-x="1024" 
d="M-4 -336v225h1032v-225h-1032z" />
    <glyph glyph-name="grave" unicode="`" horiz-adv-x="823" 
d="M453 1157l-297 338h327l183 -338h-213z" />
    <glyph glyph-name="a" unicode="a" horiz-adv-x="1290" 
d="M1196 1044v-1044h-256v92q-145 -123 -340 -123q-148 0 -273 73.5t-197.5 201t-72.5 278.5t72.5 278.5t197.5 201t273 73.5q195 0 340 -123v92h256zM342 522q0 -129 85 -216t208 -87q122 0 206.5 87.5t84.5 215.5t-84.5 215.5t-206.5 87.5q-123 0 -208 -87t-85 -216z" />
    <glyph glyph-name="b" unicode="b" horiz-adv-x="1290" 
d="M692 -31q-197 0 -346 127v-96h-252v1495h271v-532q140 112 327 112q148 0 273 -73.5t197.5 -201t72.5 -278.5t-72.5 -278.5t-197.5 -201t-273 -73.5zM657 219q122 0 207.5 88t85.5 215q0 128 -85.5 215.5t-207.5 87.5t-207 -87.5t-85 -215.5q0 -127 85 -215t207 -88z" />
    <glyph glyph-name="c" unicode="c" horiz-adv-x="1185" 
d="M1157 295q-64 -149 -205.5 -237.5t-314.5 -88.5q-159 0 -292.5 73.5t-210.5 201t-77 278.5t77 278.5t210 201t291 73.5q160 0 292.5 -73.5t202.5 -202.5l-241 -133q-34 74 -102 116.5t-152 42.5q-123 0 -208 -88t-85 -215t85 -215t208 -88q94 0 168.5 53.5t103.5 141.5z
" />
    <glyph glyph-name="d" unicode="d" horiz-adv-x="1290" 
d="M57 522q0 151 72.5 278.5t197.5 201t273 73.5q185 0 326 -110v530h270v-1495h-252v96q-146 -127 -344 -127q-148 0 -273 73.5t-197.5 201t-72.5 278.5zM342 522q0 -129 85 -216t208 -87q122 0 206.5 87.5t84.5 215.5t-84.5 215.5t-206.5 87.5q-123 0 -208 -87t-85 -216z
" />
    <glyph glyph-name="e" unicode="e" horiz-adv-x="1202" 
d="M1114 182q-80 -103 -200.5 -158t-266.5 -55q-255 0 -422.5 156.5t-167.5 392.5q0 154 74 282t203 201.5t284 73.5q229 0 380 -156t151 -389q0 -50 -6 -108h-789q21 -97 96.5 -153t190.5 -56q79 0 140 30.5t118 98.5zM362 637h498q-12 90 -78.5 144.5t-165.5 54.5
t-163.5 -54t-90.5 -145z" />
    <glyph glyph-name="f" unicode="f" horiz-adv-x="780" 
d="M223 0v809h-178v235h178v95q0 192 94 289.5t279 97.5q129 0 233 -56l-104 -223q-49 27 -98 27q-63 0 -98 -38t-35 -106v-86h243v-235h-243v-809h-271z" />
    <glyph glyph-name="g" unicode="g" horiz-adv-x="1292" 
d="M1196 1044v-987q0 -255 -161 -402t-439 -147q-144 0 -273.5 41t-226.5 117l127 236q168 -144 375 -144q164 0 253 84t89 238v14q-149 -123 -340 -123q-148 0 -273 73.5t-197.5 201t-72.5 278.5q0 150 72.5 277t197.5 200.5t273 73.5q194 0 340 -121v90h256zM342 522
q0 -127 85 -214t208 -87q122 0 206.5 87t84.5 214q0 128 -84.5 215.5t-206.5 87.5q-123 0 -208 -87t-85 -216z" />
    <glyph glyph-name="h" unicode="h" horiz-adv-x="1136" 
d="M94 0v1495h271v-506q99 90 264 90q183 0 299 -117t116 -303v-659h-270v614q0 93 -57 154t-144 61q-88 0 -148 -60t-60 -146v-623h-271z" />
    <glyph glyph-name="i" unicode="i" horiz-adv-x="458" 
d="M55 1354q0 70 50 117t122 47q74 0 125 -47t51 -117q0 -69 -51 -116.5t-125 -47.5q-72 0 -122 47t-50 117zM94 0v1044h271v-1044h-271z" />
    <glyph glyph-name="j" unicode="j" horiz-adv-x="479" 
d="M76 1354q0 70 49 117t123 47t125 -47t51 -117q0 -69 -51 -116.5t-125 -47.5t-123 47t-49 117zM115 -72v1116h270v-1140q-2 -180 -95 -283.5t-255 -103.5q-111 0 -215 49l80 227q41 -24 94 -24q62 0 91 38t30 121z" />
    <glyph glyph-name="k" unicode="k" horiz-adv-x="1073" 
d="M94 0v1495h271v-840l342 389h346l-422 -471l440 -573h-342l-364 487v-487h-271z" />
    <glyph glyph-name="l" unicode="l" horiz-adv-x="458" 
d="M94 0v1495h271v-1495h-271z" />
    <glyph glyph-name="m" unicode="m" horiz-adv-x="1812" 
d="M1044 621v-621h-270v614q0 93 -57 154t-144 61q-88 0 -148 -60t-60 -146v-623h-271v1044h252v-73q102 108 283 108q206 0 323 -145q56 68 147.5 106.5t198.5 38.5q188 0 305 -115.5t117 -301.5v-662h-270v608q0 98 -56 159.5t-145 61.5q-87 0 -146 -59.5t-59 -148.5z" />
    <glyph glyph-name="n" unicode="n" horiz-adv-x="1136" 
d="M94 0v1044h252v-73q97 108 283 108q183 0 298 -117t115 -303v-659h-270v614q0 93 -56 154t-143 61q-88 0 -148 -60t-60 -146v-623h-271z" />
    <glyph glyph-name="o" unicode="o" horiz-adv-x="1271" 
d="M57 522q0 151 77 278.5t210 201t291 73.5q159 0 292.5 -73.5t210 -200.5t76.5 -279q0 -113 -45.5 -215.5t-122.5 -176.5t-184.5 -117.5t-226.5 -43.5q-158 0 -291 73.5t-210 201t-77 278.5zM342 522q0 -127 85 -215t208 -88q124 0 208.5 87.5t84.5 215.5t-84.5 215.5
t-208.5 87.5q-123 0 -208 -88t-85 -215z" />
    <glyph glyph-name="p" unicode="p" horiz-adv-x="1290" 
d="M1235 522q0 -113 -43 -215.5t-115.5 -176.5t-173.5 -117.5t-213 -43.5q-182 0 -325 111v-531h-271v1495h252v-96q149 127 344 127q112 0 213 -43.5t173.5 -117.5t115.5 -176.5t43 -215.5zM950 522q0 128 -85.5 215.5t-209.5 87.5q-121 0 -205.5 -87.5t-84.5 -215.5
t84.5 -215.5t205.5 -87.5q124 0 209.5 87.5t85.5 215.5z" />
    <glyph glyph-name="q" unicode="q" horiz-adv-x="1290" 
d="M600 1075q198 0 344 -127v96h252v-1495h-270v533q-141 -113 -326 -113q-148 0 -273 73.5t-197.5 201t-72.5 278.5t72.5 278.5t197.5 201t273 73.5zM635 825q-123 0 -208 -87t-85 -216q0 -127 85 -215t208 -88q122 0 206.5 88t84.5 215q0 128 -84.5 215.5t-206.5 87.5z
" />
    <glyph glyph-name="r" unicode="r" horiz-adv-x="755" 
d="M94 0v1044h252v-88q44 59 109.5 91t140.5 32q66 0 139 -28l-112 -258q-47 20 -84 20q-174 0 -174 -246v-567h-271z" />
    <glyph glyph-name="s" unicode="s" horiz-adv-x="866" 
d="M31 111l131 188q126 -100 246 -100q57 0 87.5 24t30.5 68q0 37 -30 64t-115 63l-45 18q-142 59 -207.5 132t-65.5 177q0 145 107.5 237.5t280.5 92.5q90 0 180.5 -27t152.5 -71l-116 -203q-101 72 -201 72q-58 0 -90.5 -22t-32.5 -62q0 -34 34.5 -62t129.5 -69l33 -15
q147 -63 208.5 -134.5t61.5 -178.5q0 -150 -104 -242t-277 -92q-113 0 -224 39.5t-175 102.5z" />
    <glyph glyph-name="t" unicode="t" horiz-adv-x="780" 
d="M45 809v235h188v297h271v-297h233v-235h-233v-809h-271v809h-188z" />
    <glyph glyph-name="u" unicode="u" horiz-adv-x="1124" 
d="M762 1044h270l-2 -632q-2 -197 -134 -320t-343 -123q-207 0 -333 121.5t-126 321.5v632h271v-587q0 -107 53 -172.5t141 -65.5q92 0 147.5 65.5t55.5 170.5v589z" />
    <glyph glyph-name="v" unicode="v" horiz-adv-x="1173" 
d="M444 0l-424 1044h297l271 -716l284 716h281l-436 -1044h-273z" />
    <glyph glyph-name="w" unicode="w" horiz-adv-x="1728" 
d="M385 0l-365 1044h293l215 -677l222 677h256l219 -675l211 675h274l-348 -1044h-258l-232 690l-227 -690h-260z" />
    <glyph glyph-name="x" unicode="x" horiz-adv-x="1175" 
d="M0 0l414 541l-389 503h335l236 -327l231 327h324l-387 -512l412 -532h-336l-256 354l-252 -354h-332z" />
    <glyph glyph-name="y" unicode="y" horiz-adv-x="1181" 
d="M227 -451l213 494l-420 1001h295l275 -708l278 708h295l-645 -1495h-291z" />
    <glyph glyph-name="z" unicode="z" horiz-adv-x="1026" 
d="M59 0v225l537 586h-516v233h866v-229l-524 -582h545v-233h-908z" />
    <glyph glyph-name="braceleft" unicode="{" horiz-adv-x="872" 
d="M782 -338h-166q-164 0 -262 95t-98 255v269q0 85 -47 134.5t-127 49.5v225q79 0 126.5 50.5t47.5 133.5v273q0 158 98.5 253t261.5 95h166v-213h-104q-78 0 -125 -36.5t-47 -96.5v-301q0 -113 -58.5 -186t-156.5 -82v-5q98 -9 156.5 -82t58.5 -186v-299q0 -60 47 -96.5
t125 -36.5h104v-213z" />
    <glyph glyph-name="bar" unicode="|" horiz-adv-x="532" 
d="M152 -338v1946h229v-1946h-229z" />
    <glyph glyph-name="braceright" unicode="}" horiz-adv-x="872" 
d="M90 1495h166q163 0 261.5 -95.5t98.5 -254.5v-268q0 -85 47.5 -135t127.5 -50v-225q-80 0 -127.5 -50t-47.5 -134v-273q0 -158 -98.5 -253t-261.5 -95h-166v213h105q77 0 124.5 36.5t47.5 96.5v301q0 113 58.5 186.5t156.5 82.5v4q-98 9 -156.5 82t-58.5 186v299
q0 60 -47.5 96.5t-124.5 36.5h-105v213z" />
    <glyph glyph-name="asciitilde" unicode="~" horiz-adv-x="1161" 
d="M293 563l-209 37q28 135 110 211t201 76q65 0 129.5 -26.5t120.5 -52.5t100 -26q95 0 125 99l207 -39q-28 -138 -109.5 -214.5t-201.5 -76.5q-51 0 -104 16.5t-89.5 35.5t-80 35.5t-76.5 16.5q-43 0 -75.5 -24t-47.5 -68z" />
    <glyph glyph-name="uni00A0" unicode="&#xa0;" horiz-adv-x="501" 
 />
    <glyph glyph-name="exclamdown" unicode="&#xa1;" horiz-adv-x="595" 
d="M479 905q0 -72 -53 -122t-129 -50q-75 0 -126.5 50t-51.5 122t51.5 121t126.5 49q77 0 129.5 -49t52.5 -121zM424 598l25 -1049h-299l22 1049h252z" />
    <glyph glyph-name="cent" unicode="&#xa2;" horiz-adv-x="1130" 
d="M371 0l55 250q-165 53 -267 188.5t-102 306.5q0 213 150.5 364.5t370.5 162.5l47 223h202l-51 -248q98 -30 176 -91t125 -146l-229 -127q-32 70 -97 110.5t-145 40.5q-117 0 -197.5 -83.5t-80.5 -205.5q0 -121 80.5 -203.5t197.5 -82.5q89 0 159.5 50.5t98.5 133.5
l238 -113q-60 -138 -189 -221.5t-290 -87.5l-48 -221h-204z" />
    <glyph glyph-name="sterling" unicode="&#xa3;" horiz-adv-x="1261" 
d="M119 0l-51 143q109 73 151 188t33 312h-172v217h153l-10 98q-25 249 106.5 403.5t370.5 154.5q187 0 316.5 -93.5t169.5 -255.5l-268 -67q-17 80 -72.5 124t-138.5 44q-109 0 -165 -80t-44 -211l12 -117h442v-217h-426q6 -132 -15 -223.5t-77 -173.5h760l-2 -246h-1073z
" />
    <glyph glyph-name="currency" unicode="&#xa4;" horiz-adv-x="1177" 
d="M150 694q0 130 63 234l-141 131l133 143l145 -137q103 61 232 61q133 0 239 -67l152 143l133 -143l-152 -139q60 -107 60 -226q0 -122 -62 -227l154 -143l-133 -144l-158 148q-103 -64 -233 -64q-129 0 -226 60l-151 -144l-133 144l143 135q-65 105 -65 235zM365 694
q0 -100 61 -164.5t156 -64.5q96 0 157.5 64.5t61.5 164.5t-61.5 165t-157.5 65q-95 0 -156 -65t-61 -165z" />
    <glyph glyph-name="yen" unicode="&#xa5;" horiz-adv-x="1353" 
d="M166 686v201h199l-345 608h312l352 -668l348 668h303l-340 -608h201v-201h-313l-62 -108v-13h375v-203h-375v-362h-278v362h-377v203h377v10l-64 111h-313z" />
    <glyph glyph-name="brokenbar" unicode="&#xa6;" horiz-adv-x="532" 
d="M381 797h-229v811h229v-811zM152 471h229v-809h-229v809z" />
    <glyph glyph-name="section" unicode="&#xa7;" horiz-adv-x="1198" 
d="M80 -295l125 248q161 -94 305 -94q97 0 150 34t53 97q0 94 -146 157l-211 95q-126 55 -200 157.5t-74 221.5q0 179 174 315q-53 79 -53 194q0 177 128.5 284.5t340.5 107.5q102 0 222.5 -26t225.5 -71l-127 -247q-160 96 -303 96q-97 0 -150 -35t-53 -98q0 -92 144 -158
l211 -94q127 -55 200.5 -157.5t73.5 -221.5q0 -182 -174 -315q55 -82 55 -193q0 -177 -129.5 -285t-341.5 -108q-103 0 -223 26t-223 70zM743 356q86 50 86 142q0 107 -127 166l-245 112q-88 -55 -88 -141q0 -107 129 -166z" />
    <glyph glyph-name="dieresis" unicode="&#xa8;" 
d="M621 1212q-66 0 -112 44.5t-46 107.5q0 64 46 109t112 45t112.5 -44.5t46.5 -107.5t-46.5 -108.5t-112.5 -45.5zM197 1212q-66 0 -112 45t-46 109q0 63 46 107.5t112 44.5t112.5 -44.5t46.5 -107.5t-46.5 -108.5t-112.5 -45.5z" />
    <glyph glyph-name="copyright" unicode="&#xa9;" horiz-adv-x="1579" 
d="M791 51q-196 0 -358 92.5t-255.5 254.5t-93.5 356q0 146 54 275t147.5 221.5t223.5 146t277 53.5q197 0 359 -92t255 -252.5t93 -355.5q0 -145 -54.5 -274.5t-148 -222.5t-223.5 -147.5t-276 -54.5zM788 174q160 0 291.5 75.5t207 207t75.5 291.5q0 120 -45 227.5
t-122 184.5t-184 122t-227 45q-159 0 -289 -75.5t-204 -207t-74 -292.5q0 -121 44 -228.5t119.5 -184t181.5 -121t226 -44.5zM1235 547q-56 -126 -173 -200.5t-259 -74.5q-132 0 -243.5 63.5t-176 173t-64.5 239.5q0 97 38 185t103 151.5t154 101t187 37.5q131 0 241 -63
t170 -171l-200 -119q-29 63 -87 100.5t-128 37.5q-104 0 -176 -75.5t-72 -184.5t72 -185t176 -76q78 0 141 46t88 122z" />
    <glyph glyph-name="ordfeminine" unicode="&#xaa;" horiz-adv-x="917" 
d="M616 866v97q-95 -109 -239 -109t-238 105t-94 264q0 157 94 261.5t238 104.5q145 0 239 -108v86h222v-701h-222zM426 1047q72 0 123 51.5t51 124.5q0 71 -51 121.5t-123 50.5t-123 -50.5t-51 -121.5q0 -74 50.5 -125t123.5 -51zM172 582v161h670v-161h-670z" />
    <glyph glyph-name="guillemotleft" unicode="&#xab;" horiz-adv-x="1226" 
d="M457 59l-406 439v57l406 438l161 -168l-272 -299l272 -299zM997 59l-405 439v57l405 438l160 -168l-270 -299l270 -299z" />
    <glyph glyph-name="logicalnot" unicode="&#xac;" horiz-adv-x="1292" 
d="M952 207v399h-876v223h1120v-622h-244z" />
    <glyph glyph-name="registered" unicode="&#xae;" horiz-adv-x="1579" 
d="M791 51q-196 0 -358 92.5t-255.5 254.5t-93.5 356q0 146 54 275t147.5 221.5t223.5 146t277 53.5q197 0 359 -92t255 -252.5t93 -355.5q0 -145 -54.5 -274.5t-148 -222.5t-223.5 -147.5t-276 -54.5zM788 174q160 0 291.5 75.5t207 207t75.5 291.5q0 120 -45 227.5
t-122 184.5t-184 122t-227 45q-159 0 -289 -75.5t-204 -207t-74 -292.5q0 -121 44 -228.5t119.5 -184t181.5 -121t226 -44.5zM915 348l-210 309h-27v-309h-193v830h351q126 0 208 -74.5t82 -181.5q0 -91 -58.5 -161t-154.5 -95l240 -318h-238zM678 821h100q67 0 101 26.5
t34 70.5t-34 70t-101 26h-100v-193z" />
    <glyph glyph-name="macron" unicode="&#xaf;" 
d="M86 1214v224h647v-224h-647z" />
    <glyph glyph-name="degree" unicode="&#xb0;" 
d="M410 842q-149 0 -248 96.5t-99 241.5t99 241.5t248 96.5t247.5 -96.5t98.5 -241.5t-98.5 -241.5t-247.5 -96.5zM410 1020q66 0 111.5 47t45.5 113q0 65 -45.5 111t-111.5 46t-112 -46t-46 -111q0 -66 46 -113t112 -47z" />
    <glyph glyph-name="plusminus" unicode="&#xb1;" horiz-adv-x="1163" 
d="M459 346v354h-371v215h371v316h246v-316h368v-215h-368v-354h-246zM88 0v209h985v-209h-985z" />
    <glyph glyph-name="twosuperior" unicode="&#xb2;" horiz-adv-x="808" 
d="M59 676v186l232 199q130 114 174.5 168t44.5 98q0 46 -32 75.5t-81 29.5q-55 0 -94 -35t-51 -94l-201 34q22 129 121 205t244 76q149 0 239 -78.5t90 -206.5q0 -82 -49 -152.5t-186 -185.5l-168 -139h412v-180h-695z" />
    <glyph glyph-name="threesuperior" unicode="&#xb3;" horiz-adv-x="802" 
d="M29 872l211 66q8 -40 48.5 -67t94.5 -27q59 0 98 32.5t39 81.5q0 50 -43 77.5t-121 27.5h-92v166h90q64 0 105 30.5t41 77.5q0 42 -32.5 69.5t-84.5 27.5t-90.5 -29.5t-50.5 -79.5l-203 66q32 101 131.5 164t226.5 63q141 0 235.5 -75t94.5 -185q0 -69 -39 -122.5
t-108 -76.5v-10q78 -17 124 -75t46 -138q0 -123 -101.5 -201t-259.5 -78q-135 0 -233 58.5t-127 156.5z" />
    <glyph glyph-name="acute" unicode="&#xb4;" horiz-adv-x="823" 
d="M186 1157l183 338h333l-296 -338h-220z" />
    <glyph glyph-name="uni00B5" unicode="&#xb5;" horiz-adv-x="1126" 
d="M365 -418h-271v1462h271v-587q0 -108 53.5 -173t142.5 -65q90 0 145.5 65.5t55.5 170.5v589h270l-2 -632q0 -196 -133 -319.5t-344 -123.5q-109 0 -191 33z" />
    <glyph glyph-name="paragraph" unicode="&#xb6;" horiz-adv-x="1284" 
d="M573 -451v1033h-53q-195 0 -327 133t-132 329q0 198 136 324.5t350 126.5h624v-1946h-221v1694h-153v-1694h-224z" />
    <glyph glyph-name="periodcentered" unicode="&#xb7;" horiz-adv-x="563" 
d="M102 543q0 72 52 121t129 49q75 0 127.5 -49t52.5 -121t-52.5 -121t-127.5 -49q-77 0 -129 49t-52 121z" />
    <glyph glyph-name="cedilla" unicode="&#xb8;" 
d="M125 -397l111 145q38 -41 90 -41q31 0 52 19.5t21 48.5q0 34 -28 59.5t-72 28.5l-55 4l65 143l244 -10l-41 -74q121 -60 121 -182q0 -97 -76 -157t-199 -60q-141 0 -233 76z" />
    <glyph glyph-name="onesuperior" unicode="&#xb9;" horiz-adv-x="645" 
d="M326 676v670l-187 -168l-129 157l328 262h209v-921h-221z" />
    <glyph glyph-name="ordmasculine" unicode="&#xba;" horiz-adv-x="851" 
d="M426 854q-164 0 -272.5 105t-108.5 262q0 158 108.5 263t272.5 105t272.5 -105t108.5 -263q0 -157 -108.5 -262t-272.5 -105zM426 1044q72 0 123 52.5t51 124.5t-51 123t-123 51t-123 -51t-51 -123t51 -124.5t123 -52.5zM121 582v161h610v-161h-610z" />
    <glyph glyph-name="guillemotright" unicode="&#xbb;" horiz-adv-x="1226" 
d="M770 993l406 -438v-57l-406 -439l-162 168l273 299l-273 299zM229 993l406 -438v-57l-406 -439l-159 168l270 299l-270 299z" />
    <glyph glyph-name="onequarter" unicode="&#xbc;" horiz-adv-x="1886" 
d="M326 676v670l-189 -168l-127 157l328 262h209v-921h-221zM342 51l913 1479l170 -86l-913 -1479zM1067 154v219l383 549h264v-598h123v-170h-121v-154h-219v154h-430zM1235 324h268v385z" />
    <glyph glyph-name="onehalf" unicode="&#xbd;" horiz-adv-x="1972" 
d="M326 676v670l-189 -168l-127 157l328 262h209v-921h-221zM342 51l913 1479l170 -86l-913 -1479zM1223 0v186l229 199q131 115 176 168.5t45 97.5q0 46 -31.5 75.5t-82.5 29.5q-54 0 -94 -35.5t-50 -93.5l-201 35q22 129 120.5 204.5t244.5 75.5q148 0 239 -78.5
t91 -206.5q0 -81 -49.5 -151.5t-186.5 -186.5l-170 -139h412v-180h-692z" />
    <glyph glyph-name="threequarters" unicode="&#xbe;" horiz-adv-x="2041" 
d="M29 872l211 66q8 -40 48.5 -67t94.5 -27q59 0 98 32.5t39 81.5q0 50 -43 77.5t-121 27.5h-92v166h90q64 0 105 30.5t41 77.5q0 42 -32.5 69.5t-84.5 27.5t-90.5 -29.5t-50.5 -79.5l-203 66q32 101 131.5 164t226.5 63q141 0 235.5 -75t94.5 -185q0 -69 -39 -122.5
t-108 -76.5v-10q78 -17 124 -75t46 -138q0 -123 -101.5 -201t-259.5 -78q-135 0 -233 58.5t-127 156.5zM498 51l913 1479l172 -86l-915 -1479zM1223 154v219l383 549h264v-598h123v-170h-121v-154h-219v154h-430zM1391 324h268v385z" />
    <glyph glyph-name="questiondown" unicode="&#xbf;" horiz-adv-x="1026" 
d="M768 905q0 -72 -52.5 -122t-127.5 -50t-127.5 50t-52.5 122t52.5 121t127.5 49t127.5 -49t52.5 -121zM725 621v-379q-43 6 -82 6q-125 0 -205 -64t-80 -166q0 -95 64.5 -159t161.5 -64q157 0 250 176l229 -166q-72 -130 -208 -208t-290 -78q-207 0 -350 136.5t-143 334.5
q0 170 108.5 299.5t278.5 161.5v170h266z" />
    <glyph glyph-name="Agrave" unicode="&#xc0;" horiz-adv-x="1609" 
d="M745 1587l-296 338h335l181 -338h-220zM20 0l637 1495h308l624 -1495h-315l-125 307h-692l-129 -307h-308zM563 565h479l-237 580z" />
    <glyph glyph-name="Aacute" unicode="&#xc1;" horiz-adv-x="1609" 
d="M657 1587l183 338h340l-297 -338h-226zM20 0l637 1495h308l624 -1495h-315l-125 307h-692l-129 -307h-308zM563 565h479l-237 580z" />
    <glyph glyph-name="Acircumflex" unicode="&#xc2;" horiz-adv-x="1609" 
d="M377 1585l377 363h110l379 -363h-303l-127 119l-131 -119h-305zM20 0l637 1495h308l624 -1495h-315l-125 307h-692l-129 -307h-308zM563 565h479l-237 580z" />
    <glyph glyph-name="Atilde" unicode="&#xc3;" horiz-adv-x="1609" 
d="M545 1638l-183 43q10 121 86.5 194t190.5 73q49 0 101.5 -15.5t88.5 -34t79 -34t77 -15.5q77 0 92 74l183 -43q-13 -121 -90 -193.5t-191 -72.5q-61 0 -125.5 24t-121.5 48t-99 24q-76 0 -88 -72zM20 0l637 1495h308l624 -1495h-315l-125 307h-692l-129 -307h-308z
M563 565h479l-237 580z" />
    <glyph glyph-name="Adieresis" unicode="&#xc4;" horiz-adv-x="1609" 
d="M1042 1640q-66 0 -112.5 45t-46.5 109q0 63 47 108.5t114 45.5t113.5 -44.5t46.5 -109.5q0 -64 -47 -109t-115 -45zM575 1640q-66 0 -111.5 44.5t-45.5 109.5t46.5 109.5t113.5 44.5t114 -44.5t47 -109.5q0 -64 -48 -109t-116 -45zM20 0l637 1495h308l624 -1495h-315
l-125 307h-692l-129 -307h-308zM563 565h479l-237 580z" />
    <glyph glyph-name="Aring" unicode="&#xc5;" horiz-adv-x="1609" 
d="M811 1550q-110 0 -186 72t-76 176q0 103 75 173.5t187 70.5q110 0 186 -70.5t76 -173.5q0 -104 -76 -176t-186 -72zM809 1683q47 0 81 34t34 81q0 46 -34 78.5t-81 32.5q-46 0 -78.5 -33t-32.5 -80t32.5 -80t78.5 -33zM20 0l637 1495h308l624 -1495h-315l-125 307h-692
l-129 -307h-308zM563 565h479l-237 580z" />
    <glyph glyph-name="AE" unicode="&#xc6;" horiz-adv-x="2074" 
d="M1014 0v324h-508l-187 -324h-329l882 1495h1102v-268h-667v-342h630v-256h-630v-361h698v-268h-991zM655 580h359v620z" />
    <glyph glyph-name="Ccedilla" unicode="&#xc7;" horiz-adv-x="1517" 
d="M1245 442l240 -190q-208 -243 -529 -279l-26 -47q123 -62 123 -182q0 -97 -78 -157t-203 -60q-69 0 -133 20.5t-107 55.5l111 145q33 -41 86 -41q31 0 51.5 19.5t20.5 48.5q0 34 -27 59.5t-69 28.5l-54 4l54 119q-277 53 -455 266t-178 500q0 161 61.5 304.5t167 246.5
t253.5 163t314 60q184 0 340 -73t265 -208l-240 -176q-66 83 -163 129.5t-206 46.5q-132 0 -242 -65.5t-173.5 -179.5t-63.5 -250q0 -209 140.5 -354.5t342.5 -145.5q226 0 377 192z" />
    <glyph glyph-name="Egrave" unicode="&#xc8;" horiz-adv-x="1173" 
d="M537 1587l-297 338h335l183 -338h-221zM115 0v1495h958v-268h-667v-342h632l-2 -256h-630v-361h698v-268h-989z" />
    <glyph glyph-name="Eacute" unicode="&#xc9;" horiz-adv-x="1173" 
d="M449 1587l182 338h342l-299 -338h-225zM115 0v1495h958v-268h-667v-342h632l-2 -256h-630v-361h698v-268h-989z" />
    <glyph glyph-name="Ecircumflex" unicode="&#xca;" horiz-adv-x="1173" 
d="M168 1585l377 363h110l379 -363h-303l-127 119l-131 -119h-305zM115 0v1495h958v-268h-667v-342h632l-2 -256h-630v-361h698v-268h-989z" />
    <glyph glyph-name="Edieresis" unicode="&#xcb;" horiz-adv-x="1173" 
d="M834 1640q-66 0 -113 45t-47 109q0 63 47.5 108.5t114.5 45.5t114 -44.5t47 -109.5q0 -64 -47.5 -109t-115.5 -45zM369 1640q-66 0 -113 45t-47 109t47 109t115 45q67 0 113 -44.5t46 -109.5t-47 -109.5t-114 -44.5zM115 0v1495h958v-268h-667v-342h632l-2 -256h-630
v-361h698v-268h-989z" />
    <glyph glyph-name="Igrave" unicode="&#xcc;" horiz-adv-x="516" 
d="M193 1587l-297 338h335l183 -338h-221zM113 0v1495h290v-1495h-290z" />
    <glyph glyph-name="Iacute" unicode="&#xcd;" horiz-adv-x="516" 
d="M106 1587l181 338h342l-297 -338h-226zM113 0v1495h290v-1495h-290z" />
    <glyph glyph-name="Icircumflex" unicode="&#xce;" horiz-adv-x="516" 
d="M-176 1585l377 363h110l381 -363h-305l-127 119l-131 -119h-305zM113 0v1495h290v-1495h-290z" />
    <glyph glyph-name="Idieresis" unicode="&#xcf;" horiz-adv-x="516" 
d="M489 1640q-66 0 -111.5 44.5t-45.5 109.5q0 63 46.5 108.5t113.5 45.5t114 -44.5t47 -109.5q0 -64 -48 -109t-116 -45zM25 1640q-66 0 -113 45t-47 109t47 109t115 45q67 0 114 -44.5t47 -109.5q0 -64 -47.5 -109t-115.5 -45zM113 0v1495h290v-1495h-290z" />
    <glyph glyph-name="Eth" unicode="&#xd0;" horiz-adv-x="1589" 
d="M174 0v635h-154l3 268h151v592h551q231 0 411.5 -94.5t281 -264.5t100.5 -386q0 -161 -59 -300.5t-163 -238.5t-251.5 -155t-319.5 -56h-551zM465 258h233q220 0 363 140t143 354q0 212 -142.5 348.5t-363.5 136.5h-233v-334h430v-268h-430v-377z" />
    <glyph glyph-name="Ntilde" unicode="&#xd1;" horiz-adv-x="1570" 
d="M524 1638l-182 43q10 121 86 194t190 73q62 0 127 -25t122 -49.5t98 -24.5q78 0 90 74l184 -43q-13 -121 -90 -193.5t-191 -72.5q-61 0 -125.5 24t-122 48t-100.5 24q-77 0 -86 -72zM1458 1495v-1495h-295l-751 1032h-9v-1032h-290v1495h293l751 -1026h10v1026h291z" />
    <glyph glyph-name="Ograve" unicode="&#xd2;" horiz-adv-x="1732" 
d="M801 1608l-297 338h336l180 -338h-219zM72 748q0 160 62 304t168 248t253 165t311 61t311.5 -61t254 -165t169 -248t62.5 -304q0 -161 -62.5 -305.5t-169 -248t-254 -164.5t-311.5 -61t-311 61t-253 164.5t-168 248t-62 305.5zM385 748q0 -209 139.5 -353.5t341.5 -144.5
q133 0 244.5 66t175.5 180.5t64 251.5t-64.5 251.5t-175.5 180t-244 65.5t-243.5 -65.5t-174 -180t-63.5 -251.5z" />
    <glyph glyph-name="Oacute" unicode="&#xd3;" horiz-adv-x="1732" 
d="M713 1608l182 338h340l-297 -338h-225zM72 748q0 160 62 304t168 248t253 165t311 61t311.5 -61t254 -165t169 -248t62.5 -304q0 -161 -62.5 -305.5t-169 -248t-254 -164.5t-311.5 -61t-311 61t-253 164.5t-168 248t-62 305.5zM385 748q0 -209 139.5 -353.5t341.5 -144.5
q133 0 244.5 66t175.5 180.5t64 251.5t-64.5 251.5t-175.5 180t-244 65.5t-243.5 -65.5t-174 -180t-63.5 -251.5z" />
    <glyph glyph-name="Ocircumflex" unicode="&#xd4;" horiz-adv-x="1732" 
d="M432 1606l377 362h111l378 -362h-303l-127 118l-131 -118h-305zM72 748q0 160 62 304t168 248t253 165t311 61t311.5 -61t254 -165t169 -248t62.5 -304q0 -161 -62.5 -305.5t-169 -248t-254 -164.5t-311.5 -61t-311 61t-253 164.5t-168 248t-62 305.5zM385 748
q0 -209 139.5 -353.5t341.5 -144.5q133 0 244.5 66t175.5 180.5t64 251.5t-64.5 251.5t-175.5 180t-244 65.5t-243.5 -65.5t-174 -180t-63.5 -251.5z" />
    <glyph glyph-name="Otilde" unicode="&#xd5;" horiz-adv-x="1732" 
d="M600 1659l-182 43q10 121 86 193.5t190 72.5q62 0 127 -24.5t121.5 -49t97.5 -24.5q78 0 93 74l182 -43q-13 -121 -90 -194t-191 -73q-48 0 -99.5 15t-88 33.5t-80.5 33.5t-78 15q-76 0 -88 -72zM72 748q0 160 62 304t168 248t253 165t311 61t311.5 -61t254 -165
t169 -248t62.5 -304q0 -161 -62.5 -305.5t-169 -248t-254 -164.5t-311.5 -61t-311 61t-253 164.5t-168 248t-62 305.5zM385 748q0 -209 139.5 -353.5t341.5 -144.5q133 0 244.5 66t175.5 180.5t64 251.5t-64.5 251.5t-175.5 180t-244 65.5t-243.5 -65.5t-174 -180
t-63.5 -251.5z" />
    <glyph glyph-name="Odieresis" unicode="&#xd6;" horiz-adv-x="1732" 
d="M1098 1661q-66 0 -113 45t-47 109q0 63 47.5 108t114.5 45t113.5 -44t46.5 -109q0 -64 -47 -109t-115 -45zM631 1661q-66 0 -112 45t-46 109q0 65 46.5 109t113.5 44q68 0 115 -44.5t47 -108.5t-48 -109t-116 -45zM72 748q0 160 62 304t168 248t253 165t311 61t311.5 -61
t254 -165t169 -248t62.5 -304q0 -161 -62.5 -305.5t-169 -248t-254 -164.5t-311.5 -61t-311 61t-253 164.5t-168 248t-62 305.5zM385 748q0 -209 139.5 -353.5t341.5 -144.5q133 0 244.5 66t175.5 180.5t64 251.5t-64.5 251.5t-175.5 180t-244 65.5t-243.5 -65.5t-174 -180
t-63.5 -251.5z" />
    <glyph glyph-name="multiply" unicode="&#xd7;" horiz-adv-x="1251" 
d="M258 178l-158 156l369 368l-369 369l158 158l367 -369l370 369l156 -158l-369 -369l369 -368l-156 -156l-370 369z" />
    <glyph glyph-name="Oslash" unicode="&#xd8;" horiz-adv-x="1732" 
d="M72 748q0 160 62 304t168 248t253 165t311 61q232 0 420 -115l156 182l157 -141l-147 -174q100 -105 155.5 -241t55.5 -289q0 -161 -62.5 -305.5t-169 -248t-254 -164.5t-311.5 -61q-240 0 -434 123l-162 -188l-157 141l157 182q-95 104 -146.5 238t-51.5 283zM385 748
q0 -160 84 -287l625 727q-105 57 -228 57q-133 0 -243.5 -65.5t-174 -180t-63.5 -251.5zM1253 1049l-630 -734q114 -65 243 -65q133 0 244.5 66t175.5 180.5t64 251.5q0 163 -97 301z" />
    <glyph glyph-name="Ugrave" unicode="&#xd9;" horiz-adv-x="1488" 
d="M684 1587l-297 338h334l182 -338h-219zM113 1495h290v-879q0 -161 97 -263.5t248 -102.5t244 101.5t93 264.5v879h291v-901q0 -178 -80.5 -321t-224 -223.5t-323.5 -80.5q-275 0 -455 177t-180 448v901z" />
    <glyph glyph-name="Uacute" unicode="&#xda;" horiz-adv-x="1488" 
d="M596 1587l180 338h342l-297 -338h-225zM113 1495h290v-879q0 -161 97 -263.5t248 -102.5t244 101.5t93 264.5v879h291v-901q0 -178 -80.5 -321t-224 -223.5t-323.5 -80.5q-275 0 -455 177t-180 448v901z" />
    <glyph glyph-name="Ucircumflex" unicode="&#xdb;" horiz-adv-x="1488" 
d="M315 1585l375 363h113l379 -363h-305l-125 119l-134 -119h-303zM113 1495h290v-879q0 -161 97 -263.5t248 -102.5t244 101.5t93 264.5v879h291v-901q0 -178 -80.5 -321t-224 -223.5t-323.5 -80.5q-275 0 -455 177t-180 448v901z" />
    <glyph glyph-name="Udieresis" unicode="&#xdc;" horiz-adv-x="1488" 
d="M981 1640q-67 0 -113.5 44.5t-46.5 109.5q0 63 47.5 108.5t114.5 45.5t113.5 -44.5t46.5 -109.5q0 -64 -47 -109t-115 -45zM514 1640q-66 0 -113 45t-47 109t47 109t115 45t115 -45t47 -109t-48 -109t-116 -45zM113 1495h290v-879q0 -161 97 -263.5t248 -102.5t244 101.5
t93 264.5v879h291v-901q0 -178 -80.5 -321t-224 -223.5t-323.5 -80.5q-275 0 -455 177t-180 448v901z" />
    <glyph glyph-name="Yacute" unicode="&#xdd;" horiz-adv-x="1409" 
d="M559 1587l180 338h342l-297 -338h-225zM565 0v575l-545 920h338l357 -645l350 645h326l-535 -917v-578h-291z" />
    <glyph glyph-name="Thorn" unicode="&#xde;" horiz-adv-x="1263" 
d="M113 0v1495h290v-260h285q226 0 371 -130t145 -333t-145.5 -335t-370.5 -132h-285v-305h-290zM403 561h244q106 0 177 60t71 151q0 89 -70 147t-176 58h-246v-416z" />
    <glyph glyph-name="germandbls" unicode="&#xdf;" horiz-adv-x="1224" 
d="M94 0v1044q0 209 146.5 344.5t369.5 135.5q205 0 343.5 -113.5t138.5 -280.5q0 -108 -60 -202t-153 -129v-13q126 -29 205 -134.5t79 -243.5q0 -184 -137 -308.5t-338 -124.5q-66 0 -140 14.5t-114 35.5l90 235q78 -35 142 -35q92 0 151.5 58t59.5 147q0 97 -72.5 156
t-192.5 59h-75v256h53q92 0 156.5 56.5t64.5 136.5q0 78 -60.5 131t-148.5 53q-104 0 -170.5 -79.5t-66.5 -203.5v-995h-271z" />
    <glyph glyph-name="agrave" unicode="&#xe0;" horiz-adv-x="1290" 
d="M623 1157l-297 338h329l181 -338h-213zM1196 1044v-1044h-256v92q-145 -123 -340 -123q-148 0 -273 73.5t-197.5 201t-72.5 278.5t72.5 278.5t197.5 201t273 73.5q195 0 340 -123v92h256zM342 522q0 -129 85 -216t208 -87q122 0 206.5 87.5t84.5 215.5t-84.5 215.5
t-206.5 87.5q-123 0 -208 -87t-85 -216z" />
    <glyph glyph-name="aacute" unicode="&#xe1;" horiz-adv-x="1290" 
d="M557 1157l182 338h334l-299 -338h-217zM1196 1044v-1044h-256v92q-145 -123 -340 -123q-148 0 -273 73.5t-197.5 201t-72.5 278.5t72.5 278.5t197.5 201t273 73.5q195 0 340 -123v92h256zM342 522q0 -129 85 -216t208 -87q122 0 206.5 87.5t84.5 215.5t-84.5 215.5
t-206.5 87.5q-123 0 -208 -87t-85 -216z" />
    <glyph glyph-name="acircumflex" unicode="&#xe2;" horiz-adv-x="1290" 
d="M270 1169l365 367h104l369 -367h-291l-125 123l-131 -123h-291zM1196 1044v-1044h-256v92q-145 -123 -340 -123q-148 0 -273 73.5t-197.5 201t-72.5 278.5t72.5 278.5t197.5 201t273 73.5q195 0 340 -123v92h256zM342 522q0 -129 85 -216t208 -87q122 0 206.5 87.5
t84.5 215.5t-84.5 215.5t-206.5 87.5q-123 0 -208 -87t-85 -216z" />
    <glyph glyph-name="atilde" unicode="&#xe3;" horiz-adv-x="1290" 
d="M453 1221l-174 32q12 120 76 192.5t163 72.5q56 0 117.5 -25t116 -49.5t92.5 -24.5q72 0 84 72l174 -33q-12 -119 -77.5 -191.5t-164.5 -72.5q-55 0 -116 24t-115.5 48t-93.5 24q-73 0 -82 -69zM1196 1044v-1044h-256v92q-145 -123 -340 -123q-148 0 -273 73.5
t-197.5 201t-72.5 278.5t72.5 278.5t197.5 201t273 73.5q195 0 340 -123v92h256zM342 522q0 -129 85 -216t208 -87q122 0 206.5 87.5t84.5 215.5t-84.5 215.5t-206.5 87.5q-123 0 -208 -87t-85 -216z" />
    <glyph glyph-name="adieresis" unicode="&#xe4;" horiz-adv-x="1290" 
d="M901 1212q-66 0 -112 44.5t-46 107.5q0 64 46 109t112 45t113 -44.5t47 -107.5t-47 -108.5t-113 -45.5zM477 1212q-66 0 -112 45t-46 109q0 63 46 107.5t112 44.5t113 -44.5t47 -107.5t-47 -108.5t-113 -45.5zM1196 1044v-1044h-256v92q-145 -123 -340 -123
q-148 0 -273 73.5t-197.5 201t-72.5 278.5t72.5 278.5t197.5 201t273 73.5q195 0 340 -123v92h256zM342 522q0 -129 85 -216t208 -87q122 0 206.5 87.5t84.5 215.5t-84.5 215.5t-206.5 87.5q-123 0 -208 -87t-85 -216z" />
    <glyph glyph-name="aring" unicode="&#xe5;" horiz-adv-x="1290" 
d="M690 1169q-109 0 -184.5 72t-75.5 176q0 103 75.5 174.5t184.5 71.5q110 0 186 -71.5t76 -174.5q0 -104 -76 -176t-186 -72zM690 1303q46 0 79.5 33.5t33.5 80.5q0 46 -33 79.5t-80 33.5t-79.5 -33.5t-32.5 -81.5q0 -47 32.5 -79.5t79.5 -32.5zM1196 1044v-1044h-256v92
q-145 -123 -340 -123q-148 0 -273 73.5t-197.5 201t-72.5 278.5t72.5 278.5t197.5 201t273 73.5q195 0 340 -123v92h256zM342 522q0 -129 85 -216t208 -87q122 0 206.5 87.5t84.5 215.5t-84.5 215.5t-206.5 87.5q-123 0 -208 -87t-85 -216z" />
    <glyph glyph-name="ae" unicode="&#xe6;" horiz-adv-x="1855" 
d="M348 690l-260 72q47 144 168 224.5t289 80.5q232 0 354 -154q159 162 387 162q224 0 371 -156t147 -389q0 -30 -8 -108h-788q21 -97 96.5 -153t191.5 -56q79 0 139 30.5t117 98.5l217 -158q-78 -104 -196 -159.5t-260 -55.5q-139 0 -256 54t-195 149q-59 -91 -171 -147
t-240 -56q-170 0 -282 93.5t-112 236.5q0 145 122 236t331 98l235 8v16q0 75 -53.5 121.5t-144.5 46.5q-78 0 -129 -35t-70 -100zM1016 637h497q-12 91 -77.5 145t-165.5 54q-99 0 -163.5 -53.5t-90.5 -145.5zM745 430l-167 -6q-124 -4 -183 -32.5t-59 -84.5
q0 -49 40.5 -75.5t115.5 -26.5q106 0 179.5 48.5t73.5 117.5v59z" />
    <glyph glyph-name="ccedilla" unicode="&#xe7;" horiz-adv-x="1183" 
d="M1157 295q-55 -128 -168 -212t-256 -106l-28 -51q120 -60 120 -182q0 -97 -75.5 -157t-198.5 -60q-67 0 -129 20.5t-103 55.5l109 145q38 -41 90 -41q31 0 52.5 19.5t21.5 48.5q0 35 -27.5 60t-72.5 28l-56 4l56 119q-191 46 -313 194.5t-122 341.5q0 151 77 278.5
t210 201t291 73.5q160 0 292.5 -73.5t202.5 -202.5l-241 -133q-34 74 -102 116.5t-152 42.5q-123 0 -208 -88t-85 -215t85 -215t208 -88q94 0 168.5 53.5t103.5 141.5z" />
    <glyph glyph-name="egrave" unicode="&#xe8;" horiz-adv-x="1202" 
d="M549 1157l-297 338h328l182 -338h-213zM1114 182q-80 -103 -200.5 -158t-266.5 -55q-255 0 -422.5 156.5t-167.5 392.5q0 154 74 282t203 201.5t284 73.5q229 0 380 -156t151 -389q0 -50 -6 -108h-789q21 -97 96.5 -153t190.5 -56q79 0 140 30.5t118 98.5zM362 637h498
q-12 90 -78.5 144.5t-165.5 54.5t-163.5 -54t-90.5 -145z" />
    <glyph glyph-name="eacute" unicode="&#xe9;" horiz-adv-x="1202" 
d="M481 1157l183 338h333l-297 -338h-219zM1114 182q-80 -103 -200.5 -158t-266.5 -55q-255 0 -422.5 156.5t-167.5 392.5q0 154 74 282t203 201.5t284 73.5q229 0 380 -156t151 -389q0 -50 -6 -108h-789q21 -97 96.5 -153t190.5 -56q79 0 140 30.5t118 98.5zM362 637h498
q-12 90 -78.5 144.5t-165.5 54.5t-163.5 -54t-90.5 -145z" />
    <glyph glyph-name="ecircumflex" unicode="&#xea;" horiz-adv-x="1202" 
d="M197 1169l364 367h105l366 -367h-289l-125 123l-133 -123h-288zM1114 182q-80 -103 -200.5 -158t-266.5 -55q-255 0 -422.5 156.5t-167.5 392.5q0 154 74 282t203 201.5t284 73.5q229 0 380 -156t151 -389q0 -50 -6 -108h-789q21 -97 96.5 -153t190.5 -56q79 0 140 30.5
t118 98.5zM362 637h498q-12 90 -78.5 144.5t-165.5 54.5t-163.5 -54t-90.5 -145z" />
    <glyph glyph-name="edieresis" unicode="&#xeb;" horiz-adv-x="1202" 
d="M825 1212q-64 0 -109.5 44.5t-45.5 107.5q0 65 45.5 109.5t111.5 44.5t112 -44.5t46 -107.5t-46.5 -108.5t-113.5 -45.5zM401 1212q-65 0 -110 45t-45 109q0 63 45.5 107.5t111.5 44.5t112 -44.5t46 -107.5t-46.5 -108.5t-113.5 -45.5zM1114 182q-80 -103 -200.5 -158
t-266.5 -55q-255 0 -422.5 156.5t-167.5 392.5q0 154 74 282t203 201.5t284 73.5q229 0 380 -156t151 -389q0 -50 -6 -108h-789q21 -97 96.5 -153t190.5 -56q79 0 140 30.5t118 98.5zM362 637h498q-12 90 -78.5 144.5t-165.5 54.5t-163.5 -54t-90.5 -145z" />
    <glyph glyph-name="igrave" unicode="&#xec;" horiz-adv-x="458" 
d="M162 1157l-297 338h328l182 -338h-213zM94 0v1044h271v-1044h-271z" />
    <glyph glyph-name="iacute" unicode="&#xed;" horiz-adv-x="458" 
d="M94 1157l182 338h334l-297 -338h-219zM94 0v1044h271v-1044h-271z" />
    <glyph glyph-name="icircumflex" unicode="&#xee;" horiz-adv-x="458" 
d="M-190 1169l364 367h105l366 -367h-289l-125 123l-133 -123h-288zM94 0v1044h271v-1044h-271z" />
    <glyph glyph-name="idieresis" unicode="&#xef;" horiz-adv-x="458" 
d="M438 1212q-64 0 -109.5 44.5t-45.5 107.5q0 65 45.5 109.5t111.5 44.5t112 -44.5t46 -107.5t-46.5 -108.5t-113.5 -45.5zM14 1212q-66 0 -110.5 44.5t-44.5 109.5q0 63 45.5 107.5t111.5 44.5t112 -44.5t46 -107.5t-46.5 -108.5t-113.5 -45.5zM94 0v1044h271v-1044h-271z
" />
    <glyph glyph-name="eth" unicode="&#xf0;" horiz-adv-x="1245" 
d="M457 1143l-45 164l141 39l-121 149h346l43 -76l160 43l45 -164l-117 -32l31 -54q131 -229 189.5 -388t58.5 -285q0 -154 -77.5 -285.5t-210 -208t-288.5 -76.5q-152 0 -279.5 73t-201.5 200t-74 278q0 149 71 276t193 201t265 74q133 0 215 -55l10 8l-143 176zM633 219
q124 0 208.5 88.5t84.5 216.5t-82.5 213.5t-206.5 85.5t-209.5 -87.5t-85.5 -213.5q0 -127 84.5 -215t206.5 -88z" />
    <glyph glyph-name="ntilde" unicode="&#xf1;" horiz-adv-x="1136" 
d="M346 1221l-174 32q12 120 76.5 192.5t163.5 72.5q56 0 117 -25t115.5 -49.5t92.5 -24.5q72 0 84 72l174 -33q-12 -120 -77 -192t-164 -72q-55 0 -116 24t-116 48t-94 24q-73 0 -82 -69zM94 0v1044h252v-73q97 108 283 108q183 0 298 -117t115 -303v-659h-270v614
q0 93 -56 154t-143 61q-88 0 -148 -60t-60 -146v-623h-271z" />
    <glyph glyph-name="ograve" unicode="&#xf2;" horiz-adv-x="1271" 
d="M569 1157l-297 338h328l182 -338h-213zM57 522q0 151 77 278.5t210 201t291 73.5q159 0 292.5 -73.5t210 -200.5t76.5 -279q0 -113 -45.5 -215.5t-122.5 -176.5t-184.5 -117.5t-226.5 -43.5q-158 0 -291 73.5t-210 201t-77 278.5zM342 522q0 -127 85 -215t208 -88
q124 0 208.5 87.5t84.5 215.5t-84.5 215.5t-208.5 87.5q-123 0 -208 -88t-85 -215z" />
    <glyph glyph-name="oacute" unicode="&#xf3;" horiz-adv-x="1271" 
d="M502 1157l182 338h334l-297 -338h-219zM57 522q0 151 77 278.5t210 201t291 73.5q159 0 292.5 -73.5t210 -200.5t76.5 -279q0 -113 -45.5 -215.5t-122.5 -176.5t-184.5 -117.5t-226.5 -43.5q-158 0 -291 73.5t-210 201t-77 278.5zM342 522q0 -127 85 -215t208 -88
q124 0 208.5 87.5t84.5 215.5t-84.5 215.5t-208.5 87.5q-123 0 -208 -88t-85 -215z" />
    <glyph glyph-name="ocircumflex" unicode="&#xf4;" horiz-adv-x="1271" 
d="M217 1169l365 367h104l367 -367h-289l-125 123l-133 -123h-289zM57 522q0 151 77 278.5t210 201t291 73.5q159 0 292.5 -73.5t210 -200.5t76.5 -279q0 -113 -45.5 -215.5t-122.5 -176.5t-184.5 -117.5t-226.5 -43.5q-158 0 -291 73.5t-210 201t-77 278.5zM342 522
q0 -127 85 -215t208 -88q124 0 208.5 87.5t84.5 215.5t-84.5 215.5t-208.5 87.5q-123 0 -208 -88t-85 -215z" />
    <glyph glyph-name="otilde" unicode="&#xf5;" horiz-adv-x="1271" 
d="M397 1221l-172 32q11 119 76 192t164 73q56 0 117 -25t115.5 -49.5t93.5 -24.5q68 0 83 72l173 -33q-12 -119 -77.5 -191.5t-164.5 -72.5q-55 0 -116 24t-116 48t-94 24q-70 0 -82 -69zM57 522q0 151 77 278.5t210 201t291 73.5q159 0 292.5 -73.5t210 -200.5t76.5 -279
q0 -113 -45.5 -215.5t-122.5 -176.5t-184.5 -117.5t-226.5 -43.5q-158 0 -291 73.5t-210 201t-77 278.5zM342 522q0 -127 85 -215t208 -88q124 0 208.5 87.5t84.5 215.5t-84.5 215.5t-208.5 87.5q-123 0 -208 -88t-85 -215z" />
    <glyph glyph-name="odieresis" unicode="&#xf6;" horiz-adv-x="1271" 
d="M846 1212q-66 0 -111 44.5t-45 107.5q0 64 46 109t112 45t112 -44.5t46 -107.5t-46.5 -108.5t-113.5 -45.5zM422 1212q-65 0 -110.5 45t-45.5 109q0 63 46 107.5t112 44.5t112 -44.5t46 -107.5t-46.5 -108.5t-113.5 -45.5zM57 522q0 151 77 278.5t210 201t291 73.5
q159 0 292.5 -73.5t210 -200.5t76.5 -279q0 -113 -45.5 -215.5t-122.5 -176.5t-184.5 -117.5t-226.5 -43.5q-158 0 -291 73.5t-210 201t-77 278.5zM342 522q0 -127 85 -215t208 -88q124 0 208.5 87.5t84.5 215.5t-84.5 215.5t-208.5 87.5q-123 0 -208 -88t-85 -215z" />
    <glyph glyph-name="divide" unicode="&#xf7;" horiz-adv-x="1155" 
d="M578 977q-65 0 -110.5 44t-45.5 107q0 64 45.5 109t110.5 45q66 0 111.5 -44.5t45.5 -109.5q0 -63 -45.5 -107t-111.5 -44zM84 614v215h985v-215h-985zM578 162q-65 0 -110.5 44t-45.5 107q0 64 45.5 109t110.5 45q66 0 111.5 -44.5t45.5 -109.5q0 -63 -45.5 -107
t-111.5 -44z" />
    <glyph glyph-name="oslash" unicode="&#xf8;" horiz-adv-x="1271" 
d="M57 522q0 151 77 278.5t210 201t291 73.5q173 0 317 -88l138 146l124 -125l-129 -136q129 -148 129 -350q0 -113 -45.5 -215.5t-122.5 -176.5t-184.5 -117.5t-226.5 -43.5q-178 0 -320 90l-137 -143l-125 121l131 137q-127 149 -127 348zM342 522q0 -81 35 -143l393 414
q-66 32 -135 32q-123 0 -208 -88t-85 -215zM893 670l-395 -416q62 -35 137 -35q124 0 208.5 87.5t84.5 215.5q0 83 -35 148z" />
    <glyph glyph-name="ugrave" unicode="&#xf9;" horiz-adv-x="1124" 
d="M498 1157l-297 338h327l183 -338h-213zM762 1044h270l-2 -632q-2 -197 -134 -320t-343 -123q-207 0 -333 121.5t-126 321.5v632h271v-587q0 -107 53 -172.5t141 -65.5q92 0 147.5 65.5t55.5 170.5v589z" />
    <glyph glyph-name="uacute" unicode="&#xfa;" horiz-adv-x="1124" 
d="M430 1157l182 338h334l-297 -338h-219zM762 1044h270l-2 -632q-2 -197 -134 -320t-343 -123q-207 0 -333 121.5t-126 321.5v632h271v-587q0 -107 53 -172.5t141 -65.5q92 0 147.5 65.5t55.5 170.5v589z" />
    <glyph glyph-name="ucircumflex" unicode="&#xfb;" horiz-adv-x="1124" 
d="M143 1169l367 367h102l369 -367h-289l-127 123l-131 -123h-291zM762 1044h270l-2 -632q-2 -197 -134 -320t-343 -123q-207 0 -333 121.5t-126 321.5v632h271v-587q0 -107 53 -172.5t141 -65.5q92 0 147.5 65.5t55.5 170.5v589z" />
    <glyph glyph-name="udieresis" unicode="&#xfc;" horiz-adv-x="1124" 
d="M774 1212q-66 0 -111 44.5t-45 107.5q0 65 45.5 109.5t112.5 44.5q66 0 112 -44.5t46 -107.5t-47 -108.5t-113 -45.5zM350 1212q-66 0 -110.5 44.5t-44.5 109.5q0 64 45 108t112 44q66 0 112 -44.5t46 -107.5t-47 -108.5t-113 -45.5zM762 1044h270l-2 -632
q-2 -197 -134 -320t-343 -123q-207 0 -333 121.5t-126 321.5v632h271v-587q0 -107 53 -172.5t141 -65.5q92 0 147.5 65.5t55.5 170.5v589z" />
    <glyph glyph-name="yacute" unicode="&#xfd;" horiz-adv-x="1181" 
d="M469 1157l182 338h334l-297 -338h-219zM227 -451l213 494l-420 1001h295l275 -708l278 708h295l-645 -1495h-291z" />
    <glyph glyph-name="thorn" unicode="&#xfe;" horiz-adv-x="1292" 
d="M1235 522q0 -151 -72.5 -278.5t-197.5 -201t-273 -73.5q-184 0 -327 111v-531h-271v1946h271v-532q140 112 327 112q148 0 273 -73.5t197.5 -201t72.5 -278.5zM950 522q0 128 -85.5 215.5t-207.5 87.5t-207 -87.5t-85 -215.5t85 -215.5t207 -87.5t207.5 87.5t85.5 215.5z
" />
    <glyph glyph-name="ydieresis" unicode="&#xff;" horiz-adv-x="1181" 
d="M813 1212q-66 0 -111 44.5t-45 107.5q0 64 46 109t112 45t112 -44.5t46 -107.5t-47 -108.5t-113 -45.5zM389 1212q-66 0 -111 44.5t-45 109.5q0 63 46 107.5t112 44.5t112 -44.5t46 -107.5t-47 -108.5t-113 -45.5zM227 -451l213 494l-420 1001h295l275 -708l278 708h295
l-645 -1495h-291z" />
    <glyph glyph-name="Amacron" unicode="&#x100;" horiz-adv-x="1609" 
d="M461 1655v233h700v-233h-700zM20 0l637 1495h308l624 -1495h-315l-125 307h-692l-129 -307h-308zM563 565h479l-237 580z" />
    <glyph glyph-name="amacron" unicode="&#x101;" horiz-adv-x="1290" 
d="M367 1214v224h647v-224h-647zM1196 1044v-1044h-256v92q-145 -123 -340 -123q-148 0 -273 73.5t-197.5 201t-72.5 278.5t72.5 278.5t197.5 201t273 73.5q195 0 340 -123v92h256zM342 522q0 -129 85 -216t208 -87q122 0 206.5 87.5t84.5 215.5t-84.5 215.5t-206.5 87.5
q-123 0 -208 -87t-85 -216z" />
    <glyph glyph-name="Abreve" unicode="&#x102;" horiz-adv-x="1609" 
d="M426 1925h231q4 -49 48.5 -81t109.5 -32t105.5 30.5t44.5 82.5h231q-5 -143 -111.5 -232t-273.5 -89t-273.5 89t-111.5 232zM20 0l637 1495h308l624 -1495h-315l-125 307h-692l-129 -307h-308zM563 565h479l-237 580z" />
    <glyph glyph-name="abreve" unicode="&#x103;" horiz-adv-x="1290" 
d="M326 1495h219q3 -50 43.5 -81.5t101.5 -31.5t102 31.5t44 81.5h219q-4 -144 -105 -232.5t-260 -88.5q-160 0 -259.5 88t-104.5 233zM1196 1044v-1044h-256v92q-145 -123 -340 -123q-148 0 -273 73.5t-197.5 201t-72.5 278.5t72.5 278.5t197.5 201t273 73.5
q195 0 340 -123v92h256zM342 522q0 -129 85 -216t208 -87q122 0 206.5 87.5t84.5 215.5t-84.5 215.5t-206.5 87.5q-123 0 -208 -87t-85 -216z" />
    <glyph glyph-name="Aogonek" unicode="&#x104;" horiz-adv-x="1609" 
d="M20 0l637 1495h308l624 -1495q-70 -26 -108.5 -67t-38.5 -91q0 -41 25.5 -66.5t68.5 -25.5q37 0 72 21l69 -177q-122 -57 -215 -57q-130 0 -212.5 68.5t-82.5 177.5q0 62 27.5 122t75.5 105l-121 297h-692l-129 -307h-308zM563 565h479l-237 580z" />
    <glyph glyph-name="aogonek" unicode="&#x105;" horiz-adv-x="1290" 
d="M1196 1044v-1044q-71 -26 -109 -67t-38 -91q0 -41 24.5 -66.5t65.5 -25.5q39 0 71 21l72 -177q-122 -57 -207 -57q-123 0 -200.5 68.5t-77.5 175.5q0 76 39 147.5t104 114.5v49q-145 -123 -340 -123q-148 0 -273 73.5t-197.5 201t-72.5 278.5t72.5 278.5t197.5 201
t273 73.5q195 0 340 -123v92h256zM342 522q0 -129 85 -216t208 -87q122 0 206.5 87.5t84.5 215.5t-84.5 215.5t-206.5 87.5q-123 0 -208 -87t-85 -216z" />
    <glyph glyph-name="Cacute" unicode="&#x106;" horiz-adv-x="1517" 
d="M715 1608l182 338h340l-297 -338h-225zM1245 442l240 -190q-117 -137 -276.5 -210t-340.5 -73q-166 0 -313.5 61t-253.5 165t-167.5 249.5t-61.5 307.5q0 161 61.5 304.5t167 246.5t253.5 163t314 60q184 0 340 -73t265 -208l-240 -176q-66 83 -163 129.5t-206 46.5
q-132 0 -242 -65.5t-173.5 -179.5t-63.5 -250q0 -209 140.5 -354.5t342.5 -145.5q226 0 377 192z" />
    <glyph glyph-name="cacute" unicode="&#x107;" horiz-adv-x="1183" 
d="M504 1157l182 338h334l-297 -338h-219zM1157 295q-64 -149 -205.5 -237.5t-314.5 -88.5q-159 0 -292.5 73.5t-210.5 201t-77 278.5t77 278.5t210 201t291 73.5q160 0 292.5 -73.5t202.5 -202.5l-241 -133q-34 74 -102 116.5t-152 42.5q-123 0 -208 -88t-85 -215t85 -215
t208 -88q94 0 168.5 53.5t103.5 141.5z" />
    <glyph glyph-name="Ccircumflex" unicode="&#x108;" horiz-adv-x="1517" 
d="M434 1606l377 362h111l378 -362h-303l-127 118l-131 -118h-305zM1245 442l240 -190q-117 -137 -276.5 -210t-340.5 -73q-166 0 -313.5 61t-253.5 165t-167.5 249.5t-61.5 307.5q0 161 61.5 304.5t167 246.5t253.5 163t314 60q184 0 340 -73t265 -208l-240 -176
q-66 83 -163 129.5t-206 46.5q-132 0 -242 -65.5t-173.5 -179.5t-63.5 -250q0 -209 140.5 -354.5t342.5 -145.5q226 0 377 192z" />
    <glyph glyph-name="ccircumflex" unicode="&#x109;" horiz-adv-x="1183" 
d="M217 1169l365 367h104l369 -367h-289l-127 123l-131 -123h-291zM1157 295q-64 -149 -205.5 -237.5t-314.5 -88.5q-159 0 -292.5 73.5t-210.5 201t-77 278.5t77 278.5t210 201t291 73.5q160 0 292.5 -73.5t202.5 -202.5l-241 -133q-34 74 -102 116.5t-152 42.5
q-123 0 -208 -88t-85 -215t85 -215t208 -88q94 0 168.5 53.5t103.5 141.5z" />
    <glyph glyph-name="Cdotaccent" unicode="&#x10a;" horiz-adv-x="1517" 
d="M694 1821q0 71 50.5 118.5t125.5 47.5t127 -47t52 -117t-53 -119t-128 -49t-124.5 47.5t-49.5 118.5zM1245 442l240 -190q-117 -137 -276.5 -210t-340.5 -73q-166 0 -313.5 61t-253.5 165t-167.5 249.5t-61.5 307.5q0 161 61.5 304.5t167 246.5t253.5 163t314 60
q184 0 340 -73t265 -208l-240 -176q-66 83 -163 129.5t-206 46.5q-132 0 -242 -65.5t-173.5 -179.5t-63.5 -250q0 -209 140.5 -354.5t342.5 -145.5q226 0 377 192z" />
    <glyph glyph-name="cdotaccent" unicode="&#x10b;" horiz-adv-x="1183" 
d="M467 1356q0 69 49 115.5t121 46.5q74 0 124 -46.5t50 -115.5t-50.5 -116.5t-123.5 -47.5q-72 0 -121 47t-49 117zM1157 295q-64 -149 -205.5 -237.5t-314.5 -88.5q-159 0 -292.5 73.5t-210.5 201t-77 278.5t77 278.5t210 201t291 73.5q160 0 292.5 -73.5t202.5 -202.5
l-241 -133q-34 74 -102 116.5t-152 42.5q-123 0 -208 -88t-85 -215t85 -215t208 -88q94 0 168.5 53.5t103.5 141.5z" />
    <glyph glyph-name="Ccaron" unicode="&#x10c;" horiz-adv-x="1517" 
d="M1311 1946l-371 -330h-137l-375 330h326l112 -117l121 117h324zM1245 442l240 -190q-117 -137 -276.5 -210t-340.5 -73q-166 0 -313.5 61t-253.5 165t-167.5 249.5t-61.5 307.5q0 161 61.5 304.5t167 246.5t253.5 163t314 60q184 0 340 -73t265 -208l-240 -176
q-66 83 -163 129.5t-206 46.5q-132 0 -242 -65.5t-173.5 -179.5t-63.5 -250q0 -209 140.5 -354.5t342.5 -145.5q226 0 377 192z" />
    <glyph glyph-name="ccaron" unicode="&#x10d;" horiz-adv-x="1183" 
d="M1057 1495l-352 -330h-130l-358 330h303l115 -115l123 115h299zM1157 295q-64 -149 -205.5 -237.5t-314.5 -88.5q-159 0 -292.5 73.5t-210.5 201t-77 278.5t77 278.5t210 201t291 73.5q160 0 292.5 -73.5t202.5 -202.5l-241 -133q-34 74 -102 116.5t-152 42.5
q-123 0 -208 -88t-85 -215t85 -215t208 -88q94 0 168.5 53.5t103.5 141.5z" />
    <glyph glyph-name="Dcaron" unicode="&#x10e;" horiz-adv-x="1525" 
d="M1124 1925l-370 -330h-136l-374 330h325l113 -117l121 117h321zM113 0v1495h551q231 0 411.5 -94.5t280.5 -264t100 -386.5q0 -216 -100.5 -387t-281.5 -267t-410 -96h-551zM403 258h234q220 0 363 140t143 354q0 212 -142.5 348.5t-363.5 136.5h-234v-979z" />
    <glyph glyph-name="dcaron" unicode="&#x10f;" horiz-adv-x="1570" 
d="M57 522q0 151 72.5 278.5t197.5 201t273 73.5q185 0 326 -110v530h270v-1495h-252v96q-146 -127 -344 -127q-148 0 -273 73.5t-197.5 201t-72.5 278.5zM1309 1014l32 481h258l-122 -481h-168zM342 522q0 -129 85 -216t208 -87q122 0 206.5 87.5t84.5 215.5t-84.5 215.5
t-206.5 87.5q-123 0 -208 -87t-85 -216z" />
    <glyph glyph-name="Dcroat" unicode="&#x110;" horiz-adv-x="1587" 
d="M174 0v635h-154l3 268h151v592h551q231 0 411.5 -94.5t281 -264.5t100.5 -386q0 -161 -59 -300.5t-163 -238.5t-251.5 -155t-319.5 -56h-551zM465 258h233q220 0 363 140t143 354q0 212 -142.5 348.5t-363.5 136.5h-233v-334h430v-268h-430v-377z" />
    <glyph glyph-name="dcroat" unicode="&#x111;" horiz-adv-x="1368" 
d="M57 522q0 151 72.5 278.5t197.5 201t273 73.5q185 0 328 -112v180h-289v233h289v119h270v-119h133v-233h-133v-1143h-254v96q-146 -127 -344 -127q-148 0 -273 73.5t-197.5 201t-72.5 278.5zM342 522q0 -128 85.5 -215.5t207.5 -87.5q121 0 206 87.5t85 215.5t-85 215.5
t-206 87.5q-122 0 -207.5 -87.5t-85.5 -215.5z" />
    <glyph glyph-name="Emacron" unicode="&#x112;" horiz-adv-x="1173" 
d="M252 1655v233h700v-233h-700zM115 0v1495h958v-268h-667v-342h632l-2 -256h-630v-361h698v-268h-989z" />
    <glyph glyph-name="emacron" unicode="&#x113;" horiz-adv-x="1202" 
d="M293 1214v224h645v-224h-645zM1114 182q-80 -103 -200.5 -158t-266.5 -55q-255 0 -422.5 156.5t-167.5 392.5q0 154 74 282t203 201.5t284 73.5q229 0 380 -156t151 -389q0 -50 -6 -108h-789q21 -97 96.5 -153t190.5 -56q79 0 140 30.5t118 98.5zM362 637h498
q-12 90 -78.5 144.5t-165.5 54.5t-163.5 -54t-90.5 -145z" />
    <glyph glyph-name="Ebreve" unicode="&#x114;" horiz-adv-x="1173" 
d="M219 1925h232q5 -50 48 -81.5t109 -31.5q63 0 103.5 30.5t44.5 82.5h231q-5 -143 -111.5 -232t-273.5 -89q-166 0 -273 89.5t-110 231.5zM115 0v1495h958v-268h-667v-342h632l-2 -256h-630v-361h698v-268h-989z" />
    <glyph glyph-name="ebreve" unicode="&#x115;" horiz-adv-x="1202" 
d="M252 1495h217q3 -50 43.5 -81.5t101.5 -31.5q62 0 103.5 32t44.5 81h217q-4 -145 -104.5 -233t-260.5 -88q-159 0 -259 88.5t-103 232.5zM1114 182q-80 -103 -200.5 -158t-266.5 -55q-255 0 -422.5 156.5t-167.5 392.5q0 154 74 282t203 201.5t284 73.5q229 0 380 -156
t151 -389q0 -50 -6 -108h-789q21 -97 96.5 -153t190.5 -56q79 0 140 30.5t118 98.5zM362 637h498q-12 90 -78.5 144.5t-165.5 54.5t-163.5 -54t-90.5 -145z" />
    <glyph glyph-name="Edotaccent" unicode="&#x116;" horiz-adv-x="1173" 
d="M428 1800q0 71 50.5 118.5t125.5 47.5q77 0 127.5 -47t50.5 -117q0 -71 -52 -119.5t-128 -48.5q-75 0 -124.5 47.5t-49.5 118.5zM115 0v1495h958v-268h-667v-342h632l-2 -256h-630v-361h698v-268h-989z" />
    <glyph glyph-name="edotaccent" unicode="&#x117;" horiz-adv-x="1202" 
d="M444 1356q0 69 49.5 115.5t122.5 46.5q72 0 122 -46.5t50 -115.5t-50 -116.5t-122 -47.5q-74 0 -123 47t-49 117zM1114 182q-80 -103 -200.5 -158t-266.5 -55q-255 0 -422.5 156.5t-167.5 392.5q0 154 74 282t203 201.5t284 73.5q229 0 380 -156t151 -389q0 -50 -6 -108
h-789q21 -97 96.5 -153t190.5 -56q79 0 140 30.5t118 98.5zM362 637h498q-12 90 -78.5 144.5t-165.5 54.5t-163.5 -54t-90.5 -145z" />
    <glyph glyph-name="Eogonek" unicode="&#x118;" horiz-adv-x="1173" 
d="M115 0v1495h958v-268h-667v-342h632l-2 -256h-630v-361h698v-268q-72 -26 -110 -67t-38 -91q0 -41 26 -66.5t69 -25.5q36 0 71 21l70 -177q-122 -57 -215 -57q-132 0 -213.5 68.5t-81.5 177.5q0 122 92 217h-659z" />
    <glyph glyph-name="eogonek" unicode="&#x119;" horiz-adv-x="1202" 
d="M1114 182q-21 -27 -49 -55q-88 -97 -124 -158.5t-36 -113.5q0 -46 25.5 -73.5t70.5 -27.5q35 0 66 17l72 -177q-88 -57 -199 -57q-120 0 -200.5 65t-80.5 162q0 100 93 213q-47 -8 -105 -8q-255 0 -422.5 156.5t-167.5 392.5q0 154 74 282t203 201.5t284 73.5
q229 0 380 -156t151 -389q0 -50 -6 -108h-789q21 -97 96.5 -153t190.5 -56q79 0 140 30.5t118 98.5zM362 637h498q-12 90 -78.5 144.5t-165.5 54.5t-163.5 -54t-90.5 -145z" />
    <glyph glyph-name="Ecaron" unicode="&#x11a;" horiz-adv-x="1173" 
d="M1044 1925l-370 -330h-135l-377 330h327l111 -117l121 117h323zM115 0v1495h958v-268h-667v-342h632l-2 -256h-630v-361h698v-268h-989z" />
    <glyph glyph-name="ecaron" unicode="&#x11b;" horiz-adv-x="1202" 
d="M1036 1495l-354 -330h-129l-358 330h305l112 -115l123 115h301zM1114 182q-80 -103 -200.5 -158t-266.5 -55q-255 0 -422.5 156.5t-167.5 392.5q0 154 74 282t203 201.5t284 73.5q229 0 380 -156t151 -389q0 -50 -6 -108h-789q21 -97 96.5 -153t190.5 -56q79 0 140 30.5
t118 98.5zM362 637h498q-12 90 -78.5 144.5t-165.5 54.5t-163.5 -54t-90.5 -145z" />
    <glyph glyph-name="Gcircumflex" unicode="&#x11c;" horiz-adv-x="1669" 
d="M430 1606l377 362h111l378 -362h-303l-127 118l-131 -118h-305zM899 569v256h700q12 -249 -75.5 -444t-258.5 -303.5t-397 -108.5q-165 0 -313 61t-254 164.5t-167.5 248t-61.5 305.5t62 305t167.5 248t252 164.5t310.5 60.5q218 0 393 -100.5t254 -272.5l-262 -137
q-130 229 -383 229q-204 0 -342.5 -142.5t-138.5 -354.5t139.5 -355t345.5 -143q163 0 277.5 90.5t128.5 228.5h-377z" />
    <glyph glyph-name="gcircumflex" unicode="&#x11d;" horiz-adv-x="1292" 
d="M279 1169l364 367h105l366 -367h-289l-125 123l-133 -123h-288zM1196 1044v-987q0 -255 -161 -402t-439 -147q-144 0 -273.5 41t-226.5 117l127 236q168 -144 375 -144q164 0 253 84t89 238v14q-149 -123 -340 -123q-148 0 -273 73.5t-197.5 201t-72.5 278.5
q0 150 72.5 277t197.5 200.5t273 73.5q194 0 340 -121v90h256zM342 522q0 -127 85 -214t208 -87q122 0 206.5 87t84.5 214q0 128 -84.5 215.5t-206.5 87.5q-123 0 -208 -87t-85 -216z" />
    <glyph glyph-name="Gbreve" unicode="&#x11e;" horiz-adv-x="1669" 
d="M481 1946h232q5 -50 48 -81.5t107 -31.5q65 0 105.5 30.5t44.5 82.5h231q-5 -143 -111.5 -232.5t-273.5 -89.5q-166 0 -273 90t-110 232zM899 569v256h700q12 -249 -75.5 -444t-258.5 -303.5t-397 -108.5q-165 0 -313 61t-254 164.5t-167.5 248t-61.5 305.5t62 305
t167.5 248t252 164.5t310.5 60.5q218 0 393 -100.5t254 -272.5l-262 -137q-130 229 -383 229q-204 0 -342.5 -142.5t-138.5 -354.5t139.5 -355t345.5 -143q163 0 277.5 90.5t128.5 228.5h-377z" />
    <glyph glyph-name="gbreve" unicode="&#x11f;" horiz-adv-x="1292" 
d="M334 1495h217q3 -50 43.5 -81.5t101.5 -31.5t102 31.5t44 81.5h219q-4 -145 -104.5 -233t-260.5 -88q-159 0 -259 88.5t-103 232.5zM1196 1044v-987q0 -255 -161 -402t-439 -147q-144 0 -273.5 41t-226.5 117l127 236q168 -144 375 -144q164 0 253 84t89 238v14
q-149 -123 -340 -123q-148 0 -273 73.5t-197.5 201t-72.5 278.5q0 150 72.5 277t197.5 200.5t273 73.5q194 0 340 -121v90h256zM342 522q0 -127 85 -214t208 -87q122 0 206.5 87t84.5 214q0 128 -84.5 215.5t-206.5 87.5q-123 0 -208 -87t-85 -216z" />
    <glyph glyph-name="Gdotaccent" unicode="&#x120;" horiz-adv-x="1669" 
d="M690 1821q0 71 50.5 118.5t125.5 47.5t126.5 -47t51.5 -117q0 -71 -52 -119.5t-128 -48.5q-75 0 -124.5 47.5t-49.5 118.5zM899 569v256h700q12 -249 -75.5 -444t-258.5 -303.5t-397 -108.5q-165 0 -313 61t-254 164.5t-167.5 248t-61.5 305.5t62 305t167.5 248
t252 164.5t310.5 60.5q218 0 393 -100.5t254 -272.5l-262 -137q-130 229 -383 229q-204 0 -342.5 -142.5t-138.5 -354.5t139.5 -355t345.5 -143q163 0 277.5 90.5t128.5 228.5h-377z" />
    <glyph glyph-name="gdotaccent" unicode="&#x121;" horiz-adv-x="1292" 
d="M526 1356q0 69 49.5 115.5t122.5 46.5q72 0 122 -46.5t50 -115.5t-50 -116.5t-122 -47.5q-74 0 -123 47t-49 117zM1196 1044v-987q0 -255 -161 -402t-439 -147q-144 0 -273.5 41t-226.5 117l127 236q168 -144 375 -144q164 0 253 84t89 238v14q-149 -123 -340 -123
q-148 0 -273 73.5t-197.5 201t-72.5 278.5q0 150 72.5 277t197.5 200.5t273 73.5q194 0 340 -121v90h256zM342 522q0 -127 85 -214t208 -87q122 0 206.5 87t84.5 214q0 128 -84.5 215.5t-206.5 87.5q-123 0 -208 -87t-85 -216z" />
    <glyph glyph-name="uni0122" unicode="&#x122;" horiz-adv-x="1669" 
d="M899 569v256h700q12 -249 -75.5 -444t-258.5 -303.5t-397 -108.5q-165 0 -313 61t-254 164.5t-167.5 248t-61.5 305.5t62 305t167.5 248t252 164.5t310.5 60.5q218 0 393 -100.5t254 -272.5l-262 -137q-130 229 -383 229q-204 0 -342.5 -142.5t-138.5 -354.5t139.5 -355
t345.5 -143q163 0 277.5 90.5t128.5 228.5h-377zM627 -418l141 336l274 -51l-215 -359z" />
    <glyph glyph-name="uni0123" unicode="&#x123;" horiz-adv-x="1292" 
d="M977 1452l-141 -336l-256 51l215 359zM1196 1044v-987q0 -255 -161 -402t-439 -147q-144 0 -273.5 41t-226.5 117l127 236q168 -144 375 -144q164 0 253 84t89 238v14q-149 -123 -340 -123q-148 0 -273 73.5t-197.5 201t-72.5 278.5q0 150 72.5 277t197.5 200.5t273 73.5
q194 0 340 -121v90h256zM342 522q0 -127 85 -214t208 -87q122 0 206.5 87t84.5 214q0 128 -84.5 215.5t-206.5 87.5q-123 0 -208 -87t-85 -216z" />
    <glyph glyph-name="Hcircumflex" unicode="&#x124;" horiz-adv-x="1456" 
d="M293 1585l377 363h110l381 -363h-305l-127 119l-131 -119h-305zM1343 1495v-1495h-290v627h-650v-627h-290v1495h290v-598h650v598h290z" />
    <glyph glyph-name="hcircumflex" unicode="&#x125;" horiz-adv-x="1136" 
d="M172 1585l377 363h110l381 -363h-305l-127 119l-131 -119h-305zM94 0v1495h271v-506q99 90 264 90q183 0 299 -117t116 -303v-659h-270v614q0 93 -57 154t-144 61q-88 0 -148 -60t-60 -146v-623h-271z" />
    <glyph glyph-name="Hbar" unicode="&#x126;" horiz-adv-x="1456" 
d="M1343 1495v-178h125v-234h-125v-1083h-290v627h-650v-627h-290v1083h-125v234h125v178h290v-178h650v178h290zM403 897h650v186h-650v-186z" />
    <glyph glyph-name="hbar" unicode="&#x127;" horiz-adv-x="1208" 
d="M170 0v1143h-133v233h133v119h270v-119h289v-233h-289v-154q104 90 265 90q183 0 299 -117t116 -303v-659h-270v614q0 93 -57 154t-144 61q-88 0 -148.5 -60t-60.5 -146v-623h-270z" />
    <glyph glyph-name="Itilde" unicode="&#x128;" horiz-adv-x="516" 
d="M-6 1638l-184 43q12 121 88 194t190 73q62 0 127 -25t121.5 -49.5t97.5 -24.5q78 0 90 74l183 -43q-12 -121 -88.5 -193.5t-190.5 -72.5q-61 0 -126 24t-122 48t-100 24q-77 0 -86 -72zM113 0v1495h290v-1495h-290z" />
    <glyph glyph-name="itilde" unicode="&#x129;" horiz-adv-x="458" 
d="M-10 1221l-172 32q11 120 75.5 192.5t163.5 72.5q56 0 117.5 -25t116 -49.5t92.5 -24.5q72 0 84 72l172 -33q-11 -119 -77 -191.5t-165 -72.5q-55 0 -116 24t-115.5 48t-93.5 24q-70 0 -82 -69zM94 0v1044h271v-1044h-271z" />
    <glyph glyph-name="Imacron" unicode="&#x12a;" horiz-adv-x="516" 
d="M-92 1655v233h702v-233h-702zM113 0v1495h290v-1495h-290z" />
    <glyph glyph-name="imacron" unicode="&#x12b;" horiz-adv-x="458" 
d="M-94 1214v224h645v-224h-645zM94 0v1044h271v-1044h-271z" />
    <glyph glyph-name="Ibreve" unicode="&#x12c;" horiz-adv-x="516" 
d="M-125 1925h231q5 -50 48.5 -81.5t109.5 -31.5q63 0 103.5 30.5t44.5 82.5h231q-3 -142 -110 -231.5t-273 -89.5q-167 0 -273.5 89t-111.5 232zM113 0v1495h290v-1495h-290z" />
    <glyph glyph-name="ibreve" unicode="&#x12d;" horiz-adv-x="458" 
d="M-137 1495h219q3 -50 43.5 -81.5t101.5 -31.5q62 0 103.5 32t42.5 81h219q-4 -145 -104.5 -233t-260.5 -88q-159 0 -259.5 88.5t-104.5 232.5zM94 0v1044h271v-1044h-271z" />
    <glyph glyph-name="Iogonek" unicode="&#x12e;" horiz-adv-x="516" 
d="M479 -406q-122 -57 -217 -57q-130 0 -212.5 68.5t-82.5 177.5q0 75 40 146t106 114v1452h290v-1495h-12q-71 -26 -109 -67t-38 -91q0 -41 25.5 -66.5t66.5 -25.5q40 0 72 21z" />
    <glyph glyph-name="iogonek" unicode="&#x12f;" horiz-adv-x="458" 
d="M55 1354q0 70 50 117t122 47q74 0 125 -47t51 -117q0 -69 -51 -116.5t-125 -47.5q-72 0 -122 47t-50 117zM444 -406q-122 -57 -204 -57q-124 0 -202.5 68.5t-78.5 175.5q0 73 36.5 142t98.5 112v1009h271v-1044h-7q-71 -26 -109 -67t-38 -91q0 -42 25 -67t67 -25
q37 0 72 21z" />
    <glyph glyph-name="Idotaccent" unicode="&#x130;" horiz-adv-x="516" 
d="M84 1800q0 71 50.5 118.5t125.5 47.5q77 0 127.5 -47t50.5 -117q0 -71 -51.5 -119.5t-126.5 -48.5q-76 0 -126 47.5t-50 118.5zM113 0v1495h290v-1495h-290z" />
    <glyph glyph-name="dotlessi" unicode="&#x131;" horiz-adv-x="458" 
d="M94 0v1044h271v-1044h-271z" />
    <glyph glyph-name="IJ" unicode="&#x132;" horiz-adv-x="1538" 
d="M516 276l264 121q72 -147 187 -147q77 0 122 51t44 137l2 88v969h290v-1079q0 -206 -119 -326.5t-321 -120.5q-163 0 -287 80.5t-182 226.5zM113 0v1495h290v-1495h-290z" />
    <glyph glyph-name="ij" unicode="&#x133;" horiz-adv-x="937" 
d="M55 1354q0 70 50 117t122 47q74 0 125 -47t51 -117q0 -69 -51 -116.5t-125 -47.5q-72 0 -122 47t-50 117zM535 1354q0 70 49 117t123 47t124 -47t50 -117q0 -69 -50.5 -116.5t-123.5 -47.5q-74 0 -123 47t-49 117zM94 0v1044h271v-1044h-271zM573 -72v1116h271v-1140
q-2 -181 -95 -284t-257 -103q-112 0 -213 49l79 227q41 -24 93 -24q63 0 91.5 38t30.5 121z" />
    <glyph glyph-name="Jcircumflex" unicode="&#x134;" horiz-adv-x="1021" 
d="M326 1585l374 363h113l379 -363h-305l-125 119l-133 -119h-303zM0 276l264 121q72 -147 189 -147q75 0 119.5 51t43.5 137l2 88v969h291v-1079q0 -205 -118.5 -326t-319.5 -121q-165 0 -289 80.5t-182 226.5z" />
    <glyph glyph-name="jcircumflex" unicode="&#x135;" horiz-adv-x="479" 
d="M-172 1169l367 367h104l367 -367h-289l-127 123l-131 -123h-291zM115 -72v1116h270v-1140q-2 -180 -95 -283.5t-255 -103.5q-111 0 -215 49l80 227q41 -24 94 -24q62 0 91 38t30 121z" />
    <glyph glyph-name="uni0136" unicode="&#x136;" horiz-adv-x="1329" 
d="M113 0v1495h290v-618l500 618h363l-594 -713l645 -782h-379l-535 670v-670h-290zM381 -418l141 336l275 -51l-215 -359z" />
    <glyph glyph-name="uni0137" unicode="&#x137;" horiz-adv-x="1073" 
d="M94 0v1495h271v-840l342 389h346l-422 -471l440 -573h-342l-364 487v-487h-271zM262 -418l139 336l258 -51l-215 -359z" />
    <glyph glyph-name="kgreenlandic" unicode="&#x138;" horiz-adv-x="1073" 
d="M94 0v1044h271v-389l342 389h346l-422 -471l440 -573h-342l-364 487v-487h-271z" />
    <glyph glyph-name="Lacute" unicode="&#x139;" horiz-adv-x="1073" 
d="M106 1587l181 338h342l-297 -338h-226zM113 0v1495h290v-1227h603v-268h-893z" />
    <glyph glyph-name="lacute" unicode="&#x13a;" horiz-adv-x="458" 
d="M76 1587l180 338h342l-297 -338h-225zM94 0v1495h271v-1495h-271z" />
    <glyph glyph-name="uni013B" unicode="&#x13b;" horiz-adv-x="1073" 
d="M113 0v1495h290v-1227h603v-268h-893zM295 -418l141 336l273 -51l-215 -359z" />
    <glyph glyph-name="uni013C" unicode="&#x13c;" horiz-adv-x="458" 
d="M94 0v1495h271v-1495h-271zM-39 -418l141 336l256 -51l-215 -359z" />
    <glyph glyph-name="Lcaron" unicode="&#x13d;" horiz-adv-x="1089" 
d="M113 0v1495h290v-1227h603v-268h-893zM825 1014l35 481h258l-125 -481h-168z" />
    <glyph glyph-name="lcaron" unicode="&#x13e;" horiz-adv-x="739" 
d="M94 0v1495h271v-1495h-271zM477 1014l33 481h258l-125 -481h-166z" />
    <glyph glyph-name="Ldot" unicode="&#x13f;" horiz-adv-x="1077" 
d="M113 0v1495h290v-1227h603v-268h-893zM676 774q0 69 49.5 115.5t122.5 46.5q72 0 122 -46.5t50 -115.5t-50 -116.5t-122 -47.5q-74 0 -123 47t-49 117z" />
    <glyph glyph-name="ldot" unicode="&#x140;" horiz-adv-x="915" 
d="M94 0v1495h271v-1495h-271zM516 752q0 69 49 115t121 46t122 -46t50 -115t-50 -116.5t-122 -47.5t-121 47t-49 117z" />
    <glyph glyph-name="Lslash" unicode="&#x141;" horiz-adv-x="1146" 
d="M186 0v487l-159 -90v260l159 91v747h291v-582l406 232v-260l-406 -232v-385h602v-268h-893z" />
    <glyph glyph-name="lslash" unicode="&#x142;" horiz-adv-x="641" 
d="M186 0v496l-145 -117v287l145 118v711h271v-494l145 117v-291l-145 -114v-713h-271z" />
    <glyph glyph-name="Nacute" unicode="&#x143;" horiz-adv-x="1570" 
d="M637 1587l180 338h342l-297 -338h-225zM1458 1495v-1495h-295l-751 1032h-9v-1032h-290v1495h293l751 -1026h10v1026h291z" />
    <glyph glyph-name="nacute" unicode="&#x144;" horiz-adv-x="1136" 
d="M451 1157l182 338h334l-299 -338h-217zM94 0v1044h252v-73q97 108 283 108q183 0 298 -117t115 -303v-659h-270v614q0 93 -56 154t-143 61q-88 0 -148 -60t-60 -146v-623h-271z" />
    <glyph glyph-name="uni0145" unicode="&#x145;" horiz-adv-x="1570" 
d="M1458 1495v-1495h-295l-751 1032h-9v-1032h-290v1495h293l751 -1026h10v1026h291zM518 -418l141 336l275 -51l-215 -359z" />
    <glyph glyph-name="uni0146" unicode="&#x146;" horiz-adv-x="1136" 
d="M94 0v1044h252v-73q97 108 283 108q183 0 298 -117t115 -303v-659h-270v614q0 93 -56 154t-143 61q-88 0 -148 -60t-60 -146v-623h-271zM303 -418l141 336l258 -51l-215 -359z" />
    <glyph glyph-name="Ncaron" unicode="&#x147;" horiz-adv-x="1570" 
d="M1231 1925l-371 -330h-135l-375 330h326l112 -117l121 117h322zM1458 1495v-1495h-295l-751 1032h-9v-1032h-290v1495h293l751 -1026h10v1026h291z" />
    <glyph glyph-name="ncaron" unicode="&#x148;" horiz-adv-x="1136" 
d="M1004 1495l-353 -330h-129l-358 330h303l115 -115l123 115h299zM94 0v1044h252v-73q97 108 283 108q183 0 298 -117t115 -303v-659h-270v614q0 93 -56 154t-143 61q-88 0 -148 -60t-60 -146v-623h-271z" />
    <glyph glyph-name="napostrophe" unicode="&#x149;" horiz-adv-x="1708" 
d="M78 944l162 590l264 -84l-215 -573zM666 0v1044h252v-73q97 108 282 108q183 0 298.5 -117t115.5 -303v-659h-271v614q0 93 -55.5 154t-142.5 61q-89 0 -149 -59.5t-60 -146.5v-623h-270z" />
    <glyph glyph-name="Eng" unicode="&#x14a;" horiz-adv-x="1570" 
d="M1458 1495v-1540q0 -206 -119 -326.5t-321 -120.5q-163 0 -287 81t-182 227l264 121q37 -76 82 -112t104 -36q76 0 121 51t45 137v23h-2l-751 1032h-9v-1032h-290v1495h293l751 -1026h10v1026h291z" />
    <glyph glyph-name="eng" unicode="&#x14b;" horiz-adv-x="1136" 
d="M94 0v1044h252v-73q97 108 283 108q183 0 298 -117t115 -303v-755q0 -180 -93.5 -283.5t-256.5 -103.5q-112 0 -213 49l78 227q44 -24 94 -24q62 0 91.5 38t29.5 121v686q0 93 -56 154t-143 61q-88 0 -148 -60t-60 -146v-623h-271z" />
    <glyph glyph-name="Omacron" unicode="&#x14c;" horiz-adv-x="1732" 
d="M516 1675v234h701v-234h-701zM72 748q0 160 62 304t168 248t253 165t311 61t311.5 -61t254 -165t169 -248t62.5 -304q0 -161 -62.5 -305.5t-169 -248t-254 -164.5t-311.5 -61t-311 61t-253 164.5t-168 248t-62 305.5zM385 748q0 -209 139.5 -353.5t341.5 -144.5
q133 0 244.5 66t175.5 180.5t64 251.5t-64.5 251.5t-175.5 180t-244 65.5t-243.5 -65.5t-174 -180t-63.5 -251.5z" />
    <glyph glyph-name="omacron" unicode="&#x14d;" horiz-adv-x="1271" 
d="M313 1214v224h645v-224h-645zM57 522q0 151 77 278.5t210 201t291 73.5q159 0 292.5 -73.5t210 -200.5t76.5 -279q0 -113 -45.5 -215.5t-122.5 -176.5t-184.5 -117.5t-226.5 -43.5q-158 0 -291 73.5t-210 201t-77 278.5zM342 522q0 -127 85 -215t208 -88
q124 0 208.5 87.5t84.5 215.5t-84.5 215.5t-208.5 87.5q-123 0 -208 -88t-85 -215z" />
    <glyph glyph-name="Obreve" unicode="&#x14e;" horiz-adv-x="1732" 
d="M481 1946h232q5 -50 49 -81.5t108 -31.5q65 0 105.5 30.5t44.5 82.5h231q-5 -143 -111.5 -232.5t-273.5 -89.5t-273.5 89.5t-111.5 232.5zM72 748q0 160 62 304t168 248t253 165t311 61t311.5 -61t254 -165t169 -248t62.5 -304q0 -161 -62.5 -305.5t-169 -248
t-254 -164.5t-311.5 -61t-311 61t-253 164.5t-168 248t-62 305.5zM385 748q0 -209 139.5 -353.5t341.5 -144.5q133 0 244.5 66t175.5 180.5t64 251.5t-64.5 251.5t-175.5 180t-244 65.5t-243.5 -65.5t-174 -180t-63.5 -251.5z" />
    <glyph glyph-name="obreve" unicode="&#x14f;" horiz-adv-x="1271" 
d="M272 1495h217q3 -50 44 -81.5t102 -31.5t101.5 31.5t43.5 81.5h219q-5 -145 -104.5 -233t-259.5 -88q-159 0 -259.5 88.5t-103.5 232.5zM57 522q0 151 77 278.5t210 201t291 73.5q159 0 292.5 -73.5t210 -200.5t76.5 -279q0 -113 -45.5 -215.5t-122.5 -176.5
t-184.5 -117.5t-226.5 -43.5q-158 0 -291 73.5t-210 201t-77 278.5zM342 522q0 -127 85 -215t208 -88q124 0 208.5 87.5t84.5 215.5t-84.5 215.5t-208.5 87.5q-123 0 -208 -88t-85 -215z" />
    <glyph glyph-name="Ohungarumlaut" unicode="&#x150;" horiz-adv-x="1732" 
d="M539 1618l157 328h303l-264 -328h-196zM944 1618l158 328h303l-264 -328h-197zM72 748q0 160 62 304t168 248t253 165t311 61t311.5 -61t254 -165t169 -248t62.5 -304q0 -161 -62.5 -305.5t-169 -248t-254 -164.5t-311.5 -61t-311 61t-253 164.5t-168 248t-62 305.5z
M385 748q0 -209 139.5 -353.5t341.5 -144.5q133 0 244.5 66t175.5 180.5t64 251.5t-64.5 251.5t-175.5 180t-244 65.5t-243.5 -65.5t-174 -180t-63.5 -251.5z" />
    <glyph glyph-name="ohungarumlaut" unicode="&#x151;" horiz-adv-x="1271" 
d="M326 1167l157 328h295l-264 -328h-188zM731 1167l156 328h295l-262 -328h-189zM57 522q0 151 77 278.5t210 201t291 73.5q159 0 292.5 -73.5t210 -200.5t76.5 -279q0 -113 -45.5 -215.5t-122.5 -176.5t-184.5 -117.5t-226.5 -43.5q-158 0 -291 73.5t-210 201t-77 278.5z
M342 522q0 -127 85 -215t208 -88q124 0 208.5 87.5t84.5 215.5t-84.5 215.5t-208.5 87.5q-123 0 -208 -88t-85 -215z" />
    <glyph glyph-name="OE" unicode="&#x152;" horiz-adv-x="2410" 
d="M72 748q0 162 61 306t165.5 247.5t250 164t307.5 60.5q298 0 494 -187v156h960v-268h-668v-342h631v-256h-631v-361h699v-268h-991v156q-196 -187 -494 -187q-163 0 -308.5 60.5t-249.5 164t-165 248t-61 306.5zM385 748q0 -209 139.5 -353.5t341.5 -144.5
q133 0 244.5 66t175.5 180.5t64 251.5t-64.5 251.5t-175.5 180t-244 65.5t-243.5 -65.5t-174 -180t-63.5 -251.5z" />
    <glyph glyph-name="oe" unicode="&#x153;" horiz-adv-x="2041" 
d="M57 522q0 151 76 278.5t207 201t287 73.5q128 0 240.5 -50.5t191.5 -139.5q75 89 182.5 139.5t231.5 50.5q223 0 369.5 -156t146.5 -389q0 -40 -7 -108h-788q21 -97 96.5 -153t192.5 -56q79 0 139 30.5t117 98.5l217 -158q-78 -104 -196.5 -159.5t-260.5 -55.5
q-135 0 -248.5 50t-191.5 141q-80 -90 -192 -140.5t-240 -50.5q-156 0 -287 73.5t-207 201t-76 278.5zM1202 637h498q-14 91 -79.5 145t-166.5 54q-98 0 -162 -53.5t-90 -145.5zM342 522q0 -127 85.5 -215t207.5 -88q123 0 208 88t85 215t-85 215t-208 88q-122 0 -207.5 -88
t-85.5 -215z" />
    <glyph glyph-name="Racute" unicode="&#x154;" horiz-adv-x="1273" 
d="M434 1587l182 338h340l-297 -338h-225zM113 0v1495h557q226 0 371 -125t145 -321q0 -163 -104 -281.5t-275 -155.5l459 -612h-363l-422 598h-78v-598h-290zM403 834h228q106 0 176 59t70 149q0 89 -69.5 147t-176.5 58h-228v-413z" />
    <glyph glyph-name="racute" unicode="&#x155;" horiz-adv-x="755" 
d="M268 1157l181 338h333l-297 -338h-217zM94 0v1044h252v-88q44 59 109.5 91t140.5 32q66 0 139 -28l-112 -258q-47 20 -84 20q-174 0 -174 -246v-567h-271z" />
    <glyph glyph-name="uni0156" unicode="&#x156;" horiz-adv-x="1273" 
d="M113 0v1495h557q226 0 371 -125t145 -321q0 -163 -104 -281.5t-275 -155.5l459 -612h-363l-422 598h-78v-598h-290zM403 834h228q106 0 176 59t70 149q0 89 -69.5 147t-176.5 58h-228v-413zM367 -418l141 336l272 -51l-215 -359z" />
    <glyph glyph-name="uni0157" unicode="&#x157;" horiz-adv-x="755" 
d="M94 0v1044h252v-88q44 59 109.5 91t140.5 32q66 0 139 -28l-112 -258q-47 20 -84 20q-174 0 -174 -246v-567h-271zM-41 -418l141 336l256 -51l-215 -359z" />
    <glyph glyph-name="Rcaron" unicode="&#x158;" horiz-adv-x="1273" 
d="M1030 1925l-371 -330h-137l-375 330h326l113 -117l121 117h323zM113 0v1495h557q226 0 371 -125t145 -321q0 -163 -104 -281.5t-275 -155.5l459 -612h-363l-422 598h-78v-598h-290zM403 834h228q106 0 176 59t70 149q0 89 -69.5 147t-176.5 58h-228v-413z" />
    <glyph glyph-name="rcaron" unicode="&#x159;" horiz-adv-x="755" 
d="M821 1495l-352 -330h-129l-358 330h303l114 -115l121 115h301zM94 0v1044h252v-88q44 59 109.5 91t140.5 32q66 0 139 -28l-112 -258q-47 20 -84 20q-174 0 -174 -246v-567h-271z" />
    <glyph glyph-name="Sacute" unicode="&#x15a;" horiz-adv-x="1163" 
d="M455 1608l182 338h340l-297 -338h-225zM43 137l154 242q80 -62 174.5 -97.5t181.5 -35.5q101 0 163 45t62 119q0 61 -52 108t-177 98l-62 27q-201 82 -292 187.5t-91 256.5q0 198 135.5 318.5t358.5 120.5q121 0 246.5 -35t212.5 -92l-146 -242q-169 96 -299 96
q-90 0 -147 -42t-57 -109q0 -58 54.5 -106t186.5 -103l72 -31q191 -79 277.5 -182.5t86.5 -251.5q0 -206 -145 -332.5t-379 -126.5q-139 0 -279 45.5t-239 122.5z" />
    <glyph glyph-name="sacute" unicode="&#x15b;" horiz-adv-x="866" 
d="M324 1157l182 338h334l-297 -338h-219zM31 111l131 188q126 -100 246 -100q57 0 87.5 24t30.5 68q0 37 -30 64t-115 63l-45 18q-142 59 -207.5 132t-65.5 177q0 145 107.5 237.5t280.5 92.5q90 0 180.5 -27t152.5 -71l-116 -203q-101 72 -201 72q-58 0 -90.5 -22
t-32.5 -62q0 -34 34.5 -62t129.5 -69l33 -15q147 -63 208.5 -134.5t61.5 -178.5q0 -150 -104 -242t-277 -92q-113 0 -224 39.5t-175 102.5z" />
    <glyph glyph-name="Scircumflex" unicode="&#x15c;" horiz-adv-x="1163" 
d="M174 1606l377 362h111l378 -362h-303l-127 118l-131 -118h-305zM43 137l154 242q80 -62 174.5 -97.5t181.5 -35.5q101 0 163 45t62 119q0 61 -52 108t-177 98l-62 27q-201 82 -292 187.5t-91 256.5q0 198 135.5 318.5t358.5 120.5q121 0 246.5 -35t212.5 -92l-146 -242
q-169 96 -299 96q-90 0 -147 -42t-57 -109q0 -58 54.5 -106t186.5 -103l72 -31q191 -79 277.5 -182.5t86.5 -251.5q0 -206 -145 -332.5t-379 -126.5q-139 0 -279 45.5t-239 122.5z" />
    <glyph glyph-name="scircumflex" unicode="&#x15d;" horiz-adv-x="866" 
d="M37 1169l364 367h105l368 -367h-290l-125 123l-131 -123h-291zM31 111l131 188q126 -100 246 -100q57 0 87.5 24t30.5 68q0 37 -30 64t-115 63l-45 18q-142 59 -207.5 132t-65.5 177q0 145 107.5 237.5t280.5 92.5q90 0 180.5 -27t152.5 -71l-116 -203q-101 72 -201 72
q-58 0 -90.5 -22t-32.5 -62q0 -34 34.5 -62t129.5 -69l33 -15q147 -63 208.5 -134.5t61.5 -178.5q0 -150 -104 -242t-277 -92q-113 0 -224 39.5t-175 102.5z" />
    <glyph glyph-name="Scedilla" unicode="&#x15e;" horiz-adv-x="1163" 
d="M43 137l154 242q80 -62 174.5 -97.5t181.5 -35.5q101 0 163 45t62 119q0 61 -52 108t-177 98l-62 27q-201 82 -292 187.5t-91 256.5q0 198 135.5 318.5t358.5 120.5q121 0 246.5 -35t212.5 -92l-146 -242q-169 96 -299 96q-90 0 -147 -42t-57 -109q0 -58 54.5 -106
t186.5 -103l72 -31q191 -79 277.5 -182.5t86.5 -251.5q0 -187 -120.5 -310t-321.5 -145l-27 -47q123 -62 123 -182q0 -97 -77 -157t-203 -60q-69 0 -132 20.5t-106 55.5l109 145q33 -41 86 -41q31 0 51 19.5t20 48.5q0 35 -26.5 60t-69.5 28l-53 4l55 119q-213 44 -350 151z
" />
    <glyph glyph-name="scedilla" unicode="&#x15f;" horiz-adv-x="866" 
d="M31 111l131 188q126 -100 246 -100q57 0 87.5 24t30.5 68q0 37 -30 64t-115 63l-45 18q-142 59 -207.5 132t-65.5 177q0 145 107.5 237.5t280.5 92.5q90 0 180.5 -27t152.5 -71l-116 -203q-101 72 -201 72q-58 0 -90.5 -22t-32.5 -62q0 -34 34.5 -62t129.5 -69l33 -15
q147 -63 208.5 -134.5t61.5 -178.5q0 -127 -76.5 -214t-208.5 -112l-26 -51q118 -61 118 -182q0 -97 -75.5 -157t-196.5 -60q-144 0 -233 76l110 145q33 -41 88 -41q31 0 52.5 19.5t21.5 48.5q0 35 -27.5 60t-72.5 28l-56 4l56 119q-163 37 -254 125z" />
    <glyph glyph-name="Scaron" unicode="&#x160;" horiz-adv-x="1163" 
d="M1051 1946l-371 -330h-137l-375 330h326l112 -117l121 117h324zM43 137l154 242q80 -62 174.5 -97.5t181.5 -35.5q101 0 163 45t62 119q0 61 -52 108t-177 98l-62 27q-201 82 -292 187.5t-91 256.5q0 198 135.5 318.5t358.5 120.5q121 0 246.5 -35t212.5 -92l-146 -242
q-169 96 -299 96q-90 0 -147 -42t-57 -109q0 -58 54.5 -106t186.5 -103l72 -31q191 -79 277.5 -182.5t86.5 -251.5q0 -206 -145 -332.5t-379 -126.5q-139 0 -279 45.5t-239 122.5z" />
    <glyph glyph-name="scaron" unicode="&#x161;" horiz-adv-x="866" 
d="M877 1495l-353 -330h-129l-358 330h303l115 -115l123 115h299zM31 111l131 188q126 -100 246 -100q57 0 87.5 24t30.5 68q0 37 -30 64t-115 63l-45 18q-142 59 -207.5 132t-65.5 177q0 145 107.5 237.5t280.5 92.5q90 0 180.5 -27t152.5 -71l-116 -203q-101 72 -201 72
q-58 0 -90.5 -22t-32.5 -62q0 -34 34.5 -62t129.5 -69l33 -15q147 -63 208.5 -134.5t61.5 -178.5q0 -150 -104 -242t-277 -92q-113 0 -224 39.5t-175 102.5z" />
    <glyph glyph-name="uni0162" unicode="&#x162;" horiz-adv-x="1372" 
d="M1303 1495v-268h-472v-1227h-45l-41 -74q123 -62 123 -182q0 -97 -77 -157t-203 -60q-69 0 -132 20.5t-106 55.5l109 145q33 -41 86 -41q31 0 51 19.5t20 48.5q0 35 -26.5 60t-69.5 28l-53 4l65 143h7v1217h-471v268h1235z" />
    <glyph glyph-name="uni0163" unicode="&#x163;" horiz-adv-x="780" 
d="M45 809v235h188v297h271v-297h233v-235h-233v-809h-17l-38 -74q120 -62 120 -182q0 -97 -76 -157t-198 -60q-145 0 -234 76l111 145q33 -41 88 -41q32 0 53 19.5t21 48.5q0 34 -28 59.5t-73 28.5l-55 4l62 133h-7v809h-188z" />
    <glyph glyph-name="Tcaron" unicode="&#x164;" horiz-adv-x="1372" 
d="M1126 1925l-368 -330h-137l-375 330h325l113 -117l121 117h321zM539 0v1227h-471v268h1235v-268h-472v-1227h-292z" />
    <glyph glyph-name="tcaron" unicode="&#x165;" horiz-adv-x="780" 
d="M623 1182l32 481h258l-125 -481h-165zM45 809v235h188v297h271v-297h233v-235h-233v-809h-271v809h-188z" />
    <glyph glyph-name="Tbar" unicode="&#x166;" horiz-adv-x="1370" 
d="M535 0v682h-291v248h291v297h-467v268h1235v-268h-478v-297h303v-248h-303v-682h-290z" />
    <glyph glyph-name="tbar" unicode="&#x167;" horiz-adv-x="808" 
d="M59 813v231h189v297h270v-297h234v-231h-234v-129h234v-229h-234v-455h-270v455h-189v229h189v129h-189z" />
    <glyph glyph-name="Utilde" unicode="&#x168;" horiz-adv-x="1488" 
d="M483 1638l-182 43q10 121 86.5 194t190.5 73q62 0 127 -25t121.5 -49.5t97.5 -24.5q77 0 92 74l182 -43q-13 -121 -89.5 -193.5t-190.5 -72.5q-61 0 -125.5 24t-122 48t-99.5 24q-79 0 -88 -72zM113 1495h290v-879q0 -161 97 -263.5t248 -102.5t244 101.5t93 264.5v879
h291v-901q0 -178 -80.5 -321t-224 -223.5t-323.5 -80.5q-275 0 -455 177t-180 448v901z" />
    <glyph glyph-name="utilde" unicode="&#x169;" horiz-adv-x="1124" 
d="M326 1221l-172 32q11 120 75.5 192.5t163.5 72.5q56 0 117 -25t115.5 -49.5t93.5 -24.5q69 0 84 72l172 -33q-12 -119 -77.5 -191.5t-164.5 -72.5q-55 0 -116 24t-115.5 48t-93.5 24q-73 0 -82 -69zM762 1044h270l-2 -632q-2 -197 -134 -320t-343 -123q-207 0 -333 121.5
t-126 321.5v632h271v-587q0 -107 53 -172.5t141 -65.5q92 0 147.5 65.5t55.5 170.5v589z" />
    <glyph glyph-name="Umacron" unicode="&#x16a;" horiz-adv-x="1488" 
d="M399 1655v233h701v-233h-701zM113 1495h290v-879q0 -161 97 -263.5t248 -102.5t244 101.5t93 264.5v879h291v-901q0 -178 -80.5 -321t-224 -223.5t-323.5 -80.5q-275 0 -455 177t-180 448v901z" />
    <glyph glyph-name="umacron" unicode="&#x16b;" horiz-adv-x="1124" 
d="M242 1214v224h645v-224h-645zM762 1044h270l-2 -632q-2 -197 -134 -320t-343 -123q-207 0 -333 121.5t-126 321.5v632h271v-587q0 -107 53 -172.5t141 -65.5q92 0 147.5 65.5t55.5 170.5v589z" />
    <glyph glyph-name="Ubreve" unicode="&#x16c;" horiz-adv-x="1488" 
d="M365 1925h231q5 -50 48.5 -81.5t109.5 -31.5q64 0 103.5 30t45.5 83h232q-5 -143 -111.5 -232t-273.5 -89t-273.5 89t-111.5 232zM113 1495h290v-879q0 -161 97 -263.5t248 -102.5t244 101.5t93 264.5v879h291v-901q0 -178 -80.5 -321t-224 -223.5t-323.5 -80.5
q-275 0 -455 177t-180 448v901z" />
    <glyph glyph-name="ubreve" unicode="&#x16d;" horiz-adv-x="1124" 
d="M199 1495h219q3 -50 43.5 -81.5t101.5 -31.5t102 31.5t44 81.5h219q-4 -145 -104.5 -233t-260.5 -88q-159 0 -259.5 88.5t-104.5 232.5zM762 1044h270l-2 -632q-2 -197 -134 -320t-343 -123q-207 0 -333 121.5t-126 321.5v632h271v-587q0 -107 53 -172.5t141 -65.5
q92 0 147.5 65.5t55.5 170.5v589z" />
    <glyph glyph-name="Uring" unicode="&#x16e;" horiz-adv-x="1488" 
d="M750 1550q-110 0 -186.5 72t-76.5 176q0 103 75.5 173.5t187.5 70.5q110 0 186 -70.5t76 -173.5q0 -104 -76 -176t-186 -72zM748 1683q47 0 79.5 33.5t32.5 81.5q0 46 -32.5 78.5t-79.5 32.5q-46 0 -78.5 -33t-32.5 -80t32.5 -80t78.5 -33zM113 1495h290v-879
q0 -161 97 -263.5t248 -102.5t244 101.5t93 264.5v879h291v-901q0 -178 -80.5 -321t-224 -223.5t-323.5 -80.5q-275 0 -455 177t-180 448v901z" />
    <glyph glyph-name="uring" unicode="&#x16f;" horiz-adv-x="1124" 
d="M565 1169q-110 0 -186 72t-76 176q0 103 76 174.5t186 71.5t185 -71.5t75 -174.5q0 -104 -75.5 -176t-184.5 -72zM563 1303q47 0 80 33.5t33 80.5q0 46 -33 79.5t-80 33.5q-46 0 -78 -34t-32 -81t32 -79.5t78 -32.5zM762 1044h270l-2 -632q-2 -197 -134 -320t-343 -123
q-207 0 -333 121.5t-126 321.5v632h271v-587q0 -107 53 -172.5t141 -65.5q92 0 147.5 65.5t55.5 170.5v589z" />
    <glyph glyph-name="Uhungarumlaut" unicode="&#x170;" horiz-adv-x="1488" 
d="M422 1597l158 328h303l-265 -328h-196zM827 1597l156 328h303l-262 -328h-197zM113 1495h290v-879q0 -161 97 -263.5t248 -102.5t244 101.5t93 264.5v879h291v-901q0 -178 -80.5 -321t-224 -223.5t-323.5 -80.5q-275 0 -455 177t-180 448v901z" />
    <glyph glyph-name="uhungarumlaut" unicode="&#x171;" horiz-adv-x="1124" 
d="M254 1167l158 328h295l-265 -328h-188zM659 1167l156 328h295l-262 -328h-189zM762 1044h270l-2 -632q-2 -197 -134 -320t-343 -123q-207 0 -333 121.5t-126 321.5v632h271v-587q0 -107 53 -172.5t141 -65.5q92 0 147.5 65.5t55.5 170.5v589z" />
    <glyph glyph-name="Uogonek" unicode="&#x172;" horiz-adv-x="1488" 
d="M113 1495h290v-879q0 -161 97 -263.5t248 -102.5t244 101.5t93 264.5v879h291v-901q0 -144 -52.5 -265.5t-149.5 -205.5q-83 -86 -118.5 -147t-35.5 -115q0 -51 27 -79t73 -28q38 0 72 17l70 -177q-91 -57 -218 -57q-135 0 -221 71t-86 185q0 97 66 178q-18 -2 -55 -2
q-275 0 -455 177t-180 448v901z" />
    <glyph glyph-name="uogonek" unicode="&#x173;" horiz-adv-x="1124" 
d="M762 1044h270l-2 -632q0 -210 -149 -334q-117 -139 -117 -223q0 -46 26 -73.5t70 -27.5q34 0 68 17l69 -177q-85 -57 -196 -57q-120 0 -200.5 65t-80.5 162q0 98 86 207q-18 -2 -53 -2q-207 0 -333 121.5t-126 321.5v632h271v-587q0 -107 53 -172.5t141 -65.5
q92 0 147.5 65.5t55.5 170.5v589z" />
    <glyph glyph-name="Wcircumflex" unicode="&#x174;" horiz-adv-x="2224" 
d="M684 1585l377 363h110l381 -363h-305l-127 119l-131 -119h-305zM455 0l-435 1495h304l313 -1112l338 1112h272l338 -1118l316 1118h305l-441 -1495h-329l-318 1049h-16l-318 -1049h-329z" />
    <glyph glyph-name="wcircumflex" unicode="&#x175;" horiz-adv-x="1728" 
d="M455 1169l364 367h105l366 -367h-289l-127 123l-131 -123h-288zM385 0l-365 1044h293l215 -677l222 677h256l219 -675l211 675h274l-348 -1044h-258l-232 690l-227 -690h-260z" />
    <glyph glyph-name="Ycircumflex" unicode="&#x176;" horiz-adv-x="1409" 
d="M279 1585l374 363h113l379 -363h-305l-125 119l-131 -119h-305zM565 0v575l-545 920h338l357 -645l350 645h326l-535 -917v-578h-291z" />
    <glyph glyph-name="ycircumflex" unicode="&#x177;" horiz-adv-x="1181" 
d="M184 1169l365 367h104l367 -367h-289l-127 123l-131 -123h-289zM227 -451l213 494l-420 1001h295l275 -708l278 708h295l-645 -1495h-291z" />
    <glyph glyph-name="Ydieresis" unicode="&#x178;" horiz-adv-x="1409" 
d="M944 1640q-66 0 -113 45t-47 109q0 63 47.5 108.5t114.5 45.5t113.5 -44.5t46.5 -109.5q0 -64 -47 -109t-115 -45zM477 1640q-66 0 -113 45t-47 109t47 109t115 45t115 -45t47 -109t-48 -109t-116 -45zM565 0v575l-545 920h338l357 -645l350 645h326l-535 -917v-578h-291
z" />
    <glyph glyph-name="Zacute" unicode="&#x179;" horiz-adv-x="1384" 
d="M537 1587l182 338h340l-297 -338h-225zM78 0v250l813 985h-780v260h1157v-250l-803 -977h842v-268h-1229z" />
    <glyph glyph-name="zacute" unicode="&#x17a;" horiz-adv-x="1026" 
d="M406 1157l180 338h334l-297 -338h-217zM59 0v225l537 586h-516v233h866v-229l-524 -582h545v-233h-908z" />
    <glyph glyph-name="Zdotaccent" unicode="&#x17b;" horiz-adv-x="1384" 
d="M516 1800q0 71 50.5 118.5t125.5 47.5t126.5 -47t51.5 -117q0 -71 -52 -119.5t-128 -48.5q-75 0 -124.5 47.5t-49.5 118.5zM78 0v250l813 985h-780v260h1157v-250l-803 -977h842v-268h-1229z" />
    <glyph glyph-name="zdotaccent" unicode="&#x17c;" horiz-adv-x="1026" 
d="M367 1356q0 69 49.5 115.5t122.5 46.5q72 0 122 -46.5t50 -115.5t-50 -116.5t-122 -47.5q-74 0 -123 47t-49 117zM59 0v225l537 586h-516v233h866v-229l-524 -582h545v-233h-908z" />
    <glyph glyph-name="Zcaron" unicode="&#x17d;" horiz-adv-x="1384" 
d="M1133 1925l-371 -330h-137l-375 330h325l113 -117l121 117h324zM78 0v250l813 985h-780v260h1157v-250l-803 -977h842v-268h-1229z" />
    <glyph glyph-name="zcaron" unicode="&#x17e;" horiz-adv-x="1026" 
d="M958 1495l-354 -330h-129l-358 330h305l115 -115l120 115h301zM59 0v225l537 586h-516v233h866v-229l-524 -582h545v-233h-908z" />
    <glyph glyph-name="uni018F" unicode="&#x18f;" horiz-adv-x="1691" 
d="M168 1186q119 161 298 250.5t384 89.5q136 0 260.5 -39t223.5 -111t173 -168.5t114 -217t40 -251.5q0 -159 -60.5 -302t-164 -245.5t-247.5 -162.5t-306 -60q-159 0 -300.5 59t-243 161t-160 244.5t-58.5 303.5q0 39 10 127h1210q-36 165 -173.5 273t-321.5 108
q-258 0 -430 -237zM1335 610h-909q42 -164 162 -262t284 -98q168 0 295.5 100.5t167.5 259.5z" />
    <glyph glyph-name="uni019D" unicode="&#x19d;" horiz-adv-x="1570" 
d="M1458 1495v-1495h-295l-751 1032h-9v-1032l-2 -49q1 -204 -117.5 -323.5t-322.5 -119.5q-163 0 -284.5 79.5t-178.5 224.5l260 116q69 -143 187 -143q77 0 122 50t44 136l2 95v1429h293l751 -1026h10v1026h291z" />
    <glyph glyph-name="Gcaron" unicode="&#x1e6;" horiz-adv-x="1669" 
d="M1307 1946l-371 -330h-137l-375 330h326l112 -117l121 117h324zM899 569v256h700q12 -249 -75.5 -444t-258.5 -303.5t-397 -108.5q-165 0 -313 61t-254 164.5t-167.5 248t-61.5 305.5t62 305t167.5 248t252 164.5t310.5 60.5q218 0 393 -100.5t254 -272.5l-262 -137
q-130 229 -383 229q-204 0 -342.5 -142.5t-138.5 -354.5t139.5 -355t345.5 -143q163 0 277.5 90.5t128.5 228.5h-377z" />
    <glyph glyph-name="gcaron" unicode="&#x1e7;" horiz-adv-x="1292" 
d="M1118 1495l-354 -330h-129l-359 330h304l114 -115l123 115h301zM1196 1044v-987q0 -255 -161 -402t-439 -147q-144 0 -273.5 41t-226.5 117l127 236q168 -144 375 -144q164 0 253 84t89 238v14q-149 -123 -340 -123q-148 0 -273 73.5t-197.5 201t-72.5 278.5
q0 150 72.5 277t197.5 200.5t273 73.5q194 0 340 -121v90h256zM342 522q0 -127 85 -214t208 -87q122 0 206.5 87t84.5 214q0 128 -84.5 215.5t-206.5 87.5q-123 0 -208 -87t-85 -216z" />
    <glyph glyph-name="uni01EA" unicode="&#x1ea;" horiz-adv-x="1732" 
d="M72 748q0 160 62 304t168 248t253 165t311 61t311.5 -61t254 -165t169 -248t62.5 -304q0 -175 -71.5 -327.5t-198.5 -260.5q-104 -104 -147.5 -171.5t-43.5 -127.5q0 -50 27.5 -78.5t73.5 -28.5q37 0 71 17l70 -177q-91 -57 -217 -57q-135 0 -221 71t-86 185
q0 104 71 184q-82 -8 -125 -8q-164 0 -311 61t-253 164.5t-168 248t-62 305.5zM385 748q0 -209 139.5 -353.5t341.5 -144.5q133 0 244.5 66t175.5 180.5t64 251.5t-64.5 251.5t-175.5 180t-244 65.5t-243.5 -65.5t-174 -180t-63.5 -251.5z" />
    <glyph glyph-name="uni01EB" unicode="&#x1eb;" horiz-adv-x="1271" 
d="M57 522q0 151 77 278.5t210 201t291 73.5q159 0 292.5 -73.5t210 -200.5t76.5 -279q0 -112 -42.5 -212.5t-120.5 -176.5q-92 -99 -129 -161.5t-37 -116.5q0 -46 25.5 -73.5t70.5 -27.5q35 0 66 17l69 -177q-85 -57 -196 -57q-120 0 -200.5 65t-80.5 162q0 100 90 211
q-47 -6 -94 -6q-158 0 -291 73.5t-210 201t-77 278.5zM342 522q0 -127 85 -215t208 -88q124 0 208.5 87.5t84.5 215.5t-84.5 215.5t-208.5 87.5q-123 0 -208 -88t-85 -215z" />
    <glyph glyph-name="Aringacute" unicode="&#x1fa;" horiz-adv-x="1609" 
d="M811 1550q-110 0 -186 72t-76 176q0 84 51 148t133 86l219 180h371l-346 -223q45 -33 70.5 -83t25.5 -108q0 -104 -76 -176t-186 -72zM809 1683q47 0 81 34t34 81q0 46 -34 78.5t-81 32.5q-46 0 -78.5 -33t-32.5 -80t32.5 -80t78.5 -33zM20 0l637 1495h308l624 -1495
h-315l-125 307h-692l-129 -307h-308zM563 565h479l-237 580z" />
    <glyph glyph-name="aringacute" unicode="&#x1fb;" horiz-adv-x="1290" 
d="M690 1169q-109 0 -184.5 72t-75.5 176q0 83 50 147t132 87l146 274h342l-266 -303q55 -33 86.5 -86.5t31.5 -118.5q0 -104 -76 -176t-186 -72zM690 1303q46 0 79.5 33.5t33.5 80.5q0 46 -33 79.5t-80 33.5t-79.5 -33.5t-32.5 -81.5q0 -47 32.5 -79.5t79.5 -32.5z
M1196 1044v-1044h-256v92q-145 -123 -340 -123q-148 0 -273 73.5t-197.5 201t-72.5 278.5t72.5 278.5t197.5 201t273 73.5q195 0 340 -123v92h256zM342 522q0 -129 85 -216t208 -87q122 0 206.5 87.5t84.5 215.5t-84.5 215.5t-206.5 87.5q-123 0 -208 -87t-85 -216z" />
    <glyph glyph-name="AEacute" unicode="&#x1fc;" horiz-adv-x="2074" 
d="M1307 1587l180 338h342l-297 -338h-225zM1014 0v324h-508l-187 -324h-329l882 1495h1102v-268h-667v-342h630v-256h-630v-361h698v-268h-991zM655 580h359v620z" />
    <glyph glyph-name="aeacute" unicode="&#x1fd;" horiz-adv-x="1855" 
d="M831 1157l181 338h334l-297 -338h-218zM348 690l-260 72q47 144 168 224.5t289 80.5q232 0 354 -154q159 162 387 162q224 0 371 -156t147 -389q0 -30 -8 -108h-788q21 -97 96.5 -153t191.5 -56q79 0 139 30.5t117 98.5l217 -158q-78 -104 -196 -159.5t-260 -55.5
q-139 0 -256 54t-195 149q-59 -91 -171 -147t-240 -56q-170 0 -282 93.5t-112 236.5q0 145 122 236t331 98l235 8v16q0 75 -53.5 121.5t-144.5 46.5q-78 0 -129 -35t-70 -100zM1016 637h497q-12 91 -77.5 145t-165.5 54q-99 0 -163.5 -53.5t-90.5 -145.5zM745 430l-167 -6
q-124 -4 -183 -32.5t-59 -84.5q0 -49 40.5 -75.5t115.5 -26.5q106 0 179.5 48.5t73.5 117.5v59z" />
    <glyph glyph-name="Oslashacute" unicode="&#x1fe;" horiz-adv-x="1732" 
d="M713 1608l182 338h340l-297 -338h-225zM72 748q0 160 62 304t168 248t253 165t311 61q232 0 420 -115l156 182l157 -141l-147 -174q100 -105 155.5 -241t55.5 -289q0 -161 -62.5 -305.5t-169 -248t-254 -164.5t-311.5 -61q-240 0 -434 123l-162 -188l-157 141l157 182
q-95 104 -146.5 238t-51.5 283zM385 748q0 -160 84 -287l625 727q-105 57 -228 57q-133 0 -243.5 -65.5t-174 -180t-63.5 -251.5zM1253 1049l-630 -734q114 -65 243 -65q133 0 244.5 66t175.5 180.5t64 251.5q0 163 -97 301z" />
    <glyph glyph-name="oslashacute" unicode="&#x1ff;" horiz-adv-x="1271" 
d="M502 1157l182 338h334l-297 -338h-219zM57 522q0 151 77 278.5t210 201t291 73.5q173 0 317 -88l138 146l124 -125l-129 -136q129 -148 129 -350q0 -113 -45.5 -215.5t-122.5 -176.5t-184.5 -117.5t-226.5 -43.5q-178 0 -320 90l-137 -143l-125 121l131 137
q-127 149 -127 348zM342 522q0 -81 35 -143l393 414q-66 32 -135 32q-123 0 -208 -88t-85 -215zM893 670l-395 -416q62 -35 137 -35q124 0 208.5 87.5t84.5 215.5q0 83 -35 148z" />
    <glyph glyph-name="uni0218" unicode="&#x218;" horiz-adv-x="1163" 
d="M43 137l154 242q80 -62 174.5 -97.5t181.5 -35.5q101 0 163 45t62 119q0 61 -52 108t-177 98l-62 27q-201 82 -292 187.5t-91 256.5q0 198 135.5 318.5t358.5 120.5q121 0 246.5 -35t212.5 -92l-146 -242q-169 96 -299 96q-90 0 -147 -42t-57 -109q0 -58 54.5 -106
t186.5 -103l72 -31q191 -79 277.5 -182.5t86.5 -251.5q0 -206 -145 -332.5t-379 -126.5q-139 0 -279 45.5t-239 122.5zM285 -418l141 336l272 -51l-215 -359z" />
    <glyph glyph-name="uni0219" unicode="&#x219;" horiz-adv-x="866" 
d="M31 111l131 188q126 -100 246 -100q57 0 87.5 24t30.5 68q0 37 -30 64t-115 63l-45 18q-142 59 -207.5 132t-65.5 177q0 145 107.5 237.5t280.5 92.5q90 0 180.5 -27t152.5 -71l-116 -203q-101 72 -201 72q-58 0 -90.5 -22t-32.5 -62q0 -34 34.5 -62t129.5 -69l33 -15
q147 -63 208.5 -134.5t61.5 -178.5q0 -150 -104 -242t-277 -92q-113 0 -224 39.5t-175 102.5zM164 -418l141 336l258 -51l-215 -359z" />
    <glyph glyph-name="uni021A" unicode="&#x21a;" horiz-adv-x="1372" 
d="M539 0v1227h-471v268h1235v-268h-472v-1227h-292zM414 -418l141 336l272 -51l-215 -359z" />
    <glyph glyph-name="uni021B" unicode="&#x21b;" horiz-adv-x="780" 
d="M45 809v235h188v297h271v-297h233v-235h-233v-809h-271v809h-188zM113 -418l141 336l258 -51l-215 -359z" />
    <glyph glyph-name="uni0232" unicode="&#x232;" horiz-adv-x="1409" 
d="M362 1655v233h701v-233h-701zM565 0v575l-545 920h338l357 -645l350 645h326l-535 -917v-578h-291z" />
    <glyph glyph-name="uni0233" unicode="&#x233;" horiz-adv-x="1181" 
d="M281 1214v224h645v-224h-645zM227 -451l213 494l-420 1001h295l275 -708l278 708h295l-645 -1495h-291z" />
    <glyph glyph-name="uni0237" unicode="&#x237;" horiz-adv-x="479" 
d="M115 -72v1116h270v-1140q-2 -180 -95 -283.5t-255 -103.5q-111 0 -215 49l80 227q41 -24 94 -24q62 0 91 38t30 121z" />
    <glyph glyph-name="uni0259" unicode="&#x259;" horiz-adv-x="1202" 
d="M92 862q79 103 200.5 158t266.5 55q255 0 422.5 -156.5t167.5 -392.5q0 -154 -74 -282t-202.5 -201.5t-282.5 -73.5q-152 0 -274.5 72t-190.5 196.5t-68 276.5q0 50 6 109h789q-21 96 -96 152t-191 56q-79 0 -140 -30t-118 -96zM844 408h-498q12 -90 78.5 -144.5
t165.5 -54.5t163.5 54t90.5 145z" />
    <glyph glyph-name="uni0272" unicode="&#x272;" horiz-adv-x="1132" 
d="M365 623v-719q-2 -180 -95 -283.5t-256 -103.5q-111 0 -215 49l80 227q41 -24 94 -24q62 0 91 38t30 121v1116h252v-73q97 108 283 108q183 0 298 -117t115 -303v-659h-270v614q0 93 -56 154t-143 61q-88 0 -148 -60t-60 -146z" />
    <glyph glyph-name="circumflex" unicode="&#x2c6;" 
d="M-10 1169l364 367h105l368 -367h-288l-127 123l-131 -123h-291z" />
    <glyph glyph-name="caron" unicode="&#x2c7;" 
d="M829 1495l-352 -330h-129l-358 330h303l115 -115l122 115h299z" />
    <glyph glyph-name="uni02C9" unicode="&#x2c9;" horiz-adv-x="0" 
d="M-733 1214v224h647v-224h-647z" />
    <glyph glyph-name="breve" unicode="&#x2d8;" 
d="M45 1495h219q3 -50 44 -81.5t102 -31.5t101.5 31.5t43.5 81.5h219q-4 -144 -104.5 -232.5t-259.5 -88.5q-160 0 -260.5 88t-104.5 233z" />
    <glyph glyph-name="dotaccent" unicode="&#x2d9;" 
d="M240 1356q0 69 49 115.5t121 46.5q74 0 124 -46.5t50 -115.5t-50.5 -116.5t-123.5 -47.5q-72 0 -121 47t-49 117z" />
    <glyph glyph-name="ring" unicode="&#x2da;" 
d="M410 1169q-110 0 -185 72t-75 176q0 103 75 174.5t185 71.5t185 -71.5t75 -174.5q0 -104 -75.5 -176t-184.5 -72zM408 1303q47 0 79.5 33.5t32.5 80.5q0 46 -32.5 79.5t-77.5 33.5q-47 0 -80 -34t-33 -81t32.5 -79.5t78.5 -32.5z" />
    <glyph glyph-name="ogonek" unicode="&#x2db;" 
d="M682 -406q-122 -57 -207 -57q-123 0 -200.5 68.5t-77.5 175.5q0 80 43.5 154.5t113.5 115.5l242 -51q-71 -26 -109 -67t-38 -91q0 -41 24.5 -66.5t65.5 -25.5q39 0 71 21z" />
    <glyph glyph-name="tilde" unicode="&#x2dc;" horiz-adv-x="823" 
d="M174 1221l-174 32q12 120 76.5 192.5t163.5 72.5q56 0 117 -25t115.5 -49.5t92.5 -24.5q72 0 84 72l174 -33q-12 -119 -77.5 -191.5t-163.5 -72.5q-55 0 -116.5 24t-116.5 48t-95 24q-71 0 -80 -69z" />
    <glyph glyph-name="hungarumlaut" unicode="&#x2dd;" 
d="M-16 1167l157 328h293l-262 -328h-188zM387 1167l158 328h295l-265 -328h-188z" />
    <glyph glyph-name="uni0312" unicode="&#x312;" horiz-adv-x="0" 
d="M-248 1452l-141 -336l-256 51l215 359z" />
    <glyph glyph-name="dotbelowcomb" unicode="&#x323;" horiz-adv-x="0" 
d="M-733 -283q0 69 49 115.5t121 46.5q74 0 124 -46.5t50 -115.5t-50 -116t-124 -47q-72 0 -121 46.5t-49 116.5z" />
    <glyph glyph-name="uni0326" unicode="&#x326;" horiz-adv-x="557" 
d="M-909 -418l141 336l258 -51l-215 -359z" />
    <glyph glyph-name="uni03BC" unicode="&#x3bc;" horiz-adv-x="1126" 
d="M365 -418h-271v1462h271v-587q0 -108 53.5 -173t142.5 -65q90 0 145.5 65.5t55.5 170.5v589h270l-2 -632q0 -196 -133 -319.5t-344 -123.5q-109 0 -191 33z" />
    <glyph glyph-name="pi" unicode="&#x3c0;" horiz-adv-x="1357" 
d="M225 0v827h-155v217h1210v-217h-172v-520q0 -104 98 -104h56v-209h-125q-133 0 -216 68.5t-83 195.5v569h-342v-827h-271z" />
    <glyph glyph-name="uni0E3F" unicode="&#xe3f;" horiz-adv-x="1273" 
d="M113 0v1495h426v215h151v-217q221 -9 346 -110.5t125 -270.5q0 -122 -65.5 -212t-186.5 -136q147 -41 226 -135.5t79 -229.5q0 -181 -138 -290t-367 -109h-19v-246h-151v246h-426zM389 870h150v400h-150v-400zM690 1264v-387q88 17 137.5 69t49.5 129q0 78 -48 126
t-139 63zM389 225h150v422h-150v-422zM690 645v-418q107 12 168.5 68t61.5 143q0 85 -61 139t-169 68z" />
    <glyph glyph-name="Wgrave" unicode="&#x1e80;" horiz-adv-x="2224" 
d="M1053 1587l-297 338h336l182 -338h-221zM455 0l-435 1495h304l313 -1112l338 1112h272l338 -1118l316 1118h305l-441 -1495h-329l-318 1049h-16l-318 -1049h-329z" />
    <glyph glyph-name="wgrave" unicode="&#x1e81;" horiz-adv-x="1728" 
d="M807 1157l-297 338h328l182 -338h-213zM385 0l-365 1044h293l215 -677l222 677h256l219 -675l211 675h274l-348 -1044h-258l-232 690l-227 -690h-260z" />
    <glyph glyph-name="Wacute" unicode="&#x1e82;" horiz-adv-x="2224" 
d="M965 1587l182 338h342l-297 -338h-227zM455 0l-435 1495h304l313 -1112l338 1112h272l338 -1118l316 1118h305l-441 -1495h-329l-318 1049h-16l-318 -1049h-329z" />
    <glyph glyph-name="wacute" unicode="&#x1e83;" horiz-adv-x="1728" 
d="M739 1157l183 338h333l-297 -338h-219zM385 0l-365 1044h293l215 -677l222 677h256l219 -675l211 675h274l-348 -1044h-258l-232 690l-227 -690h-260z" />
    <glyph glyph-name="Wdieresis" unicode="&#x1e84;" horiz-adv-x="2224" 
d="M1350 1640q-66 0 -112 45t-46 109q0 63 46.5 108.5t113.5 45.5t114 -44.5t47 -109.5q0 -64 -47.5 -109t-115.5 -45zM885 1640q-66 0 -113 45t-47 109t47 109t115 45t115 -45t47 -109t-48 -109t-116 -45zM455 0l-435 1495h304l313 -1112l338 1112h272l338 -1118l316 1118
h305l-441 -1495h-329l-318 1049h-16l-318 -1049h-329z" />
    <glyph glyph-name="wdieresis" unicode="&#x1e85;" horiz-adv-x="1728" 
d="M1083 1212q-66 0 -110.5 44.5t-44.5 107.5q0 65 45.5 109.5t111.5 44.5t112 -44.5t46 -107.5t-47 -108.5t-113 -45.5zM659 1212q-66 0 -110.5 44.5t-44.5 109.5q0 63 46 107.5t112 44.5t111.5 -44.5t45.5 -107.5t-47 -108.5t-113 -45.5zM385 0l-365 1044h293l215 -677
l222 677h256l219 -675l211 675h274l-348 -1044h-258l-232 690l-227 -690h-260z" />
    <glyph glyph-name="Germandbls" unicode="&#x1e9e;" horiz-adv-x="1300" 
d="M113 0v1044q0 210 155 345t398 135q217 0 360 -111t143 -278q0 -112 -65 -206.5t-166 -131.5v-9q134 -29 217.5 -135.5t83.5 -246.5q0 -182 -139 -306.5t-344 -124.5q-149 0 -283 50l105 260q78 -37 145 -37q92 0 150.5 54.5t58.5 139.5q0 91 -70.5 143t-193.5 52h-80
v268h55q94 0 157.5 51.5t63.5 126.5q0 74 -61 124t-152 50q-110 0 -179 -77.5t-69 -200.5v-979h-290z" />
    <glyph glyph-name="uni1EA0" unicode="&#x1ea0;" horiz-adv-x="1609" 
d="M20 0l637 1495h308l624 -1495h-315l-125 307h-692l-129 -307h-308zM563 565h479l-237 580zM635 -283q0 69 50 115.5t122 46.5t122 -46.5t50 -115.5t-50 -116t-122 -47q-73 0 -122.5 46.5t-49.5 116.5z" />
    <glyph glyph-name="uni1EA1" unicode="&#x1ea1;" horiz-adv-x="1290" 
d="M1196 1044v-1044h-256v92q-145 -123 -340 -123q-148 0 -273 73.5t-197.5 201t-72.5 278.5t72.5 278.5t197.5 201t273 73.5q195 0 340 -123v92h256zM342 522q0 -129 85 -216t208 -87q122 0 206.5 87.5t84.5 215.5t-84.5 215.5t-206.5 87.5q-123 0 -208 -87t-85 -216z
M465 -283q0 69 49 115.5t121 46.5q74 0 124 -46.5t50 -115.5t-50 -116t-124 -47q-72 0 -121 46.5t-49 116.5z" />
    <glyph glyph-name="uni1EB8" unicode="&#x1eb8;" horiz-adv-x="1173" 
d="M115 0v1495h958v-268h-667v-342h632l-2 -256h-630v-361h698v-268h-989zM451 -283q0 69 49 115.5t121 46.5t122 -46.5t50 -115.5t-50 -116t-122 -47t-121 46.5t-49 116.5z" />
    <glyph glyph-name="uni1EB9" unicode="&#x1eb9;" horiz-adv-x="1202" 
d="M1114 182q-80 -103 -200.5 -158t-266.5 -55q-255 0 -422.5 156.5t-167.5 392.5q0 154 74 282t203 201.5t284 73.5q229 0 380 -156t151 -389q0 -50 -6 -108h-789q21 -97 96.5 -153t190.5 -56q79 0 140 30.5t118 98.5zM362 637h498q-12 90 -78.5 144.5t-165.5 54.5
t-163.5 -54t-90.5 -145zM475 -283q0 69 49.5 115.5t122.5 46.5q72 0 122 -46.5t50 -115.5t-50 -116t-122 -47q-74 0 -123 46.5t-49 116.5z" />
    <glyph glyph-name="uni1EBC" unicode="&#x1ebc;" horiz-adv-x="1173" 
d="M338 1638l-184 43q12 122 87.5 194.5t190.5 72.5q62 0 127 -25t121.5 -49.5t97.5 -24.5q78 0 90 74l183 -43q-12 -121 -89 -193.5t-190 -72.5q-61 0 -126 24t-122 48t-100 24q-77 0 -86 -72zM115 0v1495h958v-268h-667v-342h632l-2 -256h-630v-361h698v-268h-989z" />
    <glyph glyph-name="uni1EBD" unicode="&#x1ebd;" horiz-adv-x="1202" 
d="M377 1221l-172 32q11 120 75.5 192.5t163.5 72.5q56 0 117.5 -25t116 -49.5t92.5 -24.5q72 0 84 72l172 -33q-11 -119 -76.5 -191.5t-163.5 -72.5q-56 0 -117.5 24t-116 48t-93.5 24q-70 0 -82 -69zM1114 182q-80 -103 -200.5 -158t-266.5 -55q-255 0 -422.5 156.5
t-167.5 392.5q0 154 74 282t203 201.5t284 73.5q229 0 380 -156t151 -389q0 -50 -6 -108h-789q21 -97 96.5 -153t190.5 -56q79 0 140 30.5t118 98.5zM362 637h498q-12 90 -78.5 144.5t-165.5 54.5t-163.5 -54t-90.5 -145z" />
    <glyph glyph-name="uni1ECA" unicode="&#x1eca;" horiz-adv-x="516" 
d="M113 0v1495h290v-1495h-290zM90 -283q0 69 49 115.5t121 46.5q74 0 124 -46.5t50 -115.5t-50 -116t-124 -47q-72 0 -121 46.5t-49 116.5z" />
    <glyph glyph-name="uni1ECB" unicode="&#x1ecb;" horiz-adv-x="458" 
d="M55 1354q0 70 50 117t122 47q74 0 125 -47t51 -117q0 -69 -51 -116.5t-125 -47.5q-72 0 -122 47t-50 117zM94 0v1044h271v-1044h-271zM59 -283q0 69 49 115.5t121 46.5q74 0 124 -46.5t50 -115.5t-50 -116t-124 -47q-72 0 -121 46.5t-49 116.5z" />
    <glyph glyph-name="uni1ECC" unicode="&#x1ecc;" horiz-adv-x="1732" 
d="M72 748q0 160 62 304t168 248t253 165t311 61t311.5 -61t254 -165t169 -248t62.5 -304q0 -161 -62.5 -305.5t-169 -248t-254 -164.5t-311.5 -61t-311 61t-253 164.5t-168 248t-62 305.5zM385 748q0 -209 139.5 -353.5t341.5 -144.5q133 0 244.5 66t175.5 180.5t64 251.5
t-64.5 251.5t-175.5 180t-244 65.5t-243.5 -65.5t-174 -180t-63.5 -251.5zM696 -283q0 69 50 115.5t122 46.5t122 -46.5t50 -115.5t-50 -116t-122 -47q-73 0 -122.5 46.5t-49.5 116.5z" />
    <glyph glyph-name="uni1ECD" unicode="&#x1ecd;" horiz-adv-x="1271" 
d="M57 522q0 151 77 278.5t210 201t291 73.5q159 0 292.5 -73.5t210 -200.5t76.5 -279q0 -113 -45.5 -215.5t-122.5 -176.5t-184.5 -117.5t-226.5 -43.5q-158 0 -291 73.5t-210 201t-77 278.5zM342 522q0 -127 85 -215t208 -88q124 0 208.5 87.5t84.5 215.5t-84.5 215.5
t-208.5 87.5q-123 0 -208 -88t-85 -215zM469 -283q0 69 49 115.5t121 46.5q74 0 124 -46.5t50 -115.5t-50 -116t-124 -47q-72 0 -121 46.5t-49 116.5z" />
    <glyph glyph-name="uni1EE4" unicode="&#x1ee4;" horiz-adv-x="1488" 
d="M113 1495h290v-879q0 -161 97 -263.5t248 -102.5t244 101.5t93 264.5v879h291v-901q0 -178 -80.5 -321t-224 -223.5t-323.5 -80.5q-275 0 -455 177t-180 448v901zM575 -283q0 69 49.5 115.5t123.5 46.5q72 0 122 -46.5t50 -115.5t-50 -116t-122 -47q-74 0 -123.5 46.5
t-49.5 116.5z" />
    <glyph glyph-name="uni1EE5" unicode="&#x1ee5;" horiz-adv-x="1124" 
d="M762 1044h270l-2 -632q-2 -197 -134 -320t-343 -123q-207 0 -333 121.5t-126 321.5v632h271v-587q0 -107 53 -172.5t141 -65.5q92 0 147.5 65.5t55.5 170.5v589zM383 -283q0 69 50 115.5t122 46.5t122 -46.5t50 -115.5t-50 -116t-122 -47q-73 0 -122.5 46.5t-49.5 116.5z
" />
    <glyph glyph-name="Ygrave" unicode="&#x1ef2;" horiz-adv-x="1409" 
d="M647 1587l-297 338h334l182 -338h-219zM565 0v575l-545 920h338l357 -645l350 645h326l-535 -917v-578h-291z" />
    <glyph glyph-name="ygrave" unicode="&#x1ef3;" horiz-adv-x="1181" 
d="M537 1157l-297 338h327l183 -338h-213zM227 -451l213 494l-420 1001h295l275 -708l278 708h295l-645 -1495h-291z" />
    <glyph glyph-name="uni1EF8" unicode="&#x1ef8;" horiz-adv-x="1409" 
d="M446 1638l-182 43q10 121 86.5 194t190.5 73q62 0 127 -25t121.5 -49.5t97.5 -24.5q77 0 92 74l182 -43q-13 -121 -89.5 -193.5t-190.5 -72.5q-61 0 -125.5 24t-121.5 48t-99 24q-77 0 -89 -72zM565 0v575l-545 920h338l357 -645l350 645h326l-535 -917v-578h-291z" />
    <glyph glyph-name="uni1EF9" unicode="&#x1ef9;" horiz-adv-x="1181" 
d="M365 1221l-172 32q11 120 75.5 192.5t163.5 72.5q56 0 117 -25t115.5 -49.5t93.5 -24.5q69 0 84 72l172 -33q-12 -119 -77.5 -191.5t-164.5 -72.5q-55 0 -116 24t-116 48t-94 24q-69 0 -81 -69zM227 -451l213 494l-420 1001h295l275 -708l278 708h295l-645 -1495h-291z
" />
    <glyph glyph-name="endash" unicode="&#x2013;" horiz-adv-x="1052" 
d="M84 414v248h883v-248h-883z" />
    <glyph glyph-name="emdash" unicode="&#x2014;" horiz-adv-x="1667" 
d="M84 414v248h1497v-248h-1497z" />
    <glyph glyph-name="quoteleft" unicode="&#x2018;" horiz-adv-x="571" 
d="M494 1466l-162 -589l-264 86l215 571z" />
    <glyph glyph-name="quoteright" unicode="&#x2019;" horiz-adv-x="571" 
d="M78 944l162 590l264 -84l-215 -573z" />
    <glyph glyph-name="quotesinglbase" unicode="&#x201a;" horiz-adv-x="557" 
d="M-14 -266l243 563l248 -123l-295 -539z" />
    <glyph glyph-name="quotedblleft" unicode="&#x201c;" horiz-adv-x="997" 
d="M494 1466l-162 -589l-264 86l215 571zM920 1466l-162 -589l-264 86l215 571z" />
    <glyph glyph-name="quotedblright" unicode="&#x201d;" horiz-adv-x="997" 
d="M504 944l162 590l264 -84l-215 -573zM78 944l162 590l264 -84l-215 -573z" />
    <glyph glyph-name="quotedblbase" unicode="&#x201e;" horiz-adv-x="970" 
d="M-14 -266l243 563l248 -123l-295 -539zM410 -266l245 563l246 -123l-295 -539z" />
    <glyph glyph-name="dagger" unicode="&#x2020;" horiz-adv-x="1038" 
d="M383 -164v1041h-299v235h299v383h270v-383h299v-235h-299v-1041h-270z" />
    <glyph glyph-name="daggerdbl" unicode="&#x2021;" horiz-adv-x="1040" 
d="M655 1495v-383h297v-235h-297v-420h299v-238h-299v-383h-270v383h-299v238h299v420h-299v235h299v383h270z" />
    <glyph glyph-name="bullet" unicode="&#x2022;" horiz-adv-x="919" 
d="M121 764q0 134 99 226.5t241 92.5q141 0 238.5 -92.5t97.5 -226.5q0 -135 -97.5 -227.5t-238.5 -92.5q-143 0 -241.5 92.5t-98.5 227.5z" />
    <glyph glyph-name="ellipsis" unicode="&#x2026;" horiz-adv-x="1689" 
d="M102 139q0 72 52.5 122t128.5 50q75 0 127.5 -50t52.5 -122t-52.5 -121t-127.5 -49q-77 0 -129 49t-52 121zM664 139q0 72 53 122t129 50q75 0 126.5 -50t51.5 -122t-51.5 -121t-126.5 -49q-77 0 -129.5 49t-52.5 121zM1227 139q0 72 53 122t129 50q75 0 126.5 -50
t51.5 -122t-51.5 -121t-126.5 -49q-77 0 -129.5 49t-52.5 121z" />
    <glyph glyph-name="uni202F" unicode="&#x202f;" horiz-adv-x="204" 
 />
    <glyph glyph-name="perthousand" unicode="&#x2030;" horiz-adv-x="2603" 
d="M438 805q-158 0 -266.5 104t-108.5 256t108.5 255.5t266.5 103.5q157 0 265 -104t108 -255q0 -152 -108.5 -256t-264.5 -104zM260 0l1004 1475h229l-1001 -1475h-232zM438 1001q66 0 111 46.5t45 115.5t-46 115.5t-114 46.5q-67 0 -111 -47t-44 -117q1 -69 47 -114.5
t112 -45.5zM1329 690q157 0 266 -104.5t109 -255.5q0 -152 -109 -256.5t-266 -104.5t-265 105t-108 256t109 255.5t264 104.5zM2165 690q157 0 266 -104.5t109 -255.5q0 -152 -109 -256.5t-266 -104.5t-265 105t-108 256t109 255.5t264 104.5zM1329 492q-66 0 -110.5 -46
t-44.5 -114q0 -69 46 -116.5t113 -47.5t111.5 48.5t42.5 117.5q-1 68 -46.5 113t-111.5 45zM2165 492q-66 0 -111 -46t-45 -114q0 -69 46.5 -116.5t113.5 -47.5t111 48t42 118q-2 68 -46.5 113t-110.5 45z" />
    <glyph glyph-name="minute" unicode="&#x2032;" horiz-adv-x="571" 
d="M78 944l162 590l264 -84l-215 -573z" />
    <glyph glyph-name="second" unicode="&#x2033;" horiz-adv-x="997" 
d="M504 944l162 590l264 -84l-215 -573zM78 944l162 590l264 -84l-215 -573z" />
    <glyph glyph-name="guilsinglleft" unicode="&#x2039;" horiz-adv-x="686" 
d="M457 59l-406 439v57l406 438l161 -168l-272 -299l272 -299z" />
    <glyph glyph-name="guilsinglright" unicode="&#x203a;" horiz-adv-x="686" 
d="M229 993l406 -438v-57l-406 -439l-159 168l270 299l-270 299z" />
    <glyph glyph-name="fraction" unicode="&#x2044;" horiz-adv-x="557" 
d="M-264 51l915 1479l170 -86l-915 -1479z" />
    <glyph glyph-name="colonmonetary" unicode="&#x20a1;" horiz-adv-x="1368" 
d="M1317 412q-41 -201 -194 -319.5t-375 -123.5l-37 -190h-166l39 205q-59 13 -107 32l-45 -237h-164l62 323q-124 99 -191 263t-67 376q0 313 142.5 517t387.5 247l33 172h166l-33 -164q64 -3 111 -14l34 178h166l-47 -235q208 -113 273 -344l-242 -90q-24 93 -82 161
l-186 -962q98 17 170 89t98 179zM631 221l203 1047q-50 16 -101 16h-10l-195 -1005q51 -41 103 -58zM401 467l146 758q-90 -65 -141.5 -191t-51.5 -289q0 -157 47 -278z" />
    <glyph glyph-name="uni20A9" unicode="&#x20a9;" horiz-adv-x="2066" 
d="M23 362v199h268l-35 125h-233v199h176l-172 610h292l291 -1137l289 1137h287l299 -1137l293 1137h266l-166 -610h164v-199h-217l-35 -125h252v-199h-305l-99 -362h-317l-90 360h-387l-88 -360h-307l-101 362h-325zM973 879h127l-64 258zM893 561h287l-31 125h-225z" />
    <glyph glyph-name="Euro" unicode="&#x20ac;" horiz-adv-x="1382" 
d="M1343 207q-80 -113 -207 -175.5t-276 -62.5q-228 0 -381 143t-196 390h-230l80 190h135v115h-213l80 188h150q44 243 202.5 387t386.5 144q142 0 262.5 -59t198.5 -167l-209 -178q-103 135 -252 135q-112 0 -187.5 -67.5t-106.5 -194.5h573l-78 -188h-514v-115h469
l-78 -190h-372q31 -126 105 -195t181 -69q79 0 145 38t109 109z" />
    <glyph glyph-name="uni20B1" unicode="&#x20b1;" horiz-adv-x="1443" 
d="M209 0v764h-152v178h152v90h-152v178h152v285h483q195 0 332.5 -74.5t196.5 -210.5h163v-178h-122q2 -12 2 -37q0 -37 -2 -53h122v-178h-167q-64 -133 -200.5 -207t-326.5 -74h-203v-483h-278zM487 1210h414q-70 82 -205 82h-209v-82zM487 942h480q2 16 2 51v39h-482v-90
zM487 686h209q127 0 199 78h-408v-78z" />
    <glyph glyph-name="uni20B8" unicode="&#x20b8;" horiz-adv-x="1187" 
d="M1120 1249h-1052v246h1052v-246zM1120 889h-387v-889h-276v889h-389v246h1052v-246z" />
    <glyph glyph-name="uni20B9" unicode="&#x20b9;" horiz-adv-x="1067" 
d="M500 0l-430 580v204h149q98 0 168 35.5t102 100.5h-421l82 206h348q-28 76 -101 119t-178 43h-141l86 207h909l-84 -207h-266q59 -71 80 -162h270l-84 -206h-188q-34 -132 -144.5 -216t-279.5 -104l479 -600h-356z" />
    <glyph glyph-name="uni20BA" unicode="&#x20ba;" horiz-adv-x="1251" 
d="M254 -12v594l-186 -66v199l186 65v119l-186 -63v198l186 66v395h278v-297l347 123v-201l-347 -123v-118l347 122v-200l-347 -121v-455q165 15 283.5 121t149.5 268l252 -73q-21 -156 -133.5 -287.5t-287 -208t-368.5 -76.5q-96 0 -174 19z" />
    <glyph glyph-name="uni20BC" unicode="&#x20bc;" horiz-adv-x="1427" 
d="M1337 0h-262v645q0 179 -65 299t-181 160v-1104h-229v1104q-116 -40 -181 -160t-65 -299v-645h-264v643q0 301 136 492t374 229v256h229v-256q238 -37 373 -227t135 -494v-643z" />
    <glyph glyph-name="uni20BD" unicode="&#x20bd;" horiz-adv-x="1355" 
d="M68 588v237h170v670h522q246 0 390 -121t144 -325q0 -206 -147 -333.5t-385 -127.5h-244v-121h316v-209l-316 -2v-256h-280v258h-170v209h170v121h-170zM518 825h213q126 0 201.5 58.5t75.5 158.5q0 99 -75 157t-204 58h-211v-432z" />
    <glyph glyph-name="uni2113" unicode="&#x2113;" horiz-adv-x="894" 
d="M727 0h-131q-220 0 -322 88t-108 283q-67 -22 -111 -33v192q37 11 111 41v543q0 161 95 262t247 101q142 0 224.5 -92t82.5 -250q0 -176 -101.5 -341.5t-277.5 -285.5v-96q0 -93 44.5 -138t137.5 -45h109v-229zM436 733q182 167 182 393q0 154 -90 154q-92 0 -92 -152
v-395z" />
    <glyph glyph-name="uni2116" unicode="&#x2116;" horiz-adv-x="2420" 
d="M1995 854q-163 0 -272 105t-109 262q0 158 109 263t272 105q164 0 273.5 -105t109.5 -263q0 -157 -109.5 -262t-273.5 -105zM1458 1495v-1495h-295l-751 1032h-9v-1032h-290v1495h293l751 -1026h10v1026h291zM1995 1044q73 0 123.5 52t50.5 125q0 72 -50.5 123t-123.5 51
q-72 0 -122 -51t-50 -123t50 -124.5t122 -52.5zM1690 582v161h612v-161h-612z" />
    <glyph glyph-name="uni2117" unicode="&#x2117;" horiz-adv-x="1579" 
d="M791 51q-196 0 -358 92.5t-255.5 254.5t-93.5 356q0 146 54 275t147.5 221.5t223.5 146t277 53.5q197 0 359 -92t255 -252.5t93 -355.5q0 -145 -54.5 -274.5t-148 -222.5t-223.5 -147.5t-276 -54.5zM788 174q160 0 291.5 75.5t207 207t75.5 291.5q0 120 -45 227.5
t-122 184.5t-184 122t-227 45q-159 0 -289 -75.5t-204 -207t-74 -292.5q0 -121 44 -228.5t119.5 -184t181.5 -121t226 -44.5zM508 289v911h362q132 0 225 -81.5t93 -196.5q0 -117 -95 -202t-227 -85h-166v-346h-192zM700 801h111q74 0 120 32.5t46 84.5q0 51 -46.5 83.5
t-119.5 32.5h-111v-233z" />
    <glyph glyph-name="trademark" unicode="&#x2122;" horiz-adv-x="921" 
d="M139 1106v295h-110v94h327v-94h-110v-295h-107zM418 1106v389h149l82 -258l82 258h152v-389h-101v280l-92 -280h-80l-94 278v-278h-98z" />
    <glyph glyph-name="uni2126" unicode="&#x2126;" horiz-adv-x="1576" 
d="M82 0v238h330q-165 116 -242.5 261.5t-77.5 331.5q0 198 89.5 357t248 248.5t356.5 89.5q149 0 278.5 -52.5t220.5 -143.5t143.5 -220.5t52.5 -278.5q0 -372 -320 -595h336v-236h-604v274q134 62 211.5 198.5t77.5 309.5q0 214 -111.5 348t-284.5 134t-283 -133.5
t-110 -346.5q0 -175 78 -313t213 -199v-272h-602z" />
    <glyph glyph-name="estimated" unicode="&#x212e;" horiz-adv-x="1628" 
d="M1548 657h-1110v-354q50 -82 157 -131t236 -49q164 0 299 75t193 193l178 -20q-59 -166 -253.5 -280t-422.5 -114q-155 0 -292 57.5t-234.5 156.5t-154 238.5t-56.5 297.5t56.5 297t154 238t234.5 156t292 57q207 0 372.5 -98.5t258 -274t92.5 -395.5v-50zM1188 803v354
q-56 76 -153 121t-210 45q-115 0 -222.5 -45t-164.5 -117v-358h750z" />
    <glyph glyph-name="onethird" unicode="&#x2153;" horiz-adv-x="1966" 
d="M326 676v670l-189 -168l-127 157l328 262h209v-921h-221zM342 51l913 1479l170 -86l-913 -1479zM1190 195l211 67q9 -41 50 -68.5t93 -27.5q60 0 99.5 32.5t39.5 82.5q0 49 -43 76.5t-120 27.5h-93v166h91q63 0 104 31t41 77q0 43 -33 70t-84 27q-54 0 -92.5 -29
t-48.5 -78l-203 64q31 102 130 165.5t227 63.5q141 0 236 -75t95 -185q0 -70 -40 -123.5t-109 -75.5v-10q79 -19 125.5 -76.5t46.5 -138.5q0 -121 -102.5 -199.5t-260.5 -78.5q-133 0 -232 59t-128 156z" />
    <glyph glyph-name="twothirds" unicode="&#x2154;" horiz-adv-x="2172" 
d="M59 676v186l232 199q130 114 174.5 168t44.5 98q0 46 -32 75.5t-81 29.5q-55 0 -94 -35t-51 -94l-201 34q22 129 121 205t244 76q149 0 239 -78.5t90 -206.5q0 -82 -49 -152.5t-186 -185.5l-168 -139h412v-180h-695zM547 51l913 1479l170 -86l-913 -1479zM1395 195
l211 67q9 -41 50 -68.5t93 -27.5q60 0 98.5 32.5t38.5 82.5q0 49 -43 76.5t-121 27.5h-92v166h92q63 0 104.5 31t41.5 77q0 43 -33 70t-84 27q-54 0 -92.5 -29t-50.5 -78l-203 64q32 103 131 166t227 63q141 0 235.5 -75t94.5 -185q0 -71 -39 -124t-108 -75v-10
q78 -19 124 -76.5t46 -138.5q0 -122 -101.5 -200t-259.5 -78q-134 0 -232.5 59t-127.5 156z" />
    <glyph glyph-name="oneeighth" unicode="&#x215b;" horiz-adv-x="1978" 
d="M326 676v670l-189 -168l-127 157l328 262h209v-921h-221zM342 51l913 1479l170 -86l-913 -1479zM1200 690q0 109 99 180.5t251 71.5t251.5 -71.5t99.5 -180.5q0 -65 -38 -118.5t-106 -86.5q80 -36 125 -96t45 -135q0 -118 -107 -196t-270 -78t-269.5 77.5t-106.5 196.5
q0 75 45 135t124 96q-67 33 -105 86.5t-38 118.5zM1415 678q0 -49 39 -83t96 -34q58 0 98 33.5t40 83.5t-40 83.5t-98 33.5q-57 0 -96 -34t-39 -83zM1403 266q0 -55 42 -92t105 -37q62 0 105 37t43 92t-43 93t-105 38q-63 0 -105 -37.5t-42 -93.5z" />
    <glyph glyph-name="threeeighths" unicode="&#x215c;" horiz-adv-x="2136" 
d="M29 872l211 66q8 -40 48.5 -67t94.5 -27q59 0 98 32.5t39 81.5q0 50 -43 77.5t-121 27.5h-92v166h90q64 0 105 30.5t41 77.5q0 42 -32.5 69.5t-84.5 27.5t-90.5 -29.5t-50.5 -79.5l-203 66q32 101 131.5 164t226.5 63q141 0 235.5 -75t94.5 -185q0 -69 -39 -122.5
t-108 -76.5v-10q78 -17 124 -75t46 -138q0 -123 -101.5 -201t-259.5 -78q-135 0 -233 58.5t-127 156.5zM498 51l913 1479l172 -86l-915 -1479zM1358 690q0 109 99 180.5t251 71.5t251 -71.5t99 -180.5q0 -65 -38.5 -118.5t-106.5 -86.5q80 -36 125 -96t45 -135
q0 -118 -107 -196t-270 -78t-269 77.5t-106 196.5q0 75 44.5 135t123.5 96q-67 33 -104 86.5t-37 118.5zM1571 678q0 -50 39.5 -83.5t97.5 -33.5q57 0 96 34t39 83t-39 83t-96 34q-58 0 -97.5 -33.5t-39.5 -83.5zM1559 266q0 -55 42.5 -92t104.5 -37q63 0 105 37t42 92
q0 56 -42 93.5t-105 37.5q-62 0 -104.5 -38t-42.5 -93z" />
    <glyph glyph-name="fiveeighths" unicode="&#x215d;" horiz-adv-x="2136" 
d="M55 821l181 113q49 -84 139 -84q61 0 102 37.5t41 93.5t-41 93.5t-102 37.5q-76 0 -133 -63l-168 51l35 497h602v-178h-420l-17 -188q73 51 168 51q129 0 219.5 -87.5t90.5 -213.5q0 -138 -107 -232t-262 -94q-104 0 -192.5 44.5t-135.5 121.5zM498 51l915 1479l170 -86
l-915 -1479zM1358 690q0 109 99 180.5t251 71.5t251 -71.5t99 -180.5q0 -65 -38 -118.5t-105 -86.5q78 -36 123 -96t45 -135q0 -118 -107 -196t-270 -78t-269 77.5t-106 196.5q0 76 44.5 135.5t125.5 95.5q-68 32 -105.5 85.5t-37.5 119.5zM1571 678q0 -50 39.5 -83.5
t97.5 -33.5t96.5 33.5t38.5 83.5q0 49 -39 83t-96 34q-58 0 -97.5 -33.5t-39.5 -83.5zM1559 266q0 -55 42.5 -92t104.5 -37q63 0 105 37t42 92q0 56 -42 93.5t-105 37.5q-62 0 -104.5 -38t-42.5 -93z" />
    <glyph glyph-name="seveneighths" unicode="&#x215e;" horiz-adv-x="1943" 
d="M63 678l453 735h-459v184h699v-180l-443 -739h-250zM307 51l914 1479l170 -86l-914 -1479zM1165 690q0 109 100 180.5t251 71.5q152 0 252 -71.5t100 -180.5q0 -65 -39 -118.5t-107 -86.5q80 -36 125 -96t45 -135q0 -119 -106.5 -196.5t-269.5 -77.5t-270 78t-107 196
q0 75 45 135t125 96q-67 33 -105.5 86.5t-38.5 118.5zM1380 678q0 -49 39.5 -83t96.5 -34q58 0 97.5 33.5t39.5 83.5t-39.5 83.5t-97.5 33.5q-57 0 -96.5 -34t-39.5 -83zM1368 266q0 -55 42.5 -92t105.5 -37t105 37t42 92q0 56 -42 93.5t-105 37.5t-105.5 -37.5t-42.5 -93.5
z" />
    <glyph glyph-name="partialdiff" unicode="&#x2202;" horiz-adv-x="1167" 
d="M479 -31q-130 0 -232 72t-152.5 196t-35.5 271q22 206 158 333.5t334 127.5q183 0 268 -119l-2 47q-25 170 -134 281.5t-257 111.5q-57 0 -113 -10l25 211q79 18 160 18q198 0 341 -116t206.5 -320.5t37.5 -462.5q-12 -112 -39 -206t-75.5 -175.5t-115.5 -138t-162 -89
t-212 -32.5zM537 188q100 0 171 78.5t83 202.5q13 124 -41 202.5t-154 78.5t-171.5 -78.5t-84.5 -202.5q-12 -125 42 -203t155 -78z" />
    <glyph glyph-name="uni2206" unicode="&#x2206;" horiz-adv-x="1490" 
d="M78 0v217l510 1278h315l510 -1278v-217h-1335zM381 242h727l-363 981h-4z" />
    <glyph glyph-name="product" unicode="&#x220f;" horiz-adv-x="1384" 
d="M139 -156v1651h1104v-1651h-278v1405h-547v-1405h-279z" />
    <glyph glyph-name="summation" unicode="&#x2211;" horiz-adv-x="1277" 
d="M63 -143v235l478 594l-457 567v242h1102v-250h-729l393 -485v-150l-408 -501h775v-252h-1154z" />
    <glyph glyph-name="minus" unicode="&#x2212;" horiz-adv-x="1155" 
d="M84 614v215h985v-215h-985z" />
    <glyph glyph-name="radical" unicode="&#x221a;" horiz-adv-x="1818" 
d="M1808 1745l-923 -2175h-146l-465 799l-157 -136l-94 158l331 283l426 -744l770 1815h258z" />
    <glyph glyph-name="infinity" unicode="&#x221e;" horiz-adv-x="2113" 
d="M1022 502q-112 -127 -224 -185.5t-239 -58.5q-212 0 -354 140t-142 347q0 206 140.5 342t355.5 136q156 0 295 -97t354 -352q14 -17 47.5 -56.5t48 -56.5t43 -47.5t47.5 -44t45.5 -30t52.5 -23t54 -6.5q89 0 149 64t60 159q0 100 -64 167t-159 67q-66 0 -126 -41
t-140 -140l-172 189q114 128 225 187t237 59q211 0 353.5 -140.5t142.5 -347.5q0 -206 -141 -341.5t-355 -135.5q-161 0 -306 104t-382 388q-6 7 -31 37t-33.5 40t-32 35.5t-36.5 35.5t-36 27.5t-41.5 24.5t-42.5 13t-48 6q-89 0 -148 -62.5t-59 -156.5q0 -100 64 -168
t158 -68q65 0 127.5 42t138.5 138z" />
    <glyph glyph-name="integral" unicode="&#x222b;" horiz-adv-x="825" 
d="M23 -360v225h65q99 0 142.5 50t43.5 161v1265q0 431 414 431h115v-224h-60q-101 0 -146.5 -53.5t-45.5 -169.5v-1257q0 -428 -418 -428h-110z" />
    <glyph glyph-name="approxequal" unicode="&#x2248;" horiz-adv-x="1175" 
d="M295 774l-209 25q23 143 107 225t208 82q51 0 103 -16.5t87.5 -36t79 -36t79.5 -16.5q93 0 127 99l206 -27q-23 -144 -105.5 -224.5t-205.5 -80.5q-66 0 -132 26t-122.5 52t-97.5 26q-45 0 -78.5 -25.5t-46.5 -72.5zM301 342l-209 25q23 141 107.5 223t208.5 82
q51 0 103 -16.5t87.5 -36t78.5 -36t79 -16.5q97 0 127 99l209 -27q-25 -143 -108 -223t-206 -80q-51 0 -104 16t-89.5 36t-80 36t-76.5 16q-45 0 -78.5 -26t-48.5 -72z" />
    <glyph glyph-name="notequal" unicode="&#x2260;" horiz-adv-x="1157" 
d="M215 260l76 160h-205v215h305l88 184h-393v215h496l116 244l197 -78l-78 -166h254v-215h-356l-88 -184h444v-215h-547l-114 -242z" />
    <glyph glyph-name="lessequal" unicode="&#x2264;" horiz-adv-x="1136" 
d="M100 698v185l924 372v-229l-612 -233l612 -232v-231zM100 0v211h924v-211h-924z" />
    <glyph glyph-name="greaterequal" unicode="&#x2265;" horiz-adv-x="1136" 
d="M1024 883v-185l-924 -368v231l613 232l-613 233v229zM1024 211v-211h-924v211h924z" />
    <glyph glyph-name="lozenge" unicode="&#x25ca;" horiz-adv-x="1261" 
d="M479 -29l-459 762l457 762h307l459 -762l-459 -762h-305zM621 205h20l307 528l-305 529h-22l-306 -529z" />
    <glyph glyph-name="uniE000" unicode="&#xe000;" horiz-adv-x="2383" 
d="M2292 537h-2200v1040h2200v-1040zM539 793q103 0 170 55t79 149h-133q-9 -46 -40.5 -72t-75.5 -26q-62 0 -101 50.5t-39 129.5q0 80 39.5 130.5t100.5 50.5q44 0 74 -26t42 -73h131q-12 95 -78.5 150t-168.5 55q-123 0 -198 -79t-75 -208t75 -207.5t198 -78.5zM1563 1352
h-125v-549h338v106h-213v443zM952 803l39 119h187l39 -119h131l-191 549h-135l-195 -549h125zM1085 1219l60 -193h-123zM877 317h-70v-36h61v-31h-61v-39h74v-33h-113v172h109v-33zM674 233h-21v-55h-39v172h60q32 0 50.5 -15.5t18.5 -43.5q0 -26 -18.5 -42t-50.5 -16z
M492 350l32 -63l35 63h41l-55 -100v-72h-41v70l-58 102h46zM434 350v-33h-45v-139h-39v139h-47v33h131zM672 317h-19v-51h19q13 0 21.5 7.5t8.5 19.5q0 24 -30 24zM436 -45q0 40 25 65t63 25q40 0 64 -25t24 -65q0 -41 -24 -65.5t-64 -24.5q-39 0 -63.5 24.5t-24.5 65.5z
M420 6h-66v-39h60v-33h-60v-67h-39v172h105v-33zM639 39h39v-100q0 -41 31 -41q32 0 32 41v100h39v-100q0 -35 -18.5 -54.5t-52.5 -19.5q-33 0 -51.5 19.5t-18.5 54.5v100zM915 -133l-63 119v-119h-37v172h49l64 -117v117h35v-172h-48zM1059 -133h-60v172h58q42 0 68 -23
t26 -61t-26 -63t-66 -25zM1276 -66l37 -67h-43l-31 61h-22v-61h-39v172h63q30 0 49 -14.5t19 -40.5q0 -15 -9 -29.5t-24 -20.5zM1364 39l35 -64l35 64h41l-58 -100v-72h-39v72l-57 100h43zM571 -45q0 25 -12.5 40t-34.5 15q-20 0 -32.5 -15t-12.5 -40q0 -26 12.5 -41.5
t32.5 -15.5q22 0 34.5 15.5t12.5 41.5zM1237 8h-20v-49h20q13 0 22 7t9 18q0 10 -8.5 17t-22.5 7zM1055 6h-17v-106h19q23 0 38 15t15 40q0 23 -15 37t-40 14z" />
    <glyph glyph-name="fi" unicode="&#xfb01;" horiz-adv-x="1290" 
d="M223 0v809h-178v235h178v95q0 192 94 289.5t279 97.5q129 0 233 -56l-104 -223q-49 27 -98 27q-63 0 -98 -38t-35 -106v-86h243v-235h-243v-809h-271zM887 1354q0 70 50 117t124 47q73 0 123.5 -47t50.5 -117q0 -69 -51 -116.5t-123 -47.5q-74 0 -124 47t-50 117zM926 0
v1044h270v-1044h-270z" />
    <glyph glyph-name="fl" unicode="&#xfb02;" horiz-adv-x="1271" 
d="M223 0v809h-178v235h178v95q0 192 94 289.5t279 97.5q129 0 233 -56l-104 -223q-49 27 -98 27q-63 0 -98 -38t-35 -106v-86h243v-235h-243v-809h-271zM907 0v1495h271v-1495h-271z" />
    <glyph glyph-name="idot" 
d="M238 1354q0 70 49 117t123 47t124 -47t50 -117q0 -69 -50.5 -116.5t-123.5 -47.5q-74 0 -123 47t-49 117z" />
    <glyph glyph-name="zero.num" horiz-adv-x="888" 
d="M446 655q-170 0 -279.5 123t-109.5 314v100q0 187 110 306.5t282 119.5q170 0 277.5 -118.5t107.5 -307.5v-100q0 -190 -109.5 -313.5t-278.5 -123.5zM446 852q74 0 115 67.5t41 188.5v72q0 117 -40.5 179t-115.5 62t-117 -63.5t-42 -177.5v-72q0 -120 42 -188t117 -68z
" />
    <glyph glyph-name="one.num" horiz-adv-x="645" 
d="M326 676v670l-189 -168l-127 157l328 262h209v-921h-221z" />
    <glyph glyph-name="two.num" horiz-adv-x="808" 
d="M59 676v186l232 199q130 114 174.5 168t44.5 98q0 46 -32 75.5t-81 29.5q-55 0 -94 -35t-51 -94l-201 34q22 129 121 205t244 76q149 0 239 -78.5t90 -206.5q0 -82 -49 -152.5t-186 -185.5l-168 -139h412v-180h-695z" />
    <glyph glyph-name="three.num" horiz-adv-x="802" 
d="M29 872l211 66q8 -40 48.5 -67t94.5 -27q59 0 98 32.5t39 81.5q0 50 -43 77.5t-121 27.5h-92v166h90q64 0 105 30.5t41 77.5q0 42 -32.5 69.5t-84.5 27.5t-90.5 -29.5t-50.5 -79.5l-203 66q32 101 131.5 164t226.5 63q141 0 235.5 -75t94.5 -185q0 -69 -39 -122.5
t-108 -76.5v-10q78 -17 124 -75t46 -138q0 -123 -101.5 -201t-259.5 -78q-135 0 -233 58.5t-127 156.5z" />
    <glyph glyph-name="four.num" horiz-adv-x="866" 
d="M49 829v220l381 548h264v-598h123v-170h-121v-153h-219v153h-428zM217 999h266v385z" />
    <glyph glyph-name="five.num" horiz-adv-x="802" 
d="M55 821l181 113q49 -84 139 -84q61 0 102 37.5t41 93.5t-41 93.5t-102 37.5q-76 0 -133 -63l-168 51l35 497h602v-178h-420l-17 -188q73 51 168 51q129 0 219.5 -87.5t90.5 -213.5q0 -138 -107 -232t-262 -94q-104 0 -192.5 44.5t-135.5 121.5z" />
    <glyph glyph-name="six.num" horiz-adv-x="872" 
d="M449 655q-183 0 -287.5 124t-104.5 341q0 230 119 364t324 134q155 0 286 -86l-92 -170q-94 70 -186 70q-107 0 -176.5 -66t-77.5 -174q40 51 105.5 79.5t140.5 28.5q136 0 228.5 -90.5t92.5 -224.5q0 -143 -105.5 -236.5t-266.5 -93.5zM442 846q62 0 105 40.5t43 100.5
q0 59 -42.5 99t-105.5 40q-62 0 -104.5 -40.5t-42.5 -98.5q0 -60 42.5 -100.5t104.5 -40.5z" />
    <glyph glyph-name="seven.num" horiz-adv-x="817" 
d="M63 678l453 735h-459v184h697v-180l-441 -739h-250z" />
    <glyph glyph-name="eight.num" horiz-adv-x="858" 
d="M80 1366q0 109 99 180.5t251 71.5t251 -71.5t99 -180.5q0 -65 -38 -118.5t-105 -86.5q78 -36 123 -96t45 -135q0 -119 -107 -197t-270 -78q-162 0 -268.5 78t-106.5 197q0 76 44.5 135.5t125.5 95.5q-68 32 -105.5 85.5t-37.5 119.5zM293 1354q0 -49 39 -82t98 -33t98 33
t39 82t-40 82.5t-97 33.5t-97 -33.5t-40 -82.5zM283 942q0 -55 41.5 -92t103.5 -37q63 0 105 37t42 92q0 56 -42 93.5t-105 37.5q-61 0 -103 -37.5t-42 -93.5z" />
    <glyph glyph-name="nine.num" horiz-adv-x="872" 
d="M426 1618q181 0 285 -124t104 -341q0 -231 -118.5 -364.5t-323.5 -133.5q-151 0 -287 86l92 170q96 -69 187 -69q107 0 176 65.5t77 173.5q-40 -51 -105 -79.5t-140 -28.5q-136 0 -229 90.5t-93 224.5q0 143 106 236.5t269 93.5zM430 1430q-61 0 -104 -42t-43 -102
q0 -59 42 -99t105 -40q62 0 105 40.5t43 98.5q0 60 -43 102t-105 42z" />
    <glyph glyph-name="zero.den" horiz-adv-x="888" 
d="M446 -20q-170 0 -279.5 122.5t-109.5 313.5v100q0 187 110 306.5t282 119.5q170 0 277.5 -118.5t107.5 -307.5v-100q0 -190 -109.5 -313t-278.5 -123zM446 176q74 0 115 67.5t41 188.5v72q0 117 -40.5 179t-115.5 62t-117 -63.5t-42 -177.5v-72q0 -120 42 -188t117 -68z
" />
    <glyph glyph-name="one.den" horiz-adv-x="647" 
d="M326 0v670l-189 -168l-127 157l328 263h209v-922h-221z" />
    <glyph glyph-name="two.den" horiz-adv-x="808" 
d="M59 0v186l232 199q130 114 174.5 168t44.5 98q0 46 -32 75.5t-81 29.5q-55 0 -94 -35t-51 -94l-201 35q22 129 121 204.5t244 75.5q149 0 239 -78.5t90 -206.5q0 -82 -49 -152.5t-186 -185.5l-168 -139h412v-180h-695z" />
    <glyph glyph-name="three.den" horiz-adv-x="802" 
d="M29 195l211 67q8 -41 48.5 -68.5t94.5 -27.5q59 0 98 33t39 82t-43 76.5t-121 27.5h-92v166h90q64 0 105 31t41 77q0 43 -32.5 70t-84.5 27q-53 0 -91 -29t-50 -78l-203 64q32 103 131 166t227 63q141 0 235.5 -75t94.5 -185q0 -71 -39 -124t-108 -75v-10
q78 -19 124 -76.5t46 -138.5q0 -122 -101.5 -200t-259.5 -78q-134 0 -232.5 59t-127.5 156z" />
    <glyph glyph-name="four.den" horiz-adv-x="866" 
d="M47 154v219l383 549h264v-598h123v-170h-121v-154h-219v154h-430zM217 324h266v385z" />
    <glyph glyph-name="five.den" horiz-adv-x="802" 
d="M55 145l181 113q49 -84 139 -84q61 0 102 37.5t41 93.5t-41 93.5t-102 37.5q-76 0 -133 -63l-168 51l35 498h602v-179h-420l-17 -188q73 51 168 51q129 0 219.5 -87.5t90.5 -213.5q0 -138 -106.5 -231.5t-262.5 -93.5q-104 0 -192.5 44.5t-135.5 120.5z" />
    <glyph glyph-name="six.den" horiz-adv-x="872" 
d="M449 -20q-183 0 -287.5 123.5t-104.5 340.5q0 230 119 364t324 134q155 0 286 -86l-92 -170q-94 70 -186 70q-107 0 -176.5 -66t-77.5 -174q40 51 105.5 80t140.5 29q136 0 228.5 -91t92.5 -225q0 -143 -105.5 -236t-266.5 -93zM442 170q62 0 105 40.5t43 100.5
q0 59 -42.5 99.5t-105.5 40.5q-61 0 -104 -40.5t-43 -99.5q0 -60 42.5 -100.5t104.5 -40.5z" />
    <glyph glyph-name="seven.den" horiz-adv-x="817" 
d="M63 0l453 735h-459v187h699v-183l-443 -739h-250z" />
    <glyph glyph-name="eight.den" horiz-adv-x="858" 
d="M80 690q0 109 99 180.5t251 71.5t251 -71.5t99 -180.5q0 -65 -38 -118.5t-105 -86.5q78 -36 123 -96t45 -135q0 -118 -107 -196t-270 -78t-269 77.5t-106 196.5q0 76 44.5 135.5t125.5 95.5q-68 32 -105.5 85.5t-37.5 119.5zM293 678q0 -50 39.5 -83.5t97.5 -33.5
t97.5 33.5t39.5 83.5q0 49 -40 83t-97 34t-97 -34t-40 -83zM283 266q0 -55 41.5 -92t103.5 -37q63 0 105 37t42 92q0 56 -42 93.5t-105 37.5q-61 0 -103 -37.5t-42 -93.5z" />
    <glyph glyph-name="nine.den" horiz-adv-x="872" 
d="M426 942q181 0 285 -124t104 -341q0 -230 -118.5 -363.5t-323.5 -133.5q-151 0 -287 86l92 170q97 -70 187 -70q107 0 176 66t77 174q-40 -51 -105 -80t-140 -29q-136 0 -229 90.5t-93 224.5q0 143 106 236.5t269 93.5zM430 754q-61 0 -104 -42t-43 -102q0 -59 42 -99
t105 -40q62 0 105 40.5t43 98.5q0 60 -43 102t-105 42z" />
    <glyph glyph-name="period.uc" horiz-adv-x="581" 
d="M102 147q0 74 55 125.5t136 51.5q78 0 133 -52t55 -125q0 -75 -55 -126.5t-133 -51.5q-81 0 -136 51.5t-55 126.5z" />
    <glyph glyph-name="comma.uc" horiz-adv-x="579" 
d="M-16 -276l258 585l258 -127l-310 -561z" />
    <glyph glyph-name="exclam.uc" horiz-adv-x="616" 
d="M176 449l-24 1046h313l-23 -1046h-266zM121 139q0 72 54.5 122t133.5 50t134 -50t55 -122t-54.5 -121t-134.5 -49t-134 49t-54 121z" />
    <glyph glyph-name="question.uc" horiz-adv-x="1150" 
d="M389 424v379q47 -6 86 -6q133 0 217 63.5t84 167.5q0 94 -68 157.5t-169 63.5q-167 0 -263 -176l-239 166q75 130 217 208.5t303 78.5q219 0 369.5 -136.5t150.5 -334.5q0 -170 -113.5 -299.5t-291.5 -161.5v-170h-283zM346 139q0 72 55 122t136 50q78 0 133 -50t55 -122
t-55 -121t-133 -49q-82 0 -136.5 49t-54.5 121z" />
    <glyph glyph-name="colon.uc" horiz-adv-x="604" 
d="M113 1116q0 74 55.5 125t134.5 51t134 -51t55 -125t-55 -125t-134 -51t-134.5 51t-55.5 125zM113 317q0 75 55 126t135 51t134.5 -51t54.5 -126q0 -73 -54.5 -123.5t-134.5 -50.5t-135 50.5t-55 123.5z" />
    <glyph glyph-name="periodcentered.uc" horiz-adv-x="581" 
d="M102 737q0 75 55 126.5t136 51.5q78 0 133 -51.5t55 -126.5q0 -73 -55 -124.5t-133 -51.5q-81 0 -136 51t-55 125z" />
    <glyph glyph-name="questiondown.uc" horiz-adv-x="1150" 
d="M805 1356q0 -72 -55.5 -122t-135.5 -50q-78 0 -133 50t-55 122t55 121t133 49q80 0 135.5 -49t55.5 -121zM760 1071v-379q-44 6 -86 6q-131 0 -215 -63.5t-84 -165.5q0 -95 68 -158t169 -63q165 0 260 174l242 -166q-77 -131 -219 -209t-303 -78q-143 0 -262.5 62
t-188.5 170.5t-69 238.5q0 171 113.5 300t293.5 161v170h281z" />
    <glyph glyph-name="exclamdown.uc" horiz-adv-x="616" 
d="M498 1356q0 -72 -55 -122t-136 -50q-78 0 -132 50t-54 122t54 121t132 49q82 0 136.5 -49t54.5 -121zM442 1049l23 -1049h-313l24 1049h266z" />
    <glyph glyph-name="hyphen.uc" horiz-adv-x="798" 
d="M84 604v258h629v-258h-629z" />
    <glyph glyph-name="endash.uc" horiz-adv-x="1097" 
d="M84 604v258h928v-258h-928z" />
    <glyph glyph-name="emdash.uc" horiz-adv-x="1742" 
d="M84 604v258h1573v-258h-1573z" />
    <glyph glyph-name="guilsinglleft.uc" horiz-adv-x="716" 
d="M479 236l-426 456v60l426 456l168 -176l-285 -311l285 -309z" />
    <glyph glyph-name="guilsinglright.uc" horiz-adv-x="716" 
d="M240 1208l424 -456v-60l-424 -456l-170 176l284 309l-284 311z" />
    <glyph glyph-name="guillemotleft.uc" horiz-adv-x="1282" 
d="M479 236l-426 456v60l426 456l168 -176l-285 -311l285 -309zM1044 236l-423 456v60l423 456l170 -176l-284 -311l284 -309z" />
    <glyph glyph-name="guillemotright.uc" horiz-adv-x="1284" 
d="M807 1208l424 -456v-60l-424 -456l-170 176l285 309l-285 311zM240 1208l426 -456v-60l-426 -456l-170 176l284 309l-284 311z" />
    <glyph glyph-name="parenleft.uc" horiz-adv-x="790" 
d="M690 -135l-223 -133q-169 211 -263.5 475t-94.5 526q0 260 95 525.5t263 474.5l223 -131q-146 -180 -226.5 -408.5t-80.5 -460.5q0 -233 80.5 -460.5t226.5 -407.5z" />
    <glyph glyph-name="parenright.uc" horiz-adv-x="792" 
d="M102 1602l222 131q170 -209 265 -473.5t95 -526.5q0 -261 -95 -526t-265 -475l-222 133q146 180 227 407.5t81 460.5q0 232 -81 460.5t-227 408.5z" />
    <glyph glyph-name="bracketleft.uc" horiz-adv-x="788" 
d="M696 1466h-286v-1462h286v-223h-551v1907h551v-222z" />
    <glyph glyph-name="bracketright.uc" horiz-adv-x="786" 
d="M90 4h289v1462h-289v222h551v-1907h-551v223z" />
    <glyph glyph-name="braceleft.uc" horiz-adv-x="907" 
d="M817 -219h-174q-172 0 -274.5 99t-102.5 265v281q0 88 -49.5 139t-134.5 51v236q84 0 134 51.5t50 138.5v283q0 165 103 264t274 99h174v-222h-108q-82 0 -131.5 -38t-49.5 -101v-311q0 -118 -61.5 -194t-163.5 -87v-4q101 -9 163 -85t62 -193v-310q0 -63 49.5 -101
t131.5 -38h108v-223z" />
    <glyph glyph-name="braceright.uc" horiz-adv-x="907" 
d="M90 1688h174q172 0 275.5 -99.5t103.5 -265.5v-279q0 -88 48.5 -139t133.5 -51v-236q-83 0 -132.5 -52t-49.5 -138v-285q0 -164 -103.5 -263t-275.5 -99h-174v223h109q83 0 132.5 38t49.5 101v312q0 117 61 193t164 85v4q-103 11 -164 87t-61 194v309q0 63 -49.5 101
t-132.5 38h-109v222z" />
    <glyph glyph-name="caron.alt" horiz-adv-x="280" 
d="M18 1014l33 481h258l-125 -481h-166z" />
    <glyph glyph-name="dotmid" horiz-adv-x="456" 
d="M57 752q0 69 49 115t121 46q74 0 123 -46t49 -115t-49.5 -116.5t-122.5 -47.5q-72 0 -121 47t-49 117z" />
    <glyph glyph-name="ogonek.alt" 
d="M621 -406q-85 -57 -197 -57q-120 0 -200.5 65t-80.5 162q0 109 103.5 227.5t281.5 213.5l54 -41q-109 -117 -152 -185t-43 -124q0 -46 26.5 -73.5t71.5 -27.5q32 0 66 17z" />
    <glyph glyph-name="ijacute" horiz-adv-x="1042" 
d="M94 1157l182 338h334l-297 -338h-219zM678 1157l182 338h334l-297 -338h-219zM94 0v1044h271v-1044h-271zM678 -72v1116h270v-1140q-2 -181 -95 -284t-257 -103q-109 0 -213 49l80 227q41 -24 94 -24q62 0 91 38t30 121z" />
    <glyph glyph-name="jacute" horiz-adv-x="479" 
d="M115 1157l182 338h334l-297 -338h-219zM115 -72v1116h270v-1140q-2 -180 -95 -283.5t-255 -103.5q-111 0 -215 49l80 227q41 -24 94 -24q62 0 91 38t30 121z" />
    <glyph glyph-name="dotaccent.uc" 
d="M233 1800q0 70 52 118t127 48t125.5 -47t50.5 -117q0 -71 -51.5 -119.5t-126.5 -48.5t-126 48t-51 118z" />
    <glyph glyph-name="macron.uc" 
d="M59 1655v233h701v-233h-701z" />
    <glyph glyph-name="breve.uc" 
d="M25 1925h231q4 -49 48.5 -81t109.5 -32t105 30.5t44 82.5h232q-5 -143 -111.5 -232t-273.5 -89t-273.5 89t-111.5 232z" />
    <glyph glyph-name="dieresis.uc" 
d="M641 1640q-66 0 -113 45t-47 109q0 63 47.5 108.5t114.5 45.5t113.5 -44.5t46.5 -109.5q0 -64 -47 -109t-115 -45zM174 1640q-66 0 -112 45t-46 109q0 65 46.5 109.5t113.5 44.5q68 0 115 -45t47 -109t-48 -109t-116 -45z" />
    <glyph glyph-name="circumflex.uc" 
d="M-25 1585l377 363h111l379 -363h-303l-127 119l-131 -119h-306z" />
    <glyph glyph-name="caron.uc" 
d="M850 1925l-369 -330h-137l-375 330h326l113 -117l120 117h322z" />
    <glyph glyph-name="ring.uc" 
d="M410 1550q-110 0 -186.5 72t-76.5 176q0 103 75.5 173.5t187.5 70.5q110 0 186 -70.5t76 -173.5q0 -104 -76 -176t-186 -72zM408 1683q47 0 80.5 34t33.5 81q0 46 -33.5 78.5t-80.5 32.5q-46 0 -78.5 -33t-32.5 -80t32.5 -80t78.5 -33z" />
    <glyph glyph-name="tilde.uc" 
d="M143 1638l-182 43q10 121 86.5 194t190.5 73q49 0 101.5 -15.5t88.5 -34t79 -34t77 -15.5q77 0 92 74l182 -43q-13 -121 -89.5 -193.5t-190.5 -72.5q-61 0 -125.5 24t-122 48t-99.5 24q-76 0 -88 -72z" />
    <glyph glyph-name="grave.uc" 
d="M446 1587l-296 338h333l183 -338h-220z" />
    <glyph glyph-name="acute.uc" 
d="M152 1587l182 338h340l-297 -338h-225z" />
    <glyph glyph-name="acute.ucshort" 
d="M266 1567l287 235h371l-365 -235h-293z" />
    <glyph glyph-name="hungarumlaut.uc" 
d="M-27 1597l158 328h303l-264 -328h-197zM377 1597l158 328h303l-263 -328h-198z" />
    <glyph glyph-name="dotmid.uc" horiz-adv-x="456" 
d="M57 774q0 69 49 115.5t121 46.5q73 0 122.5 -46.5t49.5 -115.5t-49.5 -116.5t-122.5 -47.5q-72 0 -121 47t-49 117z" />
    <glyph glyph-name="dotbelowcmb.uc" 
d="M240 -283q0 69 49 115.5t121 46.5t122 -46.5t50 -115.5t-50 -116t-122 -47t-121 46.5t-49 116.5z" />
    <glyph glyph-name="cedilla.uc" 
d="M158 -397l110 145q30 -41 84 -41q31 0 51.5 19.5t20.5 48.5q0 35 -26.5 60t-69.5 28l-54 4l66 143l254 -10l-41 -74q123 -62 123 -182q0 -97 -77.5 -157t-203.5 -60q-145 0 -237 76z" />
    <glyph glyph-name="commasubnosp.uc" 
d="M211 -418l141 336l273 -51l-215 -359z" />
    <glyph glyph-name="ogonek.uc" 
d="M655 -406q-122 -57 -217 -57q-130 0 -212.5 68.5t-82.5 177.5q0 78 44 152.5t114 115.5l266 -51q-71 -26 -109 -67t-38 -91q0 -41 25.5 -66.5t66.5 -25.5q40 0 72 21z" />
    <glyph glyph-name="ogonek.alt.uc" 
d="M629 -406q-91 -57 -217 -57q-136 0 -222 71t-86 185q0 231 400 400l78 -29q-105 -105 -150 -174.5t-45 -128.5q0 -51 27 -79t73 -28q38 0 72 17z" />
    <glyph glyph-name="IJacute" horiz-adv-x="1538" 
d="M106 1587l181 338h342l-297 -338h-226zM1122 1587l181 338h342l-297 -338h-226zM516 276l264 121q72 -147 187 -147q77 0 122 51t44 137l2 88v969h290v-1079q0 -206 -119 -326.5t-321 -120.5q-163 0 -287 80.5t-182 226.5zM113 0v1495h290v-1495h-290z" />
    <glyph glyph-name="Jacute" horiz-adv-x="1021" 
d="M606 1587l180 338h342l-297 -338h-225zM0 276l264 121q72 -147 189 -147q75 0 119.5 51t43.5 137l2 88v969h291v-1079q0 -205 -118.5 -326t-319.5 -121q-165 0 -289 80.5t-182 226.5z" />
    <glyph glyph-name="dagger.sup" horiz-adv-x="763" 
d="M264 567v506h-219v205h219v258h236v-258h219v-205h-219v-506h-236z" />
    <glyph glyph-name="daggerdbl.sup" horiz-adv-x="763" 
d="M264 459v258h-219v205h219v151h-219v207h219v256h236v-256h219v-207h-219v-151h219v-205h-219v-258h-236z" />
    <glyph glyph-name="registered.sup" horiz-adv-x="722" 
d="M360 958q-126 0 -211.5 85t-85.5 210q0 126 85.5 211.5t211.5 85.5q127 0 213 -85.5t86 -211.5q0 -125 -86 -210t-213 -85zM360 1022q100 0 166 65.5t66 165.5t-67 167t-165 67t-163.5 -67t-65.5 -167t65.5 -165.5t163.5 -65.5zM229 1098v315h133q62 0 99 -27t37 -73
q0 -59 -56 -90l70 -125h-104l-54 106h-35v-106h-90zM319 1268h35q22 0 35.5 11.5t13.5 31.5q0 17 -14 29t-35 12h-35v-84z" />
    <glyph glyph-name="at.uc" horiz-adv-x="1808" 
d="M885 35v-182q-167 0 -317 63.5t-258 171.5t-171 258t-63 316q0 226 111 412t305 292.5t430 106.5q172 0 325 -59t263 -160t174.5 -242t64.5 -299q0 -214 -110.5 -347t-290.5 -133q-158 0 -211 115q-115 -115 -275 -115q-169 0 -286 126t-117 307q0 180 117 305t286 125
q141 0 248 -90v61h211v-438q0 -191 88 -191q63 0 106.5 82.5t43.5 202.5q0 159 -81.5 288.5t-224 203t-317.5 73.5q-138 0 -261 -49t-211 -133t-139 -201.5t-51 -249.5q0 -170 81 -312.5t221.5 -225t308.5 -82.5zM694 666q0 -91 59.5 -152t147.5 -61t148.5 61.5t60.5 151.5
q0 89 -60.5 150t-148.5 61t-147.5 -61t-59.5 -150z" />
    <glyph glyph-name="bar.uc" horiz-adv-x="550" 
d="M152 -225v1945h247v-1945h-247z" />
    <glyph glyph-name="slash.uc" horiz-adv-x="921" 
d="M45 -225l584 1945h248l-584 -1945h-248z" />
    </font>
</defs>
</svg>
